/* XPM */
static char *result[] = {
/* columns rows colors chars-per-pixel */
"64 64 227 2 ",
"   c #F5BD07",
".  c #F5BD08",
"X  c #F5BD09",
"o  c #F5BE09",
"O  c #F5BE0A",
"+  c #F5BE0B",
"@  c #F5BE0C",
"#  c #F5BE0D",
"$  c #F5BE0E",
"%  c #F5BF0E",
"&  c #F5BF0F",
"*  c #F5BF10",
"=  c #F5BF12",
"-  c #F5C012",
";  c #F5C013",
":  c #F5C014",
">  c #F5C015",
",  c #F5C016",
"<  c #F5C117",
"1  c #F5C118",
"2  c #F4C119",
"3  c #F5C119",
"4  c #F5C11A",
"5  c #F5C11B",
"6  c #F5C21B",
"7  c #F5C21C",
"8  c #F5C21D",
"9  c #F5C21F",
"0  c #F5C31F",
"q  c #F5C320",
"w  c #F5C322",
"e  c #F5C323",
"r  c #F5C423",
"t  c #F5C424",
"y  c #F5C425",
"u  c #F4C426",
"i  c #F5C426",
"p  c #F4C427",
"a  c #F5C427",
"s  c #F5C528",
"d  c #F5C529",
"f  c #F4C52A",
"g  c #F5C52A",
"h  c #F5C52B",
"j  c #F5C62C",
"k  c #F5C62D",
"l  c #F5C62E",
"z  c #F5C630",
"x  c #F5C730",
"c  c #F5C731",
"v  c #F5C732",
"b  c #F5C733",
"n  c #F5C734",
"m  c #F5C735",
"M  c #F5C835",
"N  c #F5C836",
"B  c #F5C837",
"V  c #F5C838",
"C  c #F5C839",
"Z  c #F5C939",
"A  c #F5C93A",
"S  c #F5C93B",
"D  c #F5C93C",
"F  c #F5CA3D",
"G  c #F4C93E",
"H  c #F4C93F",
"J  c #F5CA3E",
"K  c #F4CA3F",
"L  c #F5CA3F",
"P  c #D4CF47",
"I  c #D8CE46",
"U  c #C9D149",
"Y  c #CAD149",
"T  c #E5CD44",
"R  c #F3CB42",
"E  c #F4CA40",
"W  c #F5CA40",
"Q  c #F4CA41",
"!  c #F5CA41",
"~  c #F5CB41",
"^  c #F4CA42",
"/  c #F5CA42",
"(  c #F5CB42",
")  c #F5CB43",
"_  c #F5CB45",
"`  c #F5CC44",
"'  c #F5CC45",
"]  c #F5CC46",
"[  c #F5CD48",
"{  c #F5CD4A",
"}  c #F5CD4D",
"|  c #F6D151",
" . c #F5D052",
".. c #F5D055",
"X. c #F6D254",
"o. c #F7D357",
"O. c #F7D358",
"+. c #F5D15A",
"@. c #F7D459",
"#. c #F7D55C",
"$. c #F7D761",
"%. c #F8D863",
"&. c #F6D66B",
"*. c #F8D968",
"=. c #F8DA69",
"-. c #F8DC6F",
";. c #F6D670",
":. c #F9DD71",
">. c #F9DE74",
",. c #F9DF74",
"<. c #F9DF76",
"1. c #FADF76",
"2. c #F6D97C",
"3. c #F6D97E",
"4. c #F6DB7E",
"5. c #F8DD78",
"6. c #FAE077",
"7. c #FAE079",
"8. c #FAE27D",
"9. c #FAE17F",
"0. c #FAE27F",
"q. c #F6DE8F",
"w. c #FAE481",
"e. c #FAE482",
"r. c #F8E187",
"t. c #FBE587",
"y. c #F8E08A",
"u. c #FAE589",
"i. c #FBE88B",
"p. c #FCE98F",
"a. c #F7E093",
"s. c #F6E096",
"d. c #FCEC97",
"f. c #F6E098",
"g. c #F7E199",
"h. c #F7E19A",
"j. c #F7E29A",
"k. c #F7E29B",
"l. c #F7E39B",
"z. c #F8E39B",
"x. c #F9E59A",
"c. c #F8E49C",
"v. c #F8E49D",
"b. c #F8E59D",
"n. c #F9E69E",
"m. c #F8E69F",
"M. c #F9E69F",
"N. c #F9E79F",
"B. c #FAE898",
"V. c #FBE898",
"C. c #FDED98",
"Z. c #FAE89D",
"A. c #FBEB9F",
"S. c #F8E6A5",
"D. c #F8E6A6",
"F. c #F9E8A0",
"G. c #FAE8A0",
"H. c #FAE9A1",
"J. c #FAEAA3",
"K. c #FBEBA3",
"L. c #FCEDA1",
"P. c #FBECA4",
"I. c #FBEDA6",
"U. c #FCEDA5",
"Y. c #FCEDA6",
"T. c #FCEEA6",
"R. c #FCEFA7",
"E. c #F8E8AA",
"W. c #F9EAAB",
"Q. c #FCEFA8",
"!. c #F8E9AC",
"~. c #FDF0A1",
"^. c #FDF0A2",
"/. c #FEF1A2",
"(. c #FEF1A4",
"). c #FDF0A6",
"_. c #FDF1A6",
"`. c #FEF1A6",
"'. c #FEF2A7",
"]. c #FCF0A8",
"[. c #FDF0A8",
"{. c #FDF0A9",
"}. c #FDF1A9",
"|. c #FEF3A9",
" X c #FDF2AA",
".X c #FDF2AB",
"XX c #FEF3AB",
"oX c #FEF4AB",
"OX c #FEF4AC",
"+X c #FFF4AC",
"@X c #FFF5AC",
"#X c #FEF4AD",
"$X c #FEF5AD",
"%X c #FFF5AD",
"&X c #FEF4AE",
"*X c #FEF5AE",
"=X c #FFF5AE",
"-X c #FFF5AF",
";X c #F9EBB2",
":X c #FEF5B0",
">X c #FEF5B1",
",X c #FEF5B3",
"<X c #FAF0B7",
"1X c #FEF5B5",
"2X c #FDF5B6",
"3X c #FDF6BC",
"4X c #FDF6BD",
"5X c #FDF6BE",
"6X c #FDF6BF",
"7X c #FBF3C0",
"8X c #FAF2C2",
"9X c #FAF2C3",
"0X c #FBF4C6",
"qX c #FCF7C4",
"wX c #FCF7C5",
"eX c #FCF7C7",
"rX c #FBF5C9",
"tX c #FCF7CA",
"yX c #FBF7CE",
"uX c #FCF7CC",
"iX c #FCF7CE",
"pX c #FCF8CA",
"aX c #FBF8CF",
"sX c #FCF8CC",
"dX c #FCF8CE",
"fX c #FCF8CF",
"gX c None",
/* pixels */
"gXgXgXgXgXgXgXgXgXgXgXgXgXgXgXgXgXgXgXgXgXgXgXgXgXgXgXgXgXgXgXgXgXgXgXgXgXgXgXgXgXgXgXgXgXgXgXgXgXgXgXgXgXgXgXgXgXgXgXgXgXgXgXgX",
"gXgXgXgXgXgXgXgXgXgXgXgXgXgXgXgXgXgXgXgXgXgXgXgXgXgXgXgXgXgXgXgXgXgXgXgXgXgXgXgXgXgXgXgXgXgXgXgXgXgXgXgXgXgXgXgXgXgXgXgXgXgXgXgX",
"gXgXgXgXgXgXgXgXgXgXgXgXgXgXgXgXgXgXgXgXgXgXgXgXgXgXgXgXgXgXgXgXgXgXgXgXgXgXgXgXgXgXgXgXgXgXgXgXgXgXgXgXgXgXgXgXgXgXgXgXgXgXgXgX",
"gXgXgXgXgXgXgXgXgXgXgXgXgXgXgXgXgXgXgXgXgXgXgXgXgXgXgXgXgXgXgXgXgXgXgXgXgXgXgXgXgXgXgXgXgXgXgXgXgXgXgXgXgXgXgXgXgXgXgXgXgXgXgXgX",
"gXgXgXgXgXgXgXgXgXgXgXgXgXgXgXgXgXgXgXgXgXgXgXgXgXgXgXgXgXgXgXgXgXgXgXgXgXgXgXgXgXgXgXgXgXgXgXgXgXgXgXgXgXgXgXgXgXgXgXgXgXgXgXgX",
"gXgXgXgXgXgXgXgXgXgXgXgXgXgXgXgXgXgXgXgXgXgXgXgXgXgXgXgXgXgXgXfXgXgXgXgXgXgXgXgXgXgXgXgXgXgXgXgXgXgXgXgXgXgXgXgXgXgXgXgXgXgXgXgX",
"gXgXgXgXgXgXgXgXgXgXgXgXgXgXgXgXgXgXgXgXgXgXgXgXgXgXgXgXgXgXaXuX,XgXgXgXgXgXgXgXgXgXgXgXgXgXgXgXgXgXgXgXgXgXgXgXgXgXgXgXgXgXgXgX",
"gXgXgXgXgXgXgXgXgXgXgXgXgXgXgXgXgXgXgXgXgXgXgXgXgXgXgXgXgXfXaXtX>X+XgXgXgXgXgXgXgXgXgXgXgXgXgXgXgXgXgXgXgXgXgXgXgXgXgXgXgXgXgXgX",
"gXgXgXgXgXgXgXgXgXgXgXgXgXgXgXgXgXgXgXgXgXgXgXgXgXgXgXgXfXfXaXtX>X+X%XgXgXgXgXgXgXgXgXgXgXgXgXgXgXgXgXgXgXgXgXgXgXgXgXgXgXgXgXgX",
"gXgXgXgXgXgXgXgXgXgXgXgXgXgXgXgXgXgXgXgXgXgXgXgXgXgXgXfXfXfXdXtX:X+X%XgXgXgXgXgXgXgXgXgXgXgXgXgXgXgXgXgXgXgXgXgXgXgXgXgXgXgXgXgX",
"gXgXgXgXgXgXgXgXgXgXgXgXgXgXgXgXgXgXgXgXgXgXgXgXgXgXfXfXfXaXeX1X*X+X%XgXgXgXgXgXgXgXgXgXgXgXgXgXgXgXgXgXgXgXgXgXgXgXgXgXgXgXgXgX",
"gXgXgXgXgXgXgXgXgXgXgXgXgXgXgXgXgXgXgXgXgXgXgXgXgXgXfXfXdXaXqX$X+X%X%XgXgXgXgXgXgXgXgXgXgXgXgXgXgXgXgXgXgXgXgXgXgXgXgXgXgXgXgXgX",
"gXgXgXgXgXgXgXgXgXgXgXgXgXgXgXgXgXgXgXgXgXgXgXgXgXgXfXfXaXtX5X$X+X%X%XgXgXgXgXgXgXgXgXgXgXgXgXgXgXgXgXgXgXgXgXgXgXgXgXgXgXgXgXgX",
"gXgXgXgXgXgXgXgXgXgXgXgXgXgXgXgXgXgXgXgXgXgXgXgXgXgXfXfXaX3X$X%X%X%X%X%XgXgXgXgXgXgXgXgXgXgXgXgXgXgXgXgXgXgXgXgXgXgXgXgXgXgXgXgX",
"gXgXgXgXgXgXgXgXgXgXgXgXgXgXgXgXgXgXgXgXgXgXgXgXfXfXfXfXaX3X+X%X%X%X%X%XgXgXgXgXgXgXgXgXgXgXgXgXgXgXgXgXgXgXgXgXgXgXgXgXgXgXgXgX",
"gXgXgXgXgXgXgXgXgXgXgXgXgXgXgXgXgXgXgXgXgXgXgXgXfXfXfXfXaX3X+X%X%X%X%X%XgXgXgXgXgXgXgXgXgXgXgXgXgXgXgXgXgXgXgXgXgXgXgXgXgXgXgXgX",
"gXgXgXgXgXgXgXgXgXgXgXgXgXgXgXgXgXgXgXgXgXgXgXgXfXfXfXfXaX3X+X%X%X%X%X%XgXgXgXgXgXgXgXgXgXgXgXgXgXgXgXgXgXgXgXgXgXgXgXgXgXgXgXgX",
"gXgXgXgXgXgXgXgXgXgXgXgXgXgXgXgXgXgXgXgXgXgXgXgXfXfXfXfXaX3X+X%X%X%X%X%XgXgXgXgXgXgXgXgXgXgXgXgXgXgXgXgXgXgXgXgXgXgXgXgXgXgXgXgX",
"gXgXgXgXgXgXgXgXgXgXgXgXgXgXgXgXgXgXgXgXgXgXgXgXfXfXfXfXaX3X+X%X%X%X%X%XgXgXgXgXgXgXgXgXgXgXgXgXgXgXgXgXgXgXgXgXgXgXgXgXgXgXgXgX",
"gXgXgXgXgXgXgXgXgXgXgXgXgXgXgXgXgXgXgXgXgXgXgXgXfXfXfXfXaX3X+X%X%X%X%X%XgXgXgXgXgXgXgXgXgXgXgXgXgXgXgXgXgXgXgXgXgXgXgXgXgXgXgXgX",
"gXgXgXgXgXgXgXgXgXgXgXgXgXgXgXgXgXgXgXgXgXgXgXgXfXfXfXfXaX3X+X%X%X%X%X%XgXgXgXgXgXgXgXgXgXgXgXgXgXgXgXgXgXgXgXgXgXgXgXgXgXgXgXgX",
"gXgXgXgXgXgXgXgXgXgXgXgXgXgXgXgXgXgXgXgXgXgXgXgXfXfXfXfXaX3X+X%X%X%X%X%XgXgXgXgXgXgXgXgXgXgXgXgXgXgXgXgXgXgXgXgXgXgXgXgXgXgXgXgX",
"gXgXgXgXgXgXgXgXgXgXgXgXgXgXgXgXgXgXgXgXgXgXgXgXfXfXfXfXaX3X+X%X%X%X%X%XgXgXgXgXgXgXgXgXgXgXgXgXgXgXgXgXgXgXgXgXgXgXgXgXgXgXgXgX",
"gXgXgXgXgXgXgXgXgXgXgXgXgXgXgXgXgXgXgXgXgXgXgXgXfXfXfXfXaX3X+X%X%X%X%X%XgXgXgXgXgXgXgXgXgXgXgXgXgXgXgXgXgXgXgXgXgXgXgXgXgXgXgXgX",
"gXgXgXgXgXgXgXgXgXgXgXgXgXgXgXgXgXgXgXgXgXgXgXgXfXfXiXfXaX3X+X%X%X%X%X%XgXgXgXgXgXgXgXgXgXgXgXgXgXgXgXgXgXgXgXgXgXgXgXgXgXgXgXgX",
"gXgXgXgXgXgXgXgXgXgXgXgXgXgXgXgXgXgXgXgXgXgXgXgX;X8XfXfXaX3X+X%X%X%X+X%XgXgXgXgXgXgXgXgXgXgXgXgXgXgXgXgXgXgXgXgXgXgXgXgXgXgXgXgX",
"gXgXgXgXgXgXgXgXgXgXgXgXgXgXgXgXgXgXgXgXgXgXg.c.g.E.0XyXaX3X+X%X%X%X%XOX}.gXf.j.v.b.{.U.z.g.gXgXgXgXgXgXgXgXgXgXgXgXgXgXgXgXgXgX",
"gXgXgXgXgXgXgXgXgXgXgXgXgXgXgXgXgXgXgXgXj.g.z.}.F.h.S.rXyX4X$X$X%X%XOX[.l.j.s.x._.`.'.|.R.j.j.gXgXgXgXgXgXgXgXgXgXgXgXgXgXgXgXgX",
"gXgXgXgXgXgXgXgXgXgXgXgXgXgXgXgXgXgXgXf.H.[.}.OX XH.h.D.0XsX6X$X@X%XT.c.j.T.5...@.@.O.e.&X}.[.N.f.g.gXgXgXgXgXgXgXgXgXgXgXgXgXgX",
"gXgXgXgXgXgXgXgXgXgXgXgXgXgXgXgXgXgXf.f.K.%X%X%X=X.XJ.k.!.9XwX$X$XY.m.q.&.-.X.K gXgXK o.:.1.(.].N.g.gXgXgXgXgXgXgXgXgXgXgXgXgXgX",
"gXgXgXgXgXgXgXgXgXgXgXgXgXgXgXgXgXgXg.b.T.%X%X$Xd.i.u.4.2.W.pX2XQ.y.3.;.) K E gXgXgXgXE H ] 0./.I.f.gXgXgXgXgXgXgXgXgXgXgXgXgXgX",
"gXgXgXgXgXgXgXgXgXgXgXgXgXgXgXgXgXR.l.R.%X%XoX~.%.~ ) ) ^ r.7X<Xa.+.J F ! gXgXgXgXgXgXgXgX( ) 8.A.l.g.gXgXgXgXgXgXgXgXgXgXgXgXgX",
"gXgXgXgXgXgXgXgXgXgXgXgXgXgXgXgXgXl.j.[.%X%X^.#.' Q Q ! Q {  . .} _ f 5 L gXgXgXgXgXgXgXgXgXQ [ :.R.j.gXgXgXgXgXgXgXgXgXgXgXgXgX",
"gXgXgXgXgXgXgXgXgXgXgXgXgXgXgXgXgXl.U.XX=XC.$.' Q ( ( W r 2 u E E p = > L gXgXgXgXgXgXgXgXgXgXG =.}.j.gXgXgXgXgXgXgXgXgXgXgXgXgX",
"gXgXgXgXgXgXgXgXgXgXgXgXgXgXgXgXgXc.XX%X-Xp.) Q ( ( ( L >   4 ! ! 4   , L gXgXgXgXgXgXgXgXgXgXG =.}.j.f.gXgXgXgXgXgXgXgXgXgXgXgX",
"gXgXgXgXgXgXgXgXgXgXgXgXgXgXgXgXgXc.XX%X~.w.` Q ( ( ( L , . < N L 6 . , L gXgXgXgXgXgXgXgXgXgXG =. Xn.j.gXgXgXgXgXgXgXgXgXgXgXgX",
"gXgXgXgXgXgXgXgXgXgXgXgXgXgXgXgXgXc.XX=X6.' gXgXgXgX( L , X O ; A 6 . > D ! gXgXgXgXgXgXgXgXgXG =.OX Xb.gXgXgXgXgXgXgXgXgXgXgXgX",
"gXgXgXgXgXgXgXgXgXgXgXgXgXgXgXgXgXc.XX=X>.H gXgXgXgX( L , X X * A 6 . @ < C gXgXgXgXgXgXgXgXgXG =. Xn.gXgXgXgXgXgXgXgXgXgXgXgXgX",
"gXgXgXgXgXgXgXgXgXgXgXgXgXgXgXgXgXj.G..X,.K gXgXgXgX( L , X X * A 5 . X # B ) gXgXgXgXgXgXgXgXG =.}.j.gXgXgXgXgXgXgXgXgXgXgXgXgX",
"gXgXgXgXgXgXgXgXgXgXgXgXgXgXgXgXgXj.N..X,.K gXgXgXgXgXL , X X * S d : X @ a A ( gXgXgXgXgXgXQ o.9.K.j.gXgXgXgXgXgXgXgXgXgXgXgXgX",
"gXgXgXgXgXgXgXgXgXgXgXgXgXgXgXgXgXz.[.#X,.K gXgXgXgXgXL 7 @ X & n W s X O o h ) gXgXgXgXgXgX| t.P.g.g.gXgXgXgXgXgXgXgXgXgXgXgXgX",
"gXgXgXgXgXgXgXgXgXgXgXgXgXgXgXgXgXg.l.{.<.( ( gXgXgXgX! J q X O & b g O O X g ( gXgXgXgXgXgX^.Z.j.f.gXgXgXgXgXgXgXgXgXgXgXgXgXgX",
"gXgXgXgXgXgXgXgXgXgXgXgXgXgXgXgXgXgXg.b.B.7.( Q gXgXgXgX( e X X O c D d + X - y ! gXgXgXgXgXgXgXgXgXgXgXgXgXgXgXgXgXgXgXgXgXgXgX",
"gXgXgXgXgXgXgXgXgXgXgXgXgXgXgXgXgXgXgXf.M.V.:.[ gXgXgXgX( w . X O 8 M B @ X . 8 ( ( gXgXgXgXgXgXgXgXgXgXgXgXgXgXgXgXgXgXgXgXgXgX",
"gXgXgXgXgXgXgXgXgXgXgXgXgXgXgXgXgXgXgXg.f.b.L.*.gXgXgXgX( s ; X X . 7 l 1 @ . 1 M W gXgXgXgXgXgXgXgXgXgXgXgXgXgXgXgXgXgXgXgXgXgX",
"gXgXgXgXgXgXgXgXgXgXgXgXgXgXgXgXgXgXgXgXgXg.z.).gXgXgXgXgX! x % O X O < A 1 + O ; V ! ( gXgXgXgXgXgXgXgXgXgXgXgXgXgXgXgXgXgXgXgX",
"gXgXgXgXgXgXgXgXgXgXgXgXgXgXgXgXgXgXgXgXgXgXgXgXgXgXgXgXgX( L b & X X , J A 8 X + ; m ( ( gXgXgXgXgXgXgXgXgXgXgXgXgXgXgXgXgXgXgX",
"gXgXgXgXgXgXgXgXgXgXgXgXgXgXgXgXgXgXgXgXgXgXgXgXgXgXgXgXgXgX( L l ; . % q D B q X X 1 x ) ) ( gXgXgXgXgXgXgXgXgXgXgXgXgXgXgXgXgX",
"gXgXgXgXgXgXgXgXgXgXgXgXgXgXgXgXgXgXgXgXgXgXgXgXgXgXgXgXgXgXgX( ( g > X + y l d 0 9 % 3 j l L ) gXgXgXgXgXgXgXgXgXgXgXgXgXgXgXgX",
"gXgXgXgXgXgXgXgXgXgXgXgXgXgXgXgXgXgXgXgXgXgXgXgXgXgXgXgXgXgXgXgX( ( s X X X X 4 V B 8 - * $ z V D ! gXgXgXgXgXgXgXgXgXgXgXgXgXgX",
"gXgXgXgXgXgXgXgXgXgXgXgXgXgXgXgXgXgXgXgXgXgXgXgXgXgXgXgXgXgXgXgXgX) d + @ @ O + % & l F c $ & & e ! R P U Y Y Y Y Y gXgXgXgXgXgX",
"gXgXgXgXgXgXgXgXgXgXgXgXgXgXgXgXgXgXgXgXgXgXgXgXgXgXgXgXgXgXgXgXgXgXB n n n 4 . . X ; k W M n n Z ( R P U Y Y Y Y Y gXgXgXgXgXgX",
"gXgXgXgXgXgXgXgXgXgXgXgXgXgXgXgXgXgXgXgXgXgXgXgXgXgXgXgXgXgXgXgXgXgXgXgX) ) v i a i * > t t t t t d K T I gXgXgXgXgXgXgXgXgXgXgX",
"gXgXgXgXgXgXgXgXgXgXgXgXgXgXgXgXgXgXgXgXgXgXgXgXgXgXgXgXgXgXgXgXgXgXgXgXgX~ ( ) ) ! w 3 3 3 3 3 1 0 J / gXgXgXgXgXgXgXgXgXgXgXgX",
"gXgXgXgXgXgXgXgXgXgXgXgXgXgXgXgXgXgXgXgXgXgXgXgXgXgXgXgXgXgXgXgXgXgXgXgXgXgXgXgXgXgXW W W W W W W W ! gXgXgXgXgXgXgXgXgXgXgXgXgX",
"gXgXgXgXgXgXgXgXgXgXgXgXgXgXgXgXgXgXgXgXgXgXgXgXgXgXgXgXgXgXgXgXgXgXgXgXgXgXgXgXgXgXgXgXgXgXgXgXgXgXgXgXgXgXgXgXgXgXgXgXgXgXgXgX",
"gXgXgXgXgXgXgXgXgXgXgXgXgXgXgXgXgXgXgXgXgXgXgXgXgXgXgXgXgXgXgXgXgXgXgXgXgXgXgXgXgXgXgXgXgXgXgXgXgXgXgXgXgXgXgXgXgXgXgXgXgXgXgXgX",
"gXgXgXgXgXgXgXgXgXgXgXgXgXgXgXgXgXgXgXgXgXgXgXgXgXgXgXgXgXgXgXgXgXgXgXgXgXgXgXgXgXgXgXgXgXgXgXgXgXgXgXgXgXgXgXgXgXgXgXgXgXgXgXgX",
"gXgXgXgXgXgXgXgXgXgXgXgXgXgXgXgXgXgXgXgXgXgXgXgXgXgXgXgXgXgXgXgXgXgXgXgXgXgXgXgXgXgXgXgXgXgXgXgXgXgXgXgXgXgXgXgXgXgXgXgXgXgXgXgX",
"gXgXgXgXgXgXgXgXgXgXgXgXgXgXgXgXgXgXgXgXgXgXgXgXgXgXgXgXgXgXgXgXgXgXgXgXgXgXgXgXgXgXgXgXgXgXgXgXgXgXgXgXgXgXgXgXgXgXgXgXgXgXgXgX",
"gXgXgXgXgXgXgXgXgXgXgXgXgXgXgXgXgXgXgXgXgXgXgXgXgXgXgXgXgXgXgXgXgXgXgXgXgXgXgXgXgXgXgXgXgXgXgXgXgXgXgXgXgXgXgXgXgXgXgXgXgXgXgXgX",
"gXgXgXgXgXgXgXgXgXgXgXgXgXgXgXgXgXgXgXgXgXgXgXgXgXgXgXgXgXgXgXgXgXgXgXgXgXgXgXgXgXgXgXgXgXgXgXgXgXgXgXgXgXgXgXgXgXgXgXgXgXgXgXgX",
"gXgXgXgXgXgXgXgXgXgXgXgXgXgXgXgXgXgXgXgXgXgXgXgXgXgXgXgXgXgXgXgXgXgXgXgXgXgXgXgXgXgXgXgXgXgXgXgXgXgXgXgXgXgXgXgXgXgXgXgXgXgXgXgX",
"gXgXgXgXgXgXgXgXgXgXgXgXgXgXgXgXgXgXgXgXgXgXgXgXgXgXgXgXgXgXgXgXgXgXgXgXgXgXgXgXgXgXgXgXgXgXgXgXgXgXgXgXgXgXgXgXgXgXgXgXgXgXgXgX"
};
