/* XPM */
static char *result[] = {
/* columns rows colors chars-per-pixel */
"64 64 81 1 ",
"  c #65340E",
". c #632510",
"X c #673611",
"o c #683712",
"O c #693813",
"+ c #6E3E1A",
"@ c #703F1C",
"# c #6F401C",
"$ c #71411E",
"% c #744522",
"& c #794525",
"* c #764826",
"= c #794927",
"- c #774B29",
"; c #7B4D2C",
": c #7F5030",
"> c #864F32",
", c #825434",
"< c #8B5337",
"1 c #855738",
"2 c #84593A",
"3 c #885B3C",
"4 c #865E40",
"5 c #8B5E40",
"6 c #876143",
"7 c #8B6245",
"8 c #8D684C",
"9 c #93674A",
"0 c #95694D",
"q c #976B50",
"w c #9A6E53",
"e c #957156",
"r c #9C7056",
"t c #97755C",
"y c #9F7359",
"u c #9A785F",
"i c #AC6E5A",
"p c #A1765D",
"a c #A3785F",
"s c #A67C64",
"d c #A87D66",
"f c #BB7B6B",
"g c #C07F70",
"h c #AD836C",
"j c #A58872",
"k c #AA8F7A",
"l c #B18771",
"z c #B28973",
"x c #B68E79",
"c c #B88F7A",
"v c #BA917D",
"b c #BD9581",
"n c #BF9885",
"m c #B9A291",
"M c #D48F86",
"N c #C39C8A",
"B c #E79E9A",
"V c #C7A08E",
"C c #C8A18F",
"Z c #CAA493",
"A c #CEA897",
"S c #C2AE9F",
"D c #CEA898",
"F c #D2AC9C",
"G c #C6B3A5",
"H c #D7B1A3",
"J c #D9B4A7",
"K c #DCB7AA",
"L c #DEBAAD",
"P c #CDBDB1",
"I c #E0BBAF",
"U c #E1BEB2",
"Y c #E4C0B5",
"T c #E7C3B8",
"R c #EAC6BC",
"E c #EBC8BE",
"W c #D9CCC3",
"Q c #DDD2CA",
"! c #EDCAC1",
"~ c white",
"^ c None",
/* pixels */
"^^^^^^^^^^^^^^^^^^^^^^^^^^^^^^^^^^^^^^^^^^^^^^^^^^^^^^^^^^^^^^^^",
"^^^^^^^^^^^^^^^^^^^^^^^^^^OOoOOOOOOOOO^^^^^^^^^^^^^^^^^^^^^^^^^^",
"^^^^^^^^^^^^^^^^^^^^^^^^^oOOOOOOOOOOOOO^^^^^^^^^^^^^^^^^^^^^^^^^",
"^^^^^^^^^^^^^^^^^^^^^^OOOOOOOOOoOOoOOOOO^^^^^^^^^^^^^^^^^^^^^^^^",
"^^^^^^^^^^^^^^^^^^^^OOOOOOOoOOOOoOOOoOOOOO^^^^^^^^^^^^^^^^^^^^^^",
"^^^^^^^^^^^^^^^^^^^OOOOOOOOOOOOOOOOOOOOOOOO^^^^^^^^^^^^^^^^^^^^^",
"^^^^^^^^^^^^^^^^^^OOoOOOOoOOOOoOOOoOOOOooOOO^^^^^^^^^^^^^^^^^^^^",
"^^^^^^^^^^^^^^^^^^OOOOOOOOOOOOOOOOOOOOOOOOOOO^^^^^^^^^^^^^^^^^^^",
"^^^^^^^^^^^^^^^^^^OOOOOOOOOOoOOOOoOOOOOOOOOOoO^^^^^^^^^^^^^^^^^^",
"^^^^^^^^^^^^^^^^^OOOOOO++O+OOOOOOOOO+OO+O+OOOOO^^^^^^^^^^^^^^^^^",
"^^^^^^^^^^^^^^^^^OOOX,NVNVz+XoOOOOX;NVVVVN,XOOOO^^^^^^^^^^^^^^^^",
"^^^^^^^^^^^^^^^^^OOX3bE!!!Ihs1XOOo,cR!!!!Eb3oOOOO^^^^^^^^^^^^^^^",
"^^^^^^^^^^^^^^^^OOOXh!EE!EE!!x;OO;x!EEEEEE!hOOOOO^^^^^^^^^^^^^^^",
"^^^^^^^^^^^^^^^OOOO+z!EE!EREERN%%NREEEEEEE!z#OOOO^^^^^^^^^^^^^^^",
"^^^^^^^^^OOOOoOOOO+vUEEEEEEE!EYHHYEEEEEEEEEUv+OOO^^^^^^^^^^^^^^^",
"^^^^^^^^OO 7vvv3oOOZ!!!!!!!ERR!!!EEEE!!!!!E!ZOOOo   XOO^^^^^^^^^",
"^^^^^^^^OO7N!!ErX$wH!LvvbxNR!!!RR!E!!nxbvvL!Hq$o;www, o^^^^^^^^^",
"^^^^^^^^OOC!EEEw >U!YxOO;-;DTRR!ERETD:XO+2nL!U: wEEEz*Oo^^^^^^^^",
"^^^^^^^^O+C!EEEw ;Y!h##OSmO-D!!REE!D-#Oo;Qeh!U;XwEERTn+O^^^^^^^^",
"^^^^^^^^OOC!EEEr ;L!s6P:21O+D!!REE!A-GuX#7%s!I: wEEE!ZOO^^^^^^^^",
"^^^^^^^^OOZ!EEEw :I!s:k% Xo+A!REEE!A%j6XXXXd!I: wEEE!VOO^^^^^^^^",
"^^^^^^^^OOhKEEEw :U!h XX42X+A!!EEE!A+XO;8+Xs!U: wEEE!V+O^^^^^^^^",
"^^^^^^^^OOOsILL0 :I!h#XOSmO;F!EEEE!D;O tW-+l!I: wEEUUb+O^^^^^^^^",
"^^^^^^^^^OO$;;;$X:I!Yv#O-*,FTREEEE!TF:X%:+vUEU: wRTq-*oo^^^^^^^^",
"^^^^^^^^^^^^^^oOX:YEELnnbbVR!RREEER!RVnbbnL!EU, -09%ooO^^^^^^^^^",
"^^^^^^^^^^^^^^^OX;IEEE!!!!!ER!!!!!!ER!!!!!!ERU;oo  ooOO^^^^^^^^^",
"^^^^^^^^^^^^^^^o#9YEEEEEEEEEELFFFFLEEER!EEEEEU0$o^^^^^^^^^^^^^^^",
"^^^^^^^^^^^^^^^ qYEEEEEEEEEE!d@$#+d!ER!REEEEERYwO^^^^^^^^^^^^^^^",
"^^^^^^^^^^^^^^^^C!EEEEEEE!!R!pXXoXp!R!!REEEEEEEJF^^^^^^^^^^^^^^^",
"^^^^^^^^^^^^^^^^!EEEEEEEbyzR!DrOOwD!RzybREEEEEEE!^^^^^^^^^^^^^^^",
"^^^^^^^^^^^^^^^EEEEEEEER9 -bNNdOOdNNb- 9EEEEEEEEEE^^^^^^^^^^^^^^",
"^^^^^^^^^^^^^^^EEEEEEEERy$oO%&&&&&&%+O#yREEEREEEEE^^^^^^^^^^^^^^",
"^^^^^^^^^^^^^^^EREEEEEEEUho+fMMMMMMf+ohUEEEEEEEEEE^^^^^^^^^^^^^^",
"^^^^^^^^^^^^^^^EEEEEEEEE!Kl+<fBBBBg>+lK!EEEEEEEEE^^^^^^^^^^^^^^^",
"^^^^^^^^^^^^^^^^EEEEEEEEE!Ls$<iiii<%sI!EEEEEEEEE^^^^^^^^^^^^^^^^",
"^^^^^^^^^^^^^^^^^EEEEEE!EE!Ty,3,11,yT!EEEE!EEEE^^^^^^^^^^^^^^^^^",
"^^^^^^^^^^^^^^^^^^^EERUUYUUULKKLKKKIUUUUUYUYEE^^^^^^^^^OoOO^^^^^",
"^^^^^^^^^^^^^^^^^^^^^^,,,,,,,,,,,,,,,,,,,,,9^^^^^^^^^^OOOOOOO^^^",
"^^^^^^^^^^^^^^^^^^^^^oooooooXXXXoooooooXXXXX^^^^^^^^OOOO^^OOOO^^",
"^^^^^^^^^^^^^^^^^^^^OOoOoOOOOOOOoooOOO,3OOOOO^^^^^^OOOO^^^^OOOO^",
"^^^^^^^^^^^^^^^^^^^OOOOOOOOOOoOOoOOOOohzOOOOOO^^^^^OOO^^^^^^OOO^",
"^^^^^^^^^^^^^^^^^^OoOOOoOoOOOOOOoOOOOo$$OOOOOOO^^^OOOO^^^^^^OOO^",
"^^^^^^^^^^^^^^^^^OOOoOOOOOOOOOOOOOOoOOooOOOOoOOOOOOOO^^^^^^^OOO^",
"^^^^^^^^^^^^^^^^OOOOOOOOOOOOOOoOOOOOOOOOOOOOOOOOOOX ^^^^^^^^OOO^",
"^^^^^^^^^^^^^^^OoOOOOOOOOOOoOOOoOOOOOOOOOOOOOOOOo+3^^^^^^^^^OOO^",
"^^^^^^^^^^^^^^OOOOOOOOoOOOOOOOOOOoOOoOOoOO^^OOoOO3LRE^^^^^.oo^^^",
"^^^^^^^^^^^^^^OoOO^OOOOOOoOOOOOOOOOOOOOOOO^^oOOX9HREEEE^^^^O^^^^",
"^^^^^^^^^^^^^OOOOO^oOOOOOOOOOoOOOOOoOOOOOOOOOOOrF!EEEEE^^^^^^^^^",
"^^^^^^^^^^^^^OOOOO^OOOOOOOOOOOOOOoOOOOOOOoOOOOob!EEREEE^^^^^^^^^",
"^^^^^^^^^^^^^O;$o^^OOOoOOOOoOOoOOOOOOoOOOOOOO^^^^EEEEEE^^^^^^^^^",
"^^^^^^^^^^E!Z;A^^^^^OOOOOOOOOOOOOOOOOOOOOOOO^^^^^^EEEE^^^^^^^^^^",
"^^^^^^^^^EEEUDT^^^^^oOOOoOOOOoOOOOoOOOOOO^^^^^^^^^^^^^^^^^^^^^^^",
"^^^^^^^^^EEEE!E^^^^^^OOOOOOOoOOOOOOOOOOo^^^^^^^^^^^^^^^^^^^^^^^^",
"^^^^^^^^^EREEE^^^^^^^^OOOOOOOOOOOoOOOOOO^^^^^^^^^^^^^^^^^^^^^^^^",
"^^^^^^^^^EEEEE^^^^^^^^^OOoOOOOOoOOOOOoOO^^^^^^^^^^^^^^^^^^^^^^^^",
"^^^^^^^^^EEEE^^^^^^^^^^OOOOO^OOOOOoOOOOO^^^^^^^^^^^^^^^^^^^^^^^^",
"^^^^^^^^^^^^^^^^^^^^^^^OOOOO^^^^^^ XXo  ^^^^^~^^^^^^^^^^^^^^^^^^",
"^^^^^^^^^^^^^^^^^^^^^^^OOOOO^^^^^^vyyyyh^^^^^~^^^^^^^^^^^^^^^^^^",
"^^^^^^^^^^^^^^^^^^^^^^^oOXOO^^^^^EEEE!EEE^^^^^^^^^^^^^^^^^^^^^^^",
"^^^^^^^^^^^^^^^^^^^^^^^$+#+$^^^^^EEEEEEEE^^^^^^^^^^^^^^^^^^^^^^^",
"^^^^^^^^^^^^^^^^^^^^^^RFAFAFY^^^^EEEEEEEE^^^^^^^^^^^^^^^^^^^^^^^",
"^^^^^^^^^^^^^^^^^^^^^^EEEEEEE^^^^^^^^^^^^^^^^^^^^^^^^^^^^^^^^^^^",
"^^^^^^^^^^^^^^^^^^^^^^EEEEEEE^^^^^^^^^^^^^^^^^^^^^^^^^^^^^^^^^^^",
"^^^^^^^^^^^^^^^^^^^^^^EEEEEEE^^^^^^^^^^^^^^^^^^^^^^^^^^^^^^^^^^^"
};
