/* XPM */
static char *fail1710671792[] = {
/* columns rows colors chars-per-pixel */
"64 64 166 2 ",
"   c white",
".  c #FDFCFF",
"X  c #C3B9FF",
"o  c #4F30FE",
"O  c #4F2FFE",
"+  c #5030FE",
"@  c #5C3FFE",
"#  c #5C3DFE",
"$  c #5B3BFE",
"%  c #5B3EFE",
"&  c #5734FE",
"*  c #6F6DFE",
"=  c #8CB3FF",
"-  c #88A9FF",
";  c #89ABFF",
":  c #5B3FFE",
">  c #5632FE",
",  c #767DFE",
"<  c #9DDAFF",
"1  c #98CDFF",
"2  c #99D0FF",
"3  c #747AFE",
"4  c #9AD2FF",
"5  c #94C5FF",
"6  c #95C8FF",
"7  c #757AFE",
"8  c #9AD3FF",
"9  c #95C7FF",
"0  c #96C9FF",
"q  c #96C7FF",
"w  c #96C8FF",
"e  c #96CAFF",
"r  c #96D2FF",
"t  c #97D2FF",
"y  c #96D1FF",
"u  c #96CEFF",
"i  c #97D3FF",
"p  c #96CDFF",
"a  c #96CBFF",
"s  c #96CCFF",
"d  c #95BFFD",
"f  c #9064EF",
"g  c #905EEF",
"h  c #9060EF",
"j  c #9061EF",
"k  c #905EEE",
"l  c #916DF1",
"z  c #96C5FE",
"x  c #9392F7",
"c  c #8F58EE",
"v  c #939AF8",
"b  c #96C0FE",
"n  c #9068F0",
"m  c #905FEF",
"M  c #905DEE",
"N  c #94AEFB",
"B  c #95B1FB",
"V  c #9059EE",
"C  c #94A3F9",
"Z  c #96D0FF",
"A  c #95BAFD",
"S  c #8D2BE7",
"D  c #8C22E5",
"F  c #8C21E5",
"G  c #8C1EE5",
"H  c #8C1FE5",
"J  c #8C19E4",
"K  c #8D33E8",
"L  c #96C2FE",
"P  c #97D6FF",
"I  c #9172F2",
"U  c #8C17E4",
"Y  c #8D26E6",
"T  c #927FF4",
"R  c #97D8FF",
"E  c #95BBFD",
"W  c #8D2AE6",
"Q  c #8C1BE4",
"!  c #8C23E6",
"~  c #8C24E6",
"^  c #8C20E5",
"/  c #939DF8",
"(  c #97DAFF",
")  c #8C1AE4",
"_  c #938DF6",
"`  c #97D4FF",
"'  c #8E36E8",
"]  c #8D2CE7",
"[  c #8E3BE9",
"{  c #8F48EB",
"}  c #8E46EB",
"|  c #8E47EB",
" . c #8E43EA",
".. c #8F56ED",
"X. c #96C3FE",
"o. c #97D5FF",
"O. c #9179F3",
"+. c #8E44EB",
"@. c #8F47EB",
"#. c #8D32E8",
"$. c #9285F5",
"%. c #95BEFD",
"&. c #8F50EC",
"*. c #8E42EA",
"=. c #8D2FE7",
"-. c #8D2EE7",
";. c #8E3DEA",
":. c #94A7FA",
">. c #97D7FF",
",. c #94A6FA",
"<. c #8D2DE7",
"1. c #9392F6",
"2. c #8E37E8",
"3. c #9178F3",
"4. c #96C6FE",
"5. c #96C6FF",
"6. c #8D30E7",
"7. c #9285F4",
"8. c #96CFFF",
"9. c #94ACFB",
"0. c #8C23E5",
"q. c #928AF5",
"w. c #9391F6",
"e. c #9178F2",
"r. c #95B9FD",
"t. c #95B0FB",
"y. c #94ADFB",
"u. c #928BF5",
"i. c #927DF3",
"p. c #97DEFF",
"a. c #8E37E9",
"s. c #8D30E8",
"d. c #9063EF",
"f. c #94A5F9",
"g. c #939BF8",
"h. c #94A2F9",
"j. c #8D35E8",
"k. c #949EF8",
"l. c #94A0F9",
"z. c #928CF6",
"x. c #8D34E8",
"c. c #8D27E6",
"v. c #8D28E6",
"b. c #9177F2",
"n. c #9284F4",
"m. c #96C4FE",
"M. c #95B9FC",
"N. c #95B2FB",
"B. c #9390F6",
"V. c #8E39E9",
"C. c #917AF3",
"Z. c #8E3EEA",
"A. c #8E40EA",
"S. c #9067F0",
"D. c #8C15E3",
"F. c #9173F2",
"G. c #9280F4",
"H. c #8D24E6",
"J. c #8F4AEB",
"K. c #9062EF",
"L. c #9069F0",
"P. c #9066F0",
"I. c #905BEE",
"U. c #927CF3",
"Y. c #94AAFA",
"T. c #905CEE",
/* pixels */
"                                                                                                                                ",
"                                                                                                                                ",
"                                                                                                                                ",
"                                                                                                                                ",
"                                                                                                                                ",
"                                                                                                                                ",
"                                                                                                                                ",
"                                                                                                                                ",
"                                                                                                                                ",
"                                                                                                                                ",
"                                                                                                                                ",
"                                                                                                                                ",
"                                                                                                                                ",
"                                                                                                                                ",
". . . . . . . . . . . . . . . . . . . . . . . . . . . . . . . . . . . . . . . . . . . . . . . . . . . . . . . . . . . . . . . . ",
"                                                                                                                                ",
"X X X X X X X X X X X X X X X X X X X X X X X X X X X X X X X X X X X X X X X X X X X X X X X X X X X X X X X X X X X X X X X X ",
"o O + + + + + + + + + + + + + + + + + + + + + + + + + + + + + + + + + + + + + + + + + + + + + + + + + + + + + + + + + + + + O o ",
"@ @ # $ $ $ $ $ $ $ $ $ $ $ $ $ $ $ $ $ $ $ $ $ $ $ $ $ $ $ $ $ $ $ $ $ $ $ $ $ $ $ $ $ $ $ $ $ $ $ $ $ $ $ $ $ $ $ $ $ $ # @ @ ",
"% & * = - ; ; ; ; ; ; ; ; ; ; ; ; ; ; ; ; ; ; ; ; ; ; ; ; ; ; ; ; ; ; ; ; ; ; ; ; ; ; ; ; ; ; ; ; ; ; ; ; ; ; ; ; ; ; - = * & % ",
": > , < 1 2 2 2 2 2 2 2 2 2 2 2 2 2 2 2 2 2 2 2 2 2 2 2 2 2 2 2 2 2 2 2 2 2 2 2 2 2 2 2 2 2 2 2 2 2 2 2 2 2 2 2 2 2 2 1 < , > : ",
"% > 3 4 5 6 6 6 6 6 6 6 6 6 6 6 6 6 6 6 6 6 6 6 6 6 6 6 6 6 6 6 6 6 6 6 6 6 6 6 6 6 6 6 6 6 6 6 6 6 6 6 6 6 6 6 6 6 6 5 4 3 > % ",
"% > 7 8 9 0 0 0 0 q q q q q q q q q 0 0 w q q q q q q q q w 0 0 q q q q q q q q q q w 0 0 q q w 0 0 0 0 0 0 0 0 0 0 0 9 8 7 > % ",
"% > 7 8 9 0 0 0 e r t t t t t t t y 0 w u i t t t t t t i p w e y t t t t t t t t t a w a t i s w 0 0 0 0 0 0 0 0 0 0 9 8 7 > % ",
"% > 7 8 9 0 w a d f g h j j j j k l z y x c j h j j h j c v t b n m j h m m h j j M N i B g V C Z q 0 0 0 0 0 0 0 0 0 9 8 7 > % ",
"% > 7 8 9 0 w p A S D F G G G H J K L P I U Y G G G H Y U T R E W Q G H ! ~ ^ G H U / ( C F ) _ ` q 0 0 0 0 0 0 0 0 0 9 8 7 > % ",
"% > 7 8 9 0 w p E ' ] [ { } | {  ...X.o.O.~ K +.| @. .#.~ $.P %.&.+.{ *.=.-.;.{ @.*.:.>.,.<.Y 1.i q 0 0 0 0 0 0 0 0 0 9 8 7 > % ",
"% > 7 8 9 0 w p A 2.^ 3.` 4.w w w w 5.` 3.^ 2.A a p B 6.F 7.` 5.w q 8.9.-.0.q.i 5.w q Z :.S ~ w.i q 0 0 0 0 0 0 0 0 0 9 8 7 > % ",
"% > 7 8 9 0 w p A 2.^ e.i z q q q w 5.` 3.^ ' r.e s t.6.F 7.` 5.0 w Z y.-.D u.` q 0 q Z :.S ~ w.i q 0 0 0 0 0 0 0 0 0 9 8 7 > % ",
"% > 7 8 9 0 w p A 2.H i.p.8.r r t y q ` 3.^ a.L ` P r.s.F 7.` 5.0 q 8.9.-.0.u.i 5.0 q Z :.S ~ w.i q 0 0 0 0 0 0 0 0 0 9 8 7 > % ",
"% > 7 8 9 0 w p A ' 0.d.f.g./ / g.h.z o.3.^ j.x k.l.z.6.D 7.` 5.0 w 8.y.-.D u.` q 0 q Z :.S ~ w.i q 0 0 0 0 0 0 0 0 0 9 8 7 > % ",
"% > 7 8 9 0 w p A x.] S c.c.c.v.D [ X.P b.D =.v.c.c.v.=.D n.` 5.0 w 8.y.-.D u.` q 0 q Z :.S ~ w.i q 0 0 0 0 0 0 0 0 0 9 8 7 > % ",
"% > 7 8 9 0 w p A x.] S c.c.c.v.D [ X.P b.D =.v.c.c.v.=.D n.` 5.0 w 8.y.-.D u.` q 0 q Z :.S ~ w.i q 0 0 0 0 0 0 0 0 0 9 8 7 > % ",
"% > 7 8 9 0 w p A ' 0.d.f.g./ / g.h.z o.3.^ j.x k.l.z.6.D 7.` 5.0 w 8.y.-.D u.` q 0 q Z :.S ~ w.i q 0 0 0 0 0 0 0 0 0 9 8 7 > % ",
"% > 7 8 9 0 w p A 2.H i.p.8.t t t y q ` 3.^ a.X.` >.r.s.F 7.` 5.0 q 8.9.-.0.u.i 5.0 q Z :.S ~ w.i 5.0 0 0 0 0 0 0 0 0 9 8 7 > % ",
"% > 7 8 9 0 w p A 2.^ b.t m.q q q q 5.` 3.^ ' M.0 a t.6.F 7.` 5.0 w Z y.-.D u.` q 0 q Z :.S ~ w.` q 0 0 0 0 0 0 0 0 0 9 8 7 > % ",
"% > 7 8 9 0 w p A 2.^ 3.` 5.0 0 0 0 5.` 3.^ 2.A a u N.6.F 7.` 5.w q 8.9.-.0.q.i 5.w q Z :.S ~ B.i 5.w w w w 0 q w w q 9 8 7 > % ",
"% > 7 8 9 0 w p E V.D C.` 5.0 0 0 0 5.` C.D V.E a p N.#.~ $.P %.&.+.{ *.=.-.;.{ @.*.:.>.,.S -.Z.{ } | { A.S.8.o.s u o.9 8 7 > % ",
"% > 7 8 9 0 w p A <.D.F.o.5.0 0 0 0 5.o.F.D.<.A s u t.c.U G.R E W Q G H ! ~ ^ G H U / ( C H H.^ G G G ^ D.J.s K.y.C L.6 8 7 > % ",
"% > 7 8 9 0 w a d P...x y q 0 0 0 0 q y x ..P.d a s r.K.c v t b n m j h m m h j j M N i B M h h j j j K.I.U.0 ..Y.k.T.6 8 7 > % ",
"% > 7 8 9 0 0 0 e y i u w 0 0 0 0 0 0 w u i y e 0 0 e t i p w e y t t t t t t t t t a w a t t t t t t t i Z 0 ` s p ` 9 8 7 > % ",
"% > 7 8 9 0 0 0 0 q q w 0 0 0 0 0 0 0 0 w q q 0 0 0 0 q q w 0 0 q q q q q q q q q q w 0 0 q q q q q q q q w 0 q w w q 9 8 7 > % ",
"% > 3 4 5 6 6 6 6 6 6 6 6 6 6 6 6 6 6 6 6 6 6 6 6 6 6 6 6 6 6 6 6 6 6 6 6 6 6 6 6 6 6 6 6 6 6 6 6 6 6 6 6 6 6 6 6 6 6 5 4 3 > % ",
": > , < 1 2 2 2 2 2 2 2 2 2 2 2 2 2 2 2 2 2 2 2 2 2 2 2 2 2 2 2 2 2 2 2 2 2 2 2 2 2 2 2 2 2 2 2 2 2 2 2 2 2 2 2 2 2 2 1 < , > : ",
"% & * = - ; ; ; ; ; ; ; ; ; ; ; ; ; ; ; ; ; ; ; ; ; ; ; ; ; ; ; ; ; ; ; ; ; ; ; ; ; ; ; ; ; ; ; ; ; ; ; ; ; ; ; ; ; ; - = * & % ",
"@ @ # $ $ $ $ $ $ $ $ $ $ $ $ $ $ $ $ $ $ $ $ $ $ $ $ $ $ $ $ $ $ $ $ $ $ $ $ $ $ $ $ $ $ $ $ $ $ $ $ $ $ $ $ $ $ $ $ $ $ # @ @ ",
"o O + + + + + + + + + + + + + + + + + + + + + + + + + + + + + + + + + + + + + + + + + + + + + + + + + + + + + + + + + + + + O o ",
"X X X X X X X X X X X X X X X X X X X X X X X X X X X X X X X X X X X X X X X X X X X X X X X X X X X X X X X X X X X X X X X X ",
"                                                                                                                                ",
". . . . . . . . . . . . . . . . . . . . . . . . . . . . . . . . . . . . . . . . . . . . . . . . . . . . . . . . . . . . . . . . ",
"                                                                                                                                ",
"                                                                                                                                ",
"                                                                                                                                ",
"                                                                                                                                ",
"                                                                                                                                ",
"                                                                                                                                ",
"                                                                                                                                ",
"                                                                                                                                ",
"                                                                                                                                ",
"                                                                                                                                ",
"                                                                                                                                ",
"                                                                                                                                ",
"                                                                                                                                ",
"                                                                                                                                "
};
