/* XPM */
static char *result[] = {
/* columns rows colors chars-per-pixel */
"64 64 84 1 ",
"  c #66340E",
". c #673610",
"X c #683712",
"o c #693813",
"O c #6E3E1A",
"+ c #713F1C",
"@ c #6F411D",
"# c #71411E",
"$ c #754522",
"% c #794625",
"& c #774927",
"* c #784927",
"= c #7B4D2B",
"- c #7D502F",
"; c #7F5130",
": c #814A2C",
"> c #864F32",
", c #825333",
"< c #8A5236",
"1 c #855738",
"2 c #8E553A",
"3 c #85593A",
"4 c #895C3D",
"5 c #875F41",
"6 c #8C5F41",
"7 c #8E6144",
"8 c #906346",
"9 c #926549",
"0 c #95694D",
"q c #976B50",
"w c #996E53",
"e c #9C7156",
"r c #9F7359",
"t c #A36751",
"y c #AB6D59",
"u c #A1765D",
"i c #A3785F",
"p c #A47A62",
"a c #A87E66",
"s c #B37462",
"d c #A3846E",
"f c #AC836C",
"g c #B08771",
"h c #B38B75",
"j c #B78F7A",
"k c #AC927D",
"l c #BA927E",
"z c #C68376",
"x c #AF9582",
"c c #BD9582",
"v c #BEA999",
"b c #D28D84",
"n c #C09986",
"m c #C49C8A",
"M c #D69188",
"N c #DB948D",
"B c #E29A95",
"V c #E69D99",
"C c #C7A08F",
"Z c #CBA594",
"A c #C1AC9C",
"S c #CEA999",
"D c #D1AC9C",
"F c #D4AFA0",
"G c #C5B2A4",
"H c #CAB2A6",
"J c #CCBBAE",
"K c #D6B1A3",
"L c #D9B4A7",
"P c #DBB6A9",
"I c #DEBAAD",
"U c #E0BCAF",
"Y c #E1BDB1",
"T c #E5C1B6",
"R c #E6C3B9",
"E c #E9C6BC",
"W c #EBC8BE",
"Q c #E7CEC7",
"! c #ECCAC1",
"~ c #E6CFC9",
"^ c #E4D1CC",
"/ c #E5D4D0",
"( c white",
") c None",
/* pixels */
")))))))))))))))))))WQ^WW))))))))))))))))))))))))))))))))))))))))",
"))))))))))))))))))))))))))))))))))))))))))))))))))))))))))))))))",
"))))))))))))))))))))))))))))))))))))))))))))))))))))))))))))))))",
"))))))))))))))))))))))))))))))))oooooooooo))))))))))))))))))))))",
"))))))))))))))))))))))))))))oooooXoooooooooooo))))))))))))))))))",
"))))))))))))))))))))))))))oooooooooooooXooooooo)))))))))))))))))",
")))))))))))))))))))))))))ooooXoooooooooooXoooooo))))))))))))))))",
"))))))))))))))))))))))))ooooooooooooXooooooooXooo)))))))))))))))",
")))))))))))))))))))))))ooXooo oooooooXooooXoooXooo))))))))))))))",
"))))))))))))))))))))))ooooOOOOOOoXoooooooooooooooo)))))WW)))))))",
")))))))))))))))))))))ooo 7CCCCCl$.oooooXo  X X Xooo)))))))))))))",
"))))))))))))))))))))oooo8C!!WW!Tf=.oooX #iaaaaa,Xoo)))))))))))))",
"))))))))))))))))))))ooO1Z!WWWW!WWa*ooX=40T!!!!Ww oo)))))))))))))",
")))))))))))))))))))ooX$FEWEUUUTWWWfo$#jETYUUY!WiOoo)))))))))))))",
")))))))))))))))))))ooX%L!WK4-=uEW!g,DKYWP4==wRWUfXooXooo))))))))",
")))))))))))))))))))oX-cTWCpA- $iYWKmEW!DpA3 $uI!loooX..oooo)))))",
")))))))))))))))))))o.7EW!h-Ak3 &PWWWWW!c&vx4 #L!looX,w0Oooo)))))",
")))))))))))))))))))o.7EWWh #Jd &PWWWWW!cXOGkX$K!loo.f!Y6Ooo)))))",
")))))))))))))))))))oX6EWWlOo$@X=PWWWWW!nOo##X*K!loo.f!WU9.oo))))",
")))))))))))))))))ooo.6RWWUj+. 3SEWWWWWWYc@  ,ZR!coo.f!WW0.oo))))",
"))))))))))))))))ooXX 6RWEWUgffnWWWWWWWWWTgffcWW!lXo.f!WWm8oo))))",
")))))))))))))))XXO466aEWWWW!W!WWWWWWWWWWW!!!WWW!loo.f!WW!jXo))))",
"))))))))))))))o$$4URRRWWWWWWWWWWWWWWWWWWWWWWWWYIhoo.f!!WTfXo))))",
")))))))))))))oofPPWWWWWWWWWWEWEWWWWWWWWWWWWWWY7=$.o.f!WWi$oo))))",
"))))))))))))XOgP!WWWWWWWWWPw00gEWEWWWWWWWWWW!Y;.XXo.f!WW0 o)))))",
"))))))))))))$iY!WWWWWWWWWWD+  8EWWWWEWWWWWWWYg%ooooXf!Ec,.))))))",
"))))))))))))4RWWWWWWWWWWW!D#o 8EWWWWWWWWWWWUjooooooouDC&oo))))))",
"))))))))))))4TWWWWYWWWWWRTS#ooqEWWWETEWWWWWgOXooooooO##ooo))))))",
"))))))))))))4RWW!L9D!!WWa1,o uPWW!WK8KWWWW!f.oooooXooX))))))))))",
"))))))))))))4RWW!F#9piuu*:yy#4iiiii8#D!WWWWDrooooooo))))))))))))",
"))))))))))))4R!WWPq# +222sVBt22<o *8qPWWWWW!ZOoXooo)))))))))))))",
"))))))))))))1KEWWWT0O>bbbNBBMbbz%#fWEWWWWWW!ZOoooo))))))(())))))",
"))))))))))))O,KWWWETu@%$%tBN2%%%+jTWWWWWWWW!ZOoooo))))))))))))))",
")))))))))))))o4ZWWWWFcCC1#2<OqmmmUWWWWWWWWW!ZOoooX))))))))))))))",
")))))))))))))o.l!WWWWW!WzpiiuZ!!WWWWWWWWWWW!ZOXoo)))))))))))))))",
"))))))))))))))ofSKEWWWWWW!W!WWWWWWWWWWWW!W!IhOX)))))))))))))))))",
")))))))))))))))+@,LTRWWWWWWWWWWWWWWWWWWETYTfOo)))))))))oooo)))))",
"))))))))))))))))X@,,l!WWW!WWWWWWWWWWWWWC,,,$.)))))))))ooXoooo)))",
"))))))))))))))))))))7rrrrrrrrrrruruwruu6X..Xo)))))))oooo))oooo))",
"))))))))))))))))))))........  #99#     Xooooo))))))oooo))))oooo)",
")))))))))))))))))))oooooooo===rEEu*==OXooooooo)))))ooo))))))ooo)",
"))))))))))))))))))XoooXooX<KIPYWWYPUK-.ooooooXo)))oooo))))))ooo)",
")))))))))))))))))ooooooo.8SR!WWWWWWWY< oooooooooooooo)))))))ooo)",
"))))))))))))))))oooooooo u!WWWWWWWWWRh< oXoooooooo. ))))))))ooo)",
")))))))))))))))ooXooXooo uEWWWWWWWWWW!u oooooooXXO4)))))))))ooo)",
"))))))))))))))oooooooooo uWWWWWWWWWWWWu oo))ooooo4PWW))))))oo)))",
"))))))))))))))oXoo)ooooX uWWWWWWWWWWWWu oo))ooo.8LWWWW)))))o))))",
")))))))))))))ooooo)ooooo u!WWWWWWWWWW!u oXooXooeDWWQ!WW)))))))))",
")))))))))))))ooooo)ooooXX4mEWWWWWWW!Wm4XooooooXc!WQQ~!W)))))))))",
")))))))))))))o=#X))oooooo.,YWWWWWWWRD=Xoooooo))))!~QQ~W)))))))))",
"))))))))))W!Z=S)))))ooooo.,IRRWWWWWZ*oooXo))))))))W^QW))))))))))",
")))))))))WWWYSR)))))XoooooO34n!WW!n,ooXoo)))))))))))))))))))))))",
")))))))))WQ!WWW))))))oooooX..4c!Wn4 oooo))))))))))))))))))))))))",
")))))))))QQQ!W))))))))ooooooo.1mm3 ooXoo))))))))))))))))))))))))",
")))))))))^QQ~W))))))))))oooooXoOOooooooo))))))))))))))))))))))))",
"))))))))))^~!)))))))))))oXoo)oooXoo)oooo))))))))))))))))))))))))",
"))))))))))))))))))()))))ooXo))))))))oooo))))))))))))))))))))))))",
"))))))))))))))))))()))))oooo))))))))ooXo))))))))))))))))))))))))",
"))))))))))))))))))))))))oooo))))))))oXoX))))))))))))))))))))))))",
"))))))))))))))))))))))))$O#O)))))))D$+O$))))))))))))))))))))))))",
")))))))))))))))))))WEQ^!LSSS)))))))THSSLW)))))))))))))))))))))))",
")))))))))))))))))))W!^^!WW!W)))))WQ^/!!!WW))))))))))))))))))))))",
")))))))))))))))))))WQ^QWWWWW))))WWQ^^QQWWW))))))))))))))))))))))",
")))))))))))))))))))WWEWWWWWW))))WWQ^W^^~WW))))))))))))))))))))))"
};
