/* XPM */
static char *result[] = {
/* columns rows colors chars-per-pixel */
"64 64 85 1 ",
"  c #66340E",
". c #673610",
"X c #683712",
"o c #693813",
"O c #6E3D19",
"+ c #72411E",
"@ c #754522",
"# c #794625",
"$ c #764927",
"% c #794927",
"& c #764A28",
"* c #7B4B2A",
"= c #7B502F",
"- c #7F5232",
"; c #825434",
": c #8A5236",
"> c #855738",
", c #86593A",
"< c #895C3D",
"1 c #8C5F41",
"2 c #965C43",
"3 c #8D6244",
"4 c #906447",
"5 c #926548",
"6 c #95694D",
"7 c #976B50",
"8 c #9A6E53",
"9 c #9D7257",
"0 c #9F7359",
"q c #A36751",
"w c #A66955",
"e c #AE6F5C",
"r c #A3775E",
"t c #AF705E",
"y c #B0715F",
"u c #9C7C63",
"i c #A67C63",
"p c #A87D65",
"a c #B47463",
"s c #BE7D6E",
"d c #BF7E70",
"f c #C07F70",
"g c #AD836C",
"h c #A58771",
"j c #AB8F7A",
"k c #B18771",
"l c #B48C76",
"z c #B78F7A",
"x c #B9917D",
"c c #C18072",
"v c #CA877C",
"b c #BD9682",
"n c #BF9885",
"m c #D28D84",
"M c #C09986",
"N c #C59E8C",
"B c #D79289",
"V c #DC958E",
"C c #E69E99",
"Z c #CBA494",
"A c #CEA897",
"S c #CFA999",
"D c #D2AC9D",
"F c #D5AFA1",
"G c #D6B1A2",
"H c #D8B3A5",
"J c #DBB7A9",
"K c #DEBAAD",
"L c #DFBDB2",
"P c #E0BCAF",
"I c #E2BEB2",
"U c #D1C2B7",
"Y c #D6C8BE",
"T c #E5C1B6",
"R c #E6C3B8",
"E c #E9C6BC",
"W c #EBC8BE",
"Q c #DACEC5",
"! c #E7CEC7",
"~ c #ECCAC1",
"^ c #E6CFC9",
"/ c #F0CDC4",
"( c #E4D1CC",
") c white",
"_ c None",
/* pixels */
"___________________W^(WW_______________WW_______________________",
"________________________________________________________________",
"________________________________________________________________",
"________________________________________________________________",
"________________________________________________________________",
"_______________________________oooooXoooo_______________________",
"___________________________oooooooooooooXooo____________________",
"___________________________ooooooooXooooooooo___________________",
"________________________oooXoooooooooXoooooooo__________________",
"_______________________ooooXoooXXoooooooooooooo_________________",
"______________________ooooXXooXoXoooooooooXooooo________________",
"_____________________XooXXXXXXXXooooooooooooooooo_______________",
"____________________oooo=<<<<<-XoooooXXoXXXXXXooo_______________",
"___________________oooo+MERRREN+ooooooXO@@@@@+oXoo______________",
"___________________Xoo+NRWWWE~TZ%XXXooX3FFFFGA*Xoo______________",
"__________________oXX;MRWW~W~~ERM;X OpxA~//~~I*Xoo______________",
"__________________Xo.3EW~HxxxG~~W4*80J/JxxxD~Rp*XX______________",
"__________________oo@9EWKl-oXiKEErgWEWIx-oX0JEE8XXooXXo_________",
"__________________XXiREE8hY&XO8EWIRW~~ruQ-Xo5EE9XooOOOoXoo______",
"__________________oXg~WW6&uU, 3EE~~EWW9+uU3 <RE8XoolAkoXoo______",
"__________________XXg~WW6 @j* 4EWWWWWW0 +j- <RW8.XOZ/Jp+Xo______",
"__________________XXg~WEk=X X*gWWWEWW~l;X.X&iEW8.oOZWWI*.oo_____",
"_______________ooooXg~WWEx@#@lWWWWWWWWEn&@@gEWE8.oOZ/WP:OXo_____",
"______________XXoooXgWWWETHHGTWWWWWWE~ERHHHLWWW9.oOZWWWJ3.o_____",
"_____________XX <MbbGWWWWWWWWWWWWWWWWWWWWW/WW/~9.oOZ~WW~8 o_____",
"____________XO60b~~~WWWWWWW/WWWWWWWWWWWWWWEWPzl:.oOZ~WRb;XX_____",
"___________XO<JWWWWWWWEWWPDDDPWWWWWWWWWWWWE/ZOXoooOZ~WK*XXo_____",
"__________oo<PWWWWWWWWWW/x+++zWWWWWEWEWWWWWENooooooZ/WH*XX______",
"__________.8GEWWWWWWWWWWWlXXXkWWWWWWWWWWWW/x;oooooOZ/D;O________",
"__________ p~EWWWWWWWWWW/xoo.k/WWWWWWWWWWEz> oooooo6i5XX________",
"__________.p~WWWJZRWWWEZMr.o<NWWW~HAEWWWWR<..oooooooXXoo________",
"__________ p~WW/x;DJJJD*+#+OMJJJJKp;RWWWEE8Ooooooooo____________",
"__________ pWWW~xO%%%*#OyBf+#*%%%*+<REWWWWPrXXoooo______________",
"__________ p~WWWJlO 2fffBCVcsfwXXiMAEEWWWW/gXXooo______)________",
"__________X<MWWW~Ii@:etymCVate2+9G/~WWEWWW~gXoooo_______________",
"__________X.;ARWWWEr;;;owvaO=;;5PWWWWWWWWW~gXXXoo_______________",
"____________o%H~WWWRIRJ;@##&ZRTRWWWWWWWWWW~gXoooo______oooX_____",
"_____________@G~WWWWWWRGDDDDEWEWWWWWWWWWWW~gXo________ooooooX___",
"______________89b~~WWWW~W/W~WWWWWWWWWW~~~Wl;X_______oooo__oooo__",
"______________  <bMI/W~WW~W~W~WWWW~W~WDbnx;.X______Xooo____oooo_",
"_______________oXXObJHHHHHHHHHHHHHHHHH7Xoooooo_____ooo______ooo_",
"_______________ooXX@#@####%%*%**%%%%%#OXooooooo___oooo______ooo_",
"________________oooXo... 3NZNNNNNNZNM%.XoooooXooooooo_______ooo_",
"________________oooooooo rWW~~~~~~~~El;Xoooooooooo..________ooX_",
"_______________ooooooooo.rEWWWWWWWWWWW9 ooooooooXO,_________ooo_",
"______________oooooooooo 9WWWWWWWWWWWWr.oo__ooXXO,KWE______oo___",
"______________oooo_Xoooo.rWWWWWWWWWWWWr.oo__oooX5HEWE~_____o____",
"_____________ooXoo_ooooo rWWWWWWWWWWW/9.ooXoooX9DWW!~WW_________",
"_____________oXooo_oooooX<NEWWWWWWW~EN<.oooXoXXb~E!!!~E_________",
"_____________o*@X__oooooXX;IWWWWWWWRD=Xoooooo____~!!!(~_________",
"__________W~Z%A_____oXoooX;KRE~EWWWA%Xoooo________~(!E__________",
"_________WWWIDR_____oooooXO,<M~~W~M;oXooo_______________________",
"_________W!~W~W______oooooo..<bEWM<XoooooX______________________",
"_________~!!~W________ooooooo.,NN> XooXooo______________________",
"_________(!!(E_________XoooooXoOOoXooooooX______________________",
"__________(!~__________ooXo__oooXoo___oooooo____________________",
"__________________)___ooooX____________oooXX;J__________________",
"__________________)___oooo______________oo18gRW_________________",
"______________________Xooo_______________<NJTWE_________________",
"______________________oooX_______________ZL!(~~_________________",
"_________________EWE~noX_________________RE!((__________________",
"________________!!!~WJg+________________(!~!(_~_________________",
"_______________~!((~~!R0_______________!((~~~_E_________________",
"_______________W~(WW!(EW______________W~!(!~E___________________"
};
