/* XPM */
static char *monkey_11710671793[] = {
/* columns rows colors chars-per-pixel */
"64 64 90 1 ",
"  c None",
". c #65340E",
"X c #673611",
"o c #683712",
"O c #693813",
"+ c #6E3D19",
"@ c #703F1C",
"# c #72411E",
"$ c #754422",
"% c #7A4626",
"& c #754826",
"* c #794927",
"= c #774A28",
"- c #7B4C2B",
"; c #7E502F",
": c #7E5333",
"> c #825434",
", c #8B5337",
"< c #855738",
"1 c #86593B",
"2 c #895B3D",
"3 c #8C5F41",
"4 c #965C43",
"5 c #8E6144",
"6 c #906447",
"7 c #93664A",
"8 c #95694D",
"9 c #976B50",
"0 c #9A6E53",
"q c #9C7156",
"w c #9F735A",
"e c #A36751",
"r c #A66955",
"t c #AE6F5C",
"y c #A1765D",
"u c #AF705E",
"i c #A3785F",
"p c #B0715F",
"a c #A67B63",
"s c #A97F67",
"d c #B47563",
"f c #BE7D6E",
"g c #BF7E70",
"h c #C07E70",
"j c #A18068",
"k c #AD836C",
"l c #AF8670",
"z c #A98B76",
"x c #B08771",
"c c #B38A74",
"v c #B78F7A",
"b c #AB907B",
"n c #B9917D",
"m c #C18072",
"M c #CB877C",
"N c #BD9582",
"B c #BDA797",
"V c #BEA999",
"C c #D28D84",
"Z c #C09986",
"A c #C49C8A",
"S c #D79289",
"D c #DC958E",
"F c #E69E99",
"G c #C7A08E",
"H c #C8A18F",
"J c #CBA494",
"K c #C2AE9F",
"L c #CFA999",
"P c #D1AC9C",
"I c #C3AFA0",
"U c #D4AFA1",
"Y c #D6B1A3",
"T c #D9B4A6",
"R c #DBB6A9",
"E c #DEB9AD",
"W c #CEBEB2",
"Q c #E0BCAF",
"! c #E3BFB3",
"~ c #D3C5BA",
"^ c #E5C1B6",
"/ c #E6C4B9",
"( c #E9C6BC",
") c #EBC8BE",
"_ c #E7CEC7",
"` c #ECCAC1",
"' c #E6CFC9",
"] c #F1CEC5",
"[ c #E4D1CC",
"{ c white",
/* pixels */
"                                                                ",
"                       OOOOOOOOOO                               ",
"                      OOOoOOoOOOOO                              ",
"                   OOOOOOOOOOOOOOOOOO                           ",
"                  OOOOOOOOOOOOoOOOOOOOOO                        ",
"                 OOOoOOOOOoOOOOOOoOOOOOoO                       ",
"                OOOOOOoOOOOOOOOOOOOOOOOOOO                      ",
"               OOOoOOOOOoOOOOoOOOXooooooOOO                     ",
"               OOOOOOOOOOOOOOOOOO&----;$OOOO                    ",
"              OOOO+OO+++OOOOOOOO+nQQEQQv+OOOO                   ",
"              OOo=NHHHHA2..OOOO#n!))))`En#XOo                   ",
"              OO.;^``]`]Za0+XX-x^`)```)`!k=O+                   ",
"              Oo$q^`RJJJ!`T62$7)))RJJJR))(3Xoo                  ",
"         OOOOOOX8//^aO#=N/)/^a9/)^k++*v^)/8@Oo                  ",
"       OOOoOooOX0_/0#o&~ak)))QR))y#o#Wzi)(QyoO                  ",
"      OOOOiNa+O.0)/1X1Kz;q))))))(6X>Kb:8)))koo                  ",
"      OO@9Y]J@oX0)^2X2B$.q))))))/5.>K-.8/)`koO                  ",
"     OOo-R)`J@oX0)/0#oOO$k)))))))i#ooo#a))`koO                  ",
"     OOO>Q)`J+XX0))^i+@+n/)))))))^k+++x^))`kXoOOO               ",
"     OX2L()`J+oX0)))TJJJE)))))))))RJHJQ)))`k.oXOOO              ",
"     OX9])))J+oX0``))`]))))))))))))`]))))))Jkkk>.oO             ",
"     OX2J/)`J+OX3AJ!)))))))))))))))))))))))))])x3<O             ",
"     OOO-Q)`J+OO++@J)))))))))/))))^QQR^))))))))/)U>+O           ",
"      Oo-E)`J+OOoo+J`)))))))))))))n---Z`)))))))))/U<oO          ",
"       o+8Y]J+oOoO+2A])))))))))))`xXoXc])))))))))))J7X          ",
"        OOwvi+OOooo.6A/)))))``)))`xXooc])))))))))))`s.          ",
"        OOXOoOOOOOoOX3())))/YE)`)`N-+oaUY()/))Y^)))`a.          ",
"            OOoOoOOOO6())))^5k/^^^!A++#$>T/^^T<n`)))s.          ",
"              OOOOOoqT)))))^<$<<2<<-+dMrO>,<<<+n`)))s.          ",
"               OOOook`))))/(Zx9.o4ptdSFCttp,.OiY)))]s.          ",
"        {      OOOOok`)))))))]P4+ehfhDFShhh2#9Q)))/P8.          ",
"               OOOook`))))))))(R<=-%@hSd+$>*8^)))/Y2oO          ",
"               OOOOXk))))))))))(RRQZ#$%@-PTR!)))`T>+o           ",
"                  OXk])))))))))))`)!AAZAJ/))))))]U#             ",
"                  Oo5A)))))))))))))))]])`))))))Hxs$             ",
"                   O.<JLPR))))))))])))))))))!PP3.X              ",
"                    O++@+y!!!!!!!!!!!!!!!^!^H$++O      OoOO     ",
"                      oOX#>>>>>>>>>>>>>>>>>>:         OOOOOOO   ",
"                     OoOOoooXoXXXXoXXoooXXXXoO      OOOO  OOOO  ",
"                    OOOOOOoooX$98%XooOOoOOOOoO     OOOO    OOOO ",
"                   OOoOOoO+--*q/(0---+oOOoOOOO     OOO      OOO ",
"                  OOOOOOoo>YQQ!))!EQY;XoOOOOOOO   OOOO      OOO ",
"                 OOOOOOOX6P/)))))))`^:XOOOOOOOOOOOOOO       OOO ",
"                OOOOOOoOXy))))))))))^v>oOOoOOoOOOOX.        OOO ",
"               OOoOOOoOO.y()))))))))/`w.OOOOOOOOo+2         OOO ",
"              OOOOOOOOOO.y)())))))))))wooO  OOOo+<R))      Oo   ",
"              OOOO OOOOOXy))))))))))))y.OO  OOOX6T))))     O    ",
"             OoOOO OOOoOXq]))()))))))]rXOOOOoOOqP))_`))         ",
"             oooOO OOOOOo2A))))))))))A2oOOOOOOON`)__'`)         ",
"             +-#o  OOOoOoX>!`))))))(P-oOoOOOO    `'__')         ",
"          )`J-J     OOOOOX>E^/))))/J=OOOOO        )[_)          ",
"         )))!P/     oOOOOO#<2Z`))`Z>+oOOO                       ",
"         )_`)))      OOOOOOXX2N`)Z2XoOOO                        ",
"         _'_`)        OOOoOOO.<AA<XoOOO      {                  ",
"         [__')            OOOOO++oooOO                          ",
"          [_`               OOOOooo+OOOO                        ",
"                            oOOOoO  OOOO                        ",
"                             OOOO   OOOo                        ",
"                             OOOO   ooo$                        ",
"                             OoO@    #+0)))))                   ",
"                             oo$Z!)_[UJT))'[_`                  ",
"                             xxn(`/`[[``_)_''))                 ",
"                             ``_[[``''__[))_[`)                 ",
"                             ))`[[_))))_[`                      "
};
