/* XPM */
static char *monkey_21710671792[] = {
/* columns rows colors chars-per-pixel */
"64 64 86 1 ",
"  c None",
". c #66340E",
"X c #673610",
"o c #683712",
"O c #693813",
"+ c #6E3D19",
"@ c #703F1C",
"# c #72411E",
"$ c #754522",
"% c #794625",
"& c #764927",
"* c #794927",
"= c #764A28",
"- c #7B4B2A",
"; c #7B502F",
": c #7F5232",
"> c #825434",
", c #8A5236",
"< c #855738",
"1 c #86593A",
"2 c #895B3D",
"3 c #8C5F41",
"4 c #965C43",
"5 c #8D6244",
"6 c #906447",
"7 c #926548",
"8 c #95694D",
"9 c #976B50",
"0 c #9A6E53",
"q c #9D7257",
"w c #9F7359",
"e c #A36751",
"r c #A66955",
"t c #AE6F5C",
"y c #A3775E",
"u c #AF705E",
"i c #A3785F",
"p c #B0715F",
"a c #9C7C63",
"s c #A67C63",
"d c #A87D65",
"f c #B47463",
"g c #BE7D6E",
"h c #BF7E70",
"j c #C07F70",
"k c #AC836C",
"l c #A58771",
"z c #AB8F7A",
"x c #B18771",
"c c #B48C76",
"v c #B78F7A",
"b c #B9917D",
"n c #C18072",
"m c #CA877C",
"M c #BD9682",
"N c #BF9885",
"B c #D28D84",
"V c #C09986",
"C c #C59E8C",
"Z c #D79289",
"A c #DC958E",
"S c #E69E99",
"D c #CBA594",
"F c #CEA897",
"G c #CFA999",
"H c #D2AC9D",
"J c #D5AFA1",
"K c #D6B1A2",
"L c #D8B3A5",
"P c #DBB7A9",
"I c #DEBAAD",
"U c #E0BCAF",
"Y c #E2BEB2",
"T c #D1C2B7",
"R c #D6C8BE",
"E c #E5C1B6",
"W c #E6C3B9",
"Q c #E9C6BC",
"! c #EBC8BE",
"~ c #DACEC5",
"^ c #E7CEC7",
"/ c #ECCAC1",
"( c #E6CFC9",
") c #F0CDC4",
"_ c #E5D1CC",
"` c white",
/* pixels */
"                                        !!_^!                   ",
"                                                                ",
"                                                                ",
"                                                                ",
"                                                                ",
"                       OOOOOOOOOO                               ",
"                    OOOOOOOoOOOOOOOOO                           ",
"                   OOOOOOOOOOOOoOOOOO                           ",
"                  OOOOOoOOOOOOOOOOoOOOOO                        ",
"                 OOOOOOOOOOoOOoOOOOOOOOOO                       ",
"                OOOOoOOOOOOOOOOOOoOOoOOXOO                      ",
"               OOOOOOOOOOOOOOOOOOoXoXXXXOOO                     ",
"               OoooooXoooOoOOOOOO>22222>OOOO                    ",
"              OOo+#$$$$$+OOOOOOO#VQEWWQV$OOOO                   ",
"              OOX-DKJJJJ5oOOoOo$DE/!!!!WC$ooO                   ",
"              OO.>Y///))Dbd+.o>NE!!)//!!EM>.OO                  ",
"              Oo-dE/HbbbP)Iy0-6!!!KbbbK/!Q5XOO                  ",
"         OOOOOoo0!!PqoO>bU!Q!kwQ!IsoO:cI!Qq#OO                  ",
"      OOOO+++OO.0!W7+O:~ay!!!EE!Q0+O=Rl0Q!EdoO                  ",
"      OOOOkFx+Oo0!W2.5Tw#y!!!!!!!5.:Tl&8!!/koo                  ",
"      Oo$dP)D+Oo0QW1.:z$.0!!!!!!Q5.-z*.8Q!/koO                  ",
"     OOX-U!/D@O.0!Qs=XXX>c!!!!!!Qk-oXo-kQ!/kXO                  ",
"     OO+,U!!D+OX0!!Ql$&$V!!Q!!!!!!c$$$b!!!/koOOOO               ",
"     OX5P!!!D+O.0!!!ULLLE!!!!!!!!!ELLLY!!!)kOOOOOO              ",
"     OX8/!!/D+oXq///!//!!!!!!!!Q!!!///!!!!!KVbV1..O             ",
"     Oo>MW!/D+oo<cbI!!!!!!!!!!!!!!!/!/!!!!!!!))bw8+O            ",
"     OOo-U!)D+oOoo+D/!Q!!!!!!!!!!!IHHHY!!!!!!!!!!P2+o           ",
"      Oo-L!!D@OOOo+CQ!!!!!!!!!!!!/c###b/!!!!!!!!!QI5OO          ",
"        +<H)D+OOoOO-M/!!!!!!!!!!!)xXOXc/!!!!!!!!!!QL0.          ",
"        oo6s8OOOOOOo<bQ!!!!!!!!!!!xXOob)!!!!!!!!!!!/d.          ",
"        oOooooOOOOOo.2Q!!!!QDL/!!!C1+OqVDW!!!QDI!!!/d.          ",
"            ooOOOOOO+0Q!!!QE1dUPPPPV@#%#-HPPIH-b)!!!d.          ",
"              OOOOOXsY!!!!!E1#-**-*%@jZp+%-*%*+b/!!/d.          ",
"        `      OoOOok!!!!!!QDVs.OeggjASZjgj4.+cP!!!/d.          ",
"               OOOOok!!!!!!!/)Ky@4utfASBttt,$dY/!!!V2o          ",
"               OOOOok/!!!!!!!!!U7<<>@fmr+><<wQQ/!WD>oO          ",
"               OOOOok/!!Q!!!!!!!WWWD%%%$>LEEW!/Q/K-O   OOOO     ",
"                  OXk/!!!!!!!!!!!!!WHHHHJQ!!!!QQ/K$   OOOOOOO   ",
"                   o>c!!/!!!!!!!!!!!//!!/!!!///My9 oOOOO  OOOO  ",
"                   O.>MVMH/!!/!!!!//!!///!/!YVM2.. oOOO    OOOO ",
"                   OOoOOo8LLLLLLKPKKLLLLLLLPM+oOO  OOO      OOO ",
"                  OOOOOOO#-*-*--*-*-*%$%$&$$$OOOO OOOO      OOO ",
"                 OOOOOOOX5CCCCCCCCCCV%XoooOooOoOOOOOO       OOO ",
"                OOOOOOOO.y)/////)!))Qc>XOOOOOOOOOOX.        OOO ",
"               OOOOOOOOO.w!!!!!!!!!!!!q.OOOOOOOOo+1         OOO ",
"              OOoOOOOOOO.y!!!!!!!!!!!!yXOO  OOOo+1IQ!      OO   ",
"              OOOO OOOOO.w!!!!!!!!!!!!y.OO  OOOX7LQ!!!     O    ",
"             OOOOO OoOOO.y!!!!!!!!!!!!y.OOOOOoOqH!!^/!!         ",
"             oooOO OOOOOo2CQ!!!!!!!/QC2oOOOOOOoM/!^^^^Q         ",
"             +-#o  OOOOOoX>Y!!!!!!!WH-oOOOOOO    /(^^(!         ",
"          !/D-D     OOOOOo>IWQ!!!!QF*OOOOo        !_^!          ",
"         !!!YHW     OoOOOO+12N/!!/V>OOOOO                       ",
"         Q^/!/!      OOOOoOXX2N!!N2oOoOO                        ",
"         /^^/!        OXOOOOoX<CC,XOOOOO                        ",
"         _^^(!       OOOOOOOOOO++OOOOOOOO                       ",
"          _(/      Es+OOOO   OOOOOO  OOOO                       ",
"                  !QHcd-O            OOOOO   `                  ",
"                  !!WRPx              OOOO   `                  ",
"                  !^^_/Q              OOOO                      ",
"                   ___//^             OOOO                      ",
"                    ^^/(_(              oON/!!!                 ",
"                    !!/__^              #kP//^^/                ",
"                     !!(^^!             wE^//__^!               ",
"                        !!              WQ(^!!_^!               "
};
