/* XPM */
static char *monkey_31710671793[] = {
/* columns rows colors chars-per-pixel */
"64 64 146 2 ",
"   c #561E00",
".  c #562200",
"X  c #5A2400",
"o  c #5E2A02",
"O  c #612D06",
"+  c #632F09",
"@  c #65320C",
"#  c #68350F",
"$  c #673510",
"%  c #693712",
"&  c #6B3915",
"*  c #6E3D19",
"=  c #703E1A",
"-  c #71411E",
";  c #754522",
":  c #784725",
">  c #764927",
",  c #794927",
"<  c #774928",
"1  c #7C4D2C",
"2  c #7C502F",
"3  c #7E5233",
"4  c #835535",
"5  c #8C5337",
"6  c #835738",
"7  c #845A3B",
"8  c #895B3D",
"9  c #865E41",
"0  c #8C5E41",
"q  c #995E45",
"w  c #876042",
"e  c #8B6245",
"r  c #8C664A",
"t  c #8E694D",
"y  c #936549",
"u  c #956A4E",
"i  c #936D52",
"p  c #996D52",
"a  c #957157",
"s  c #9D7056",
"d  c #96735A",
"f  c #9C755B",
"g  c #9A785F",
"h  c #A76A55",
"j  c #AE6E5B",
"k  c #A0755C",
"l  c #A4785F",
"z  c #9C7B63",
"x  c #9F7F68",
"c  c #A47A61",
"v  c #A87E66",
"b  c #B37462",
"n  c #BA7A6A",
"m  c #A2836C",
"M  c #AD836C",
"N  c #A58770",
"B  c #AF8670",
"V  c #A78974",
"C  c #AA8C77",
"Z  c #AA8E79",
"A  c #B08771",
"S  c #B38A75",
"D  c #B68E79",
"F  c #AD927D",
"G  c #BA927E",
"H  c #C68476",
"J  c #C78578",
"K  c #C88679",
"L  c #CD897E",
"P  c #AF9480",
"I  c #B19683",
"U  c #BC9481",
"Y  c #B29986",
"T  c #BF9885",
"R  c #B49C8A",
"E  c #B8A08E",
"W  c #BBA493",
"Q  c #BFA999",
"!  c #CE8B80",
"~  c #C19A87",
"^  c #C49D8B",
"/  c #D79189",
"(  c #DA958D",
")  c #DF9891",
"_  c #E79F9A",
"`  c #C7A190",
"'  c #CBA594",
"]  c #C1AD9D",
"[  c #CEA999",
"{  c #D1AC9D",
"}  c #EBA39F",
"|  c #C3AFA1",
" . c #D4AFA1",
".. c #C5B2A4",
"X. c #C7B6A8",
"o. c #C8B6A9",
"O. c #CBBAAD",
"+. c #D6B1A3",
"@. c #D9B4A6",
"#. c #DAB6A9",
"$. c #DDBAAD",
"%. c #CDBDB1",
"&. c #E1BEB2",
"*. c #D1C1B5",
"=. c #D4C5BA",
"-. c #E4C1B6",
";. c #E6C4BA",
":. c #E9C6BC",
">. c #EAC8BE",
",. c #D7CAC1",
"<. c #DACDC4",
"1. c #DDD0C7",
"2. c #DED3CB",
"3. c #E6CCC4",
"4. c #EDCBC2",
"5. c #E4CFC9",
"6. c #F0CFC6",
"7. c #E1D3CD",
"8. c #EDD3CB",
"9. c #F1D0C7",
"0. c #F3D2CA",
"q. c #E1D6D0",
"w. c #E9D7D1",
"e. c #E4DAD3",
"r. c #E9D9D4",
"t. c #E7DED8",
"y. c #F7D7D0",
"u. c #F8D7D0",
"i. c #F2DBD4",
"p. c #FADAD3",
"a. c #F3DFD9",
"s. c #FCDED8",
"d. c #E9E2DD",
"f. c #F4E1DB",
"g. c #FFE0DA",
"h. c #ECE6E1",
"j. c #EEE8E4",
"k. c #F0EBE7",
"l. c #F2EDEA",
"z. c #F9ECE8",
"x. c #F5F1EE",
"c. c #FAF1EE",
"v. c #F6F3F1",
"b. c #FAF6F5",
"n. c #FBF8F7",
"m. c #FFFFFF",
/* pixels */
"m.m.m.m.m.m.m.m.m.m.m.m.m.m.m.m.m.m.m.n.m.n.m.m.m.m.m.m.m.m.m.m.m.m.n.m.m.m.m.m.m.m.m.m.m.m.m.m.m.m.m.m.m.m.m.m.m.m.m.m.m.m.m.m.",
"m.m.m.m.m.m.m.m.m.m.m.m.m.m.m.m.m.m.m.m.m.m.m.m i d d d a a a d u d.m.m.m.m.n.m.m.m.m.m.m.m.m.m.m.m.m.m.m.m.m.m.m.m.m.m.m.m.m.m.",
"m.m.m.m.m.m.m.m.m.m.m.m.m.m.m.m.m.m.m.O.W Q W % X + o O O O O + X m ] W Q b.m.m.m.m.m.m.m.m.m.m.m.m.m.m.m.m.m.m.m.m.m.m.m.m.m.m.",
"m.m.m.m.m.m.m.m.m.m.m.m.m.m.m.m.m.n.d.2 . o X % & & & % & & & & & + o o o *.t.h.m.m.m.m.m.m.m.m.m.m.m.m.m.m.m.m.m.m.m.m.m.m.m.m.",
"m.m.m.m.m.m.m.m.m.m.m.m.m.m.m.m.m.h.& & & & & & % % % % % % % % % & * & & & o d m.n.m.m.m.m.m.m.m.m.m.m.m.m.m.m.m.m.m.m.m.m.m.m.",
"m.m.m.m.m.m.m.m.m.m.m.m.m.m.n.m.,.; & % & % % % % % % % % % % % % % % % $ % % * r m.m.m.m.m.m.m.m.m.m.m.m.m.m.m.m.m.m.m.m.m.m.m.",
"m.m.m.m.m.m.m.m.m.m.m.m.m.m.m.O.0 + & % % % # % % % & % % & % % % & & % & % & # & x k.m.m.m.m.m.m.m.m.m.m.m.m.m.m.m.m.m.m.m.m.m.",
"m.m.m.m.m.m.m.m.m.m.m.m.m.n.m.g   * % % % % & # % % % % % % % % $ # @ @ # @ # # & X P h.m.m.m.m.m.m.m.m.m.m.m.m.m.m.m.m.m.m.m.m.",
"m.m.m.m.m.m.m.m.m.m.m.m.m.m.n.z O & & & & % & & % % % % % % % % % ; ; ; ; ; ; - % * . N m.m.m.m.m.m.m.m.m.m.m.m.m.m.m.m.m.m.m.m.",
"m.m.m.m.m.m.m.m.m.m.m.m.m.n.3 # & # @ + + @ @ + % & & % % % & & o T >.-.-.-.4.G o & & # t m.m.m.m.m.m.m.m.m.m.m.m.m.m.m.m.m.m.m.",
"m.m.m.m.m.m.m.m.m.m.m.n.m.b.3 @ # : ` ' ` ` ` [ 4 X + % & & @ # T -.4.>.4.>.4.-.U @ % + e m.m.m.m.m.m.m.m.m.m.m.m.m.m.m.m.m.m.m.",
"m.m.m.m.m.m.m.m.m.m.m.m.m.m.3 @ @ - 6.9.0.u.u.s.~ c s @ @ @ , B 4.4.4.4.4.9.>.4.>.M , + 1 W v.m.m.m.m.m.m.m.m.m.m.m.m.m.m.m.m.m.",
"m.m.m.m.m.m.m.m.m.7.2.2.2.1.< @ - y ;.4.#.' [ ' ;.p.&.6 8 & e p.;.4.&.' [ ' $.4.:.p.8 @ # + h.m.m.m.m.m.m.m.m.m.m.m.m.m.m.m.m.m.",
"m.m.m.m.m.m.n.m.j.& @ # # @ & o p 0.;.9.c o & o U 4.;.4.u.k 5 9.;.9.M o * o S 6.;.4.8 @ % * h.m.m.m.m.m.m.m.m.m.m.m.m.m.m.m.m.m.",
"m.m.m.m.n.m.F ; 2 * + + @ % & o u 6.>.y & @ + l.c p 0.;.>.$.$.>.4.p * # o d.C y 0.;.;.l O * h.m.m.m.m.m.m.m.m.m.m.m.m.m.m.m.m.m.",
"m.m.m.m.m.m.V . # o c ^ m $ * + i 9.4.6 X 9 =.F ; p 0.:.>.>.6.>.0.0 X 3 =.I > 0 0.;.u.B o = h.m.m.m.m.m.m.m.m.m.m.m.m.m.m.m.m.m.",
"m.m.m.m.m.,.t + - y #.s.+.@ & + u 9.4.4 o 8 =.% . p 0.;.>.>.>.;.6.e X 4 =.- . y 9.;.0.M O * k.m.m.m.m.m.m.m.m.m.m.m.m.m.m.m.m.m.",
"m.m.m.m.m.> O $ : 4.>.4.[ @ & + p 9.>.y & # o & = v 0.:.>.>.>.:.6.p & # O & & f 4.;.0.M o - 1.k.l.m.m.m.m.m.m.m.m.m.m.m.m.m.m.m.",
"m.m.m.m.m.6 @ @ - &.>.6.[ @ & + u 9.;.9.l o & + G 6.;.>.>.>.>.>.;.0.M o & o S 6.>.;.0.M + * - + m m.n.m.m.m.m.m.m.m.m.m.m.m.m.m.",
"m.m.m.m.m.6 o 8 +.;.:.6.[ @ & + p 9.;.>.#.' [ [ &.6.>.>.>.>.>.>.:.4.$.' { [ &.4.>.;.0.v . + O + ; z m.m.m.m.m.m.m.m.m.m.m.m.m.m.",
"m.m.m.m.m.6 X i s.:.:.6.[ @ & o p p.4.>.4.9.6.6.>.>.>.>.>.>.>.>.>.:.4.6.6.6.4.:.>.>.4.[ v M A 2 . # F v.m.m.m.m.m.m.m.m.m.m.m.m.",
"m.m.m.m.m.3 o 8 { ;.:.6.[ # & @ 0 { ` &.>.:.:.:.:.>.>.>.>.>.:.>.>.:.>.>.>.>.:.>.>.>.>.4.0.9.p.A 4 7 X W x.m.m.m.m.m.m.m.m.m.m.m.",
"m.m.m.m.m.7 % # = -.4.4.[ @ & % % @ + [ 4.:.>.>.>.>.>.>.>.>.>.>.>.>.;.-.-.-.;.>.>.>.>.>.;.>.;.>.0.&.> X I m.n.m.m.m.m.m.m.m.m.m.",
"m.m.m.m.m.m.g   < 4.4.4.' # & % % & # +.0.;.>.>.>.>.>.>.>.>.>.>.;.0.D * , * U 0.;.>.>.>.>.>.>.>.>.;.&.1 + z m.m.m.m.m.m.m.m.m.m.",
"m.m.m.m.m.m.d.Z % r #.g.+.@ & % % % & 4 ` p.;.>.>.>.>.>.;.>.>.>.:.0.A o & X D 0.;.>.>.>.>.>.>.>.>.>.4.{ 6 9 m.n.m.m.m.m.m.m.m.m.",
"m.m.m.m.m.n.m.=.X X s G c # $ % % % % o 8 ` >.>.>.>.>.>.6.>.>.>.:.0.A o * + G u.>.>.>.>.>.>.6.>.>.>.;.s.c 9 m.m.m.m.m.m.m.m.m.m.",
"m.m.m.m.m.m.m.=.1 6 2 * o & % & & % % & O 4 6.:.>.>.>.>.#.&.>.;.;.6.G = & + M #.+.>.>.>.>.>.@.-.4.>.:.0.p 0 m.m.m.m.m.m.m.m.m.m.",
"m.m.m.m.m.m.m.m.m.n.m.E o & & & % % % & + 8 6.>.>.>.;.6., B u.;.4.4.0.+.% % % # : >.4.>.>.>.- G 0.;.:.0.f 9 m.m.m.m.m.m.m.m.m.m.",
"m.m.m.m.m.m.m.m.m.m.m.l.q.q.* o & % & + f &.>.>.>.>.>.4.: # 4 4 4 , > ; o n ( h o > > 2 4 4 X D 0.;.:.0.f 9 m.m.m.m.m.m.m.m.m.m.",
"m.m.m.m.m.m.m.m.m.m.m.m.m.m.O.9 @ & & o B u.;.>.>.>.>.>.G A u X + y b j b ) } / b j b 5 O O l @.6.;.;.s.c 7 v.i.b.m.m.m.m.m.m.m.",
"m.m.m.m.m.m.m.m.m.m.m.m.m.n.m.m o & & O M 9.;.>.>.>.>.>.6.p.@.8 # h L J J ) _ ( H H L q % y :.6.:.>.>.@.0 3 w.;.f.n.m.m.m.m.m.m.",
"m.m.m.m.m.m.m.m.m.m.m.m.m.m.m.x O & & + M 0.;.>.>.>.>.>.:.;.4.;.1 & & % @ H } b o & * & e 0.:.:.>.;.&.4 o y 4.7.:.i.m.m.m.m.m.m.",
"m.m.m.m.m.m.m.m.m.m.m.m.m.n.m.z . @ & + M 6.:.:.>.>.>.>.>.>.>.;.&.&.;.' + % & # = #.-.&.-.>.>.;.>.#.: o c 4.7.>.;.i.m.m.m.m.m.m.",
"m.m.m.m.m.m.m.m.m.m.m.m.m.m.m.q.=...+ o S s.;.:.:.:.>.>.>.>.>.>.4.4.4.;.^ ^ ^ ^ ' >.6.>.>.>.;.6.p.-.# S -.4.3.;.a.b.m.m.m.m.m.m.",
"m.m.m.m.m.m.m.m.m.m.m.m.m.m.m.m.m.n.I * 4 ` 6.6.6.4.:.>.>.>.>.>.:.:.:.>.9.0.6.9.6.:.:.;.>.4.0.` M M % c  .;.:.f.m.m.m.m.m.m.m.m.",
"m.m.m.m.m.m.m.m.m.m.m.m.m.m.m.m.m.m.m.N # , @.{ { $.4.>.>.>.:.>.:.>.4.:.:.:.:.:.>.>.>.>.;.{ #.8 X @ & . M a.8.t.e.e.d.m.m.m.m.m.",
"m.m.m.m.m.m.m.m.m.m.m.m.m.m.m.m.m.m.n.m.Y o & % O p 0.:.:.:.:.;.:.4.:.:.:.:.:.>.>.4.;.6.[ @ % % & & * o R m.v.< # @ 3 m.m.m.n.m.",
"m.m.m.m.m.m.m.m.m.m.m.m.m.m.m.m.m.m.m.n.m.*.+ & # = 4 , 1 1 1 4 1 1 1 1 1 1 1 1 < * , 4 : % % % & & X *.m.d.1 + o o @ 7 > %.m.n.",
"m.m.m.m.m.m.m.m.m.m.m.m.m.m.m.m.m.m.m.m.<.i % & % $ @ @ @ # @ o o + @ @ @ @ # + * X.3 o # % % & + & Q I Z i X W ....Y X o 7 ..m.",
"m.m.m.m.m.m.m.m.m.m.m.m.m.m.m.m.m.m.m.q.i . & % % & % @ # @ - y u ; @ # % % & # ; <.9 @ & % & @ ; Z m.7   * m m.m.m.b.z : . t m.",
"m.m.m.m.m.m.m.m.m.m.m.m.m.m.m.m.m.n.v.3 o * % % % % & ; : * p u.0.p * : ; & % % % O + & % % & % F m.l.w o a m.n.n.m.m.m.9 X g m.",
"m.m.m.m.m.m.m.m.m.m.m.m.m.m.m.n.m.x.; * % % % % & O , -.-.-.;.>.:.;.&.-.-.1 # % % & & % & * X Q m.k.; * o w m.m.m.m.m.m.7 X d m.",
"m.m.m.m.m.m.m.m.m.m.m.m.m.m.n.m.2.6 & $ % % % & + e +.>.>.>.>.>.:.>.4.4.>.; + % & $ % & @ o ..m.q.3 & . z h.m.m.m.m.m.m.7 X g m.",
"m.m.m.m.m.m.m.m.m.m.m.m.m.m.m.<.i o & % % % % & + k p.:.>.>.>.>.>.4.:.>.:.D 1 @ & & + O : W m.1.a o & z q.m.m.m.m.m.m.m.e   i m.",
"m.m.m.m.m.m.m.m.m.m.m.m.m.m.h.e . * $ $ % & % & o s 0.;.>.>.>.>.>.>.:.:.:.s.k + & # 6 9 x h.t.e X * + d.m.n.m.m.m.m.n.q.3 * P m.",
"m.m.m.m.m.m.m.m.m.m.m.m.m.b.< @ * % * & % % % & + s 0.;.>.>.:.>.>.>.4.:.:.6.p + & O ,.m.1.X @ & * * $ 1.m.m.m.m.m.m.d.& o ] m.m.",
"m.m.m.m.m.m.m.m.m.m.m.m.m.m.3 @ # 1 h.9 + & % & o s 0.;.>.>.>.>.>.4.:.:.;.6.p O * O d.%.& & = X i v.h.n.m.m.m.m.m.m.t.o =.n.m.m.",
"m.m.m.m.m.m.m.m.m.m.m.m.d.z - & o ; m.r + & % & + k p.;.>.>.>.>.>.:.:.4.;.s.l O & # d 0 O + . m e.m.m.m.m.m.m.m.m.m.v.X.b.m.m.m.",
"m.m.m.m.m.m.m.m.m.m.m.m.1.X $ + < F m.7 + & % & @ 7 ` ;.>.>.>.>.>.>.>.>.4.` 7 @ & % o X ; m g q.m.n.m.m.m.m.m.m.m.m.m.m.m.m.m.m.",
"m.m.m.m.m.m.m.m.m.m.b.m.1.% < - P m.m.g & % % % & + ; :.>.:.>.>.>.>.>.;.@.- @ & % $ 1 > g m.m.m.m.m.m.m.m.m.m.m.m.m.m.m.m.m.m.m.",
"m.m.m.m.m.m.m.m.m.m.8.6.[ @ @.z.m.n.m.m.I + & % & @ 4 4.4.>.;.:.>.;.6.+.& & & % % @ <.m.b.m.m.m.m.m.m.m.m.m.m.m.m.m.m.m.m.m.m.m.",
"m.m.m.m.m.m.m.m.n.i.4.>.&.{ &.z.m.m.n.m.Z   * & & & & 4 1 ^ p.;.;.p.^ > % % % % % % 1 ..m.n.m.m.m.m.m.m.m.m.m.m.m.m.m.m.m.m.m.m.",
"m.m.m.m.m.m.m.m.n.>.3.3.>.0.a.b.m.m.m.m.1.z o + O @ $ @ o 6 ^ 0.0.~ 4 + % % @ @ % * . F m.n.m.m.m.m.m.m.m.m.m.m.m.m.m.m.m.m.m.m.",
"m.m.m.m.m.m.m.m.n.3.5.5.>.:.m.m.m.m.m.n.m.h.w t u 4 # & * o 1 [ [ 1 o % # @ 3 9 @ & o Y m.m.m.m.m.m.m.m.m.m.m.m.m.m.m.m.m.m.m.m.",
"m.m.m.m.m.m.m.m.m.w.4.3.7.4.b.m.m.m.m.m.m.m.m.m.m...o * % & % $ # & - - ; @ =.2.@ * o I m.n.n.m.m.m.m.m.m.m.m.m.m.m.m.m.m.m.m.m.",
"m.m.m.m.m.m.m.m.m.m.t.:.8.n.m.m.m.m.m.m.m.m.m.n.m.| o & % & # o @   m n.j.j.b.m.q.; . v i.4.4.4.a.m.m.m.m.m.m.m.m.m.m.m.m.m.m.m.",
"m.m.m.m.m.m.m.m.m.m.b.l.z.m.m.m.m.m.m.m.m.m.m.m.m.Q   & & + 9 =.O.O.e.m.m.m.m.m.x.# l #.>.>.7.3.8.a.m.m.m.m.m.m.m.m.m.m.m.m.m.m.",
"m.m.m.m.m.m.m.m.m.m.m.m.m.m.m.m.m.m.m.m.m.m.m.m.m.1.d & & O d m.m.m.m.n.m.m.m.m.x.k #.0.3.>.3.7.3.>.m.m.m.m.m.m.m.m.m.m.m.m.m.m.",
"m.m.m.m.m.m.m.m.m.m.m.m.m.m.m.m.m.m.m.m.m.m.m.m.m.m.l.% & O i m.n.m.m.m.m.m.m.m.m.0.:.3.7.>.4.w.w.8.m.m.m.m.m.m.m.m.m.m.m.m.m.m.",
"m.m.m.m.m.m.m.m.m.m.m.m.m.m.m.m.m.m.m.m.m.m.m.m.m.m.t.& * O i m.m.m.m.m.m.m.m.m.n.>.;.3.5.>.n.m.m.m.m.m.m.m.m.m.m.m.m.m.m.m.m.m.",
"m.m.m.m.m.m.m.m.m.m.m.m.m.m.m.m.m.m.m.m.m.m.m.m.m.m.t.+ . f &.9.8.e.w.0.8.b.m.m.m.b.b.b.n.v.m.m.m.m.m.m.m.m.m.m.m.m.m.m.m.m.m.m.",
"m.m.m.m.m.m.m.m.m.m.m.m.m.m.m.m.m.m.m.m.m.m.m.m.m.m.l.A B +.w.:.;.5.5.:.;.b.m.m.m.m.m.m.m.m.m.m.m.m.m.m.m.m.m.m.m.m.m.m.m.m.m.m.",
"m.m.m.m.m.m.m.m.m.m.m.m.m.m.m.m.m.m.m.m.m.m.m.m.m.m.n.0.0.8.5.4.>.3.e.d.i.n.m.m.m.m.m.m.m.m.m.m.m.m.m.m.m.m.m.m.m.m.m.m.m.m.m.m.",
"m.m.m.m.m.m.m.m.m.m.m.m.m.m.m.m.m.m.m.m.m.m.m.m.m.m.b.:.;.3.q.7.>.:.f.m.m.m.m.m.m.m.m.m.m.m.m.m.m.m.m.m.m.m.m.m.m.m.m.m.m.m.m.m."
};
