/* XPM */
static char *result[] = {
/* columns rows colors chars-per-pixel */
"64 64 90 1 ",
"  c #65340E",
". c #673611",
"X c #683712",
"o c #693813",
"O c #6E3D19",
"+ c #703F1C",
"@ c #72411E",
"# c #754422",
"$ c #7A4626",
"% c #754826",
"& c #794927",
"* c #774A28",
"= c #7B4C2B",
"- c #7E502F",
"; c #7E5333",
": c #825434",
"> c #8B5337",
", c #855738",
"< c #86593B",
"1 c #895B3D",
"2 c #8C5F41",
"3 c #965C43",
"4 c #8E6144",
"5 c #906447",
"6 c #93664A",
"7 c #95694D",
"8 c #976B50",
"9 c #9A6E53",
"0 c #9C7156",
"q c #9F735A",
"w c #A36751",
"e c #A66955",
"r c #AE6F5C",
"t c #A1765D",
"y c #AF705E",
"u c #A3785F",
"i c #B0715F",
"p c #A67B63",
"a c #A97F67",
"s c #B47563",
"d c #BE7D6E",
"f c #BF7E70",
"g c #C07E70",
"h c #A18068",
"j c #AD836C",
"k c #AF8670",
"l c #A98B76",
"z c #B08771",
"x c #B38A74",
"c c #B78F7A",
"v c #AB907B",
"b c #B9917D",
"n c #C18072",
"m c #CB877C",
"M c #BD9582",
"N c #BDA797",
"B c #BEA999",
"V c #D28D84",
"C c #C09986",
"Z c #C49C8A",
"A c #D79289",
"S c #DC958E",
"D c #E69E99",
"F c #C7A08E",
"G c #C8A18F",
"H c #CBA494",
"J c #C2AE9F",
"K c #CFA999",
"L c #D1AC9C",
"P c #C3AFA0",
"I c #D4AFA1",
"U c #D6B1A3",
"Y c #D9B4A6",
"T c #DBB6A9",
"R c #DEB9AD",
"E c #CEBEB2",
"W c #E0BCAF",
"Q c #E3BFB3",
"! c #D3C5BA",
"~ c #E5C1B6",
"^ c #E6C4B9",
"/ c #E9C6BC",
"( c #EBC8BE",
") c #E7CEC7",
"_ c #ECCAC1",
"` c #E6CFC9",
"' c #F1CEC5",
"] c #E4D1CC",
"[ c white",
"{ c None",
/* pixels */
"{{{{{{{{{{{{{{{{{{{{{{{{{{{{{{{{{{{{{{{{{{{{{{{{{{{{{{{{{{{{{{{{",
"{{{{{{{{{{{{{{{{{{{{{{{oooooooooo{{{{{{{{{{{{{{{{{{{{{{{{{{{{{{{",
"{{{{{{{{{{{{{{{{{{{{{{oooXooXooooo{{{{{{{{{{{{{{{{{{{{{{{{{{{{{{",
"{{{{{{{{{{{{{{{{{{{oooooooooooooooooo{{{{{{{{{{{{{{{{{{{{{{{{{{{",
"{{{{{{{{{{{{{{{{{{oooooXooooooXooooooooo{{{{{{{{{{{{{{{{{{{{{{{{",
"{{{{{{{{{{{{{{{{{oooooooooXooooooXoooooXo{{{{{{{{{{{{{{{{{{{{{{{",
"{{{{{{{{{{{{{{{{oooooooooooooooooooooooooo{{{{{{{{{{{{{{{{{{{{{{",
"{{{{{{{{{{{{{{{ooooXooooXooooXooo.XXXXXXooo{{{{{{{{{{{{{{{{{{{{{",
"{{{{{{{{{{{{{{{oooo.ooooooooooooo%==-=-#oooo{{{{{{{{{{{{{{{{{{{{",
"{{{{{{{{{{{{{{ooooOOoo@oooooooooObWWRRWcooooo{{{{{{{{{{{{{{{{{{{",
"{{{{{{{{{{{{{{oo.$CFGFFZ< .oooo@bQ((((_Rb@ooo{{{{{{{{{{{{{{{{{{{",
"{{{{{{{{{{{{{{oo :W'''_'Ca9O..=k~_(____(~j&oo{{{{{{{{{{{{{{{{{{{",
"{{{{{{{{{{{{{{oX#9!(THHHW'Y51#6(((RHHHR((^4.oo{{{{{{{{{{{{{{{{{{",
"{{{{{{{{{oooooo.8^/~po@=M^(~^p8^(~jo@$c^(^8ooo{{{{{{{{{{{{{{{{{{",
"{{{{{{{oooXoXXo.9_^9@.%!pj(((WR^(t@X@!lq((RtXX{{{{{{{{{{{{{{{{{{",
"{{{{{{oooouMpOo 9(^4.;Pl=0((((((/6 :Bv;6((_j.o{{{{{{{{{{{{{{{{{{",
"{{{{{{oo+8U'H+X.9(~1.1N# 0((((((^6 :J= 6((_jXo{{{{{{{{{{{{{{{{{{",
"{{{{{ooX=T(_H+X.9(^9@Xoo#j((((((^t@.Xo@p((_jXo{{{{{{{{{{{{{{{{{{",
"{{{{{ooo:W(_HO..9((~uO+Ob~(((((((^jOo+z~(((jXXooo{{{{{{{{{{{{{{{",
"{{{{{o.1K/(_HOX.9(((YHHHW(((((((((RHHHW(((_j X..oo{{{{{{{{{{{{{{",
"{{{{{o.8'(((HOX.9__(('(_(((((^(((((('(((^((Hjjj: XX{{{{{{{{{{{{{",
"{{{{{o.1H^(_HOo.2ZHQ(((((((((((((((((((((((___(x2<O{{{{{{{{{{{{{",
"{{{{{ooo=W(_HOooOO+H((((((((((((((^WWT~((((((((^^U:Oo{{{{{{{{{{{",
"{{{{{{oX=R(_HOooXXOH_(((((((((((((b===C_((((((((_^L,Xo{{{{{{{{{{",
"{{{{{{{XO7U'HOXoXoO1Z_((((((((((((z.XXc((((((((((((H6X{{{{{{{{{{",
"{{{{{{{{ooqcuOooXXX 5Z((((((__(((_k.XXc'(((((((((((_a {{{{{{{{{{",
"{{{{{{{{oo.oXoooXoXo.2/((((^UR_((_M=oXpLU^((((U~((((p {{{{{{{{{{",
"{{{{{{{{{{{{ooXoOoooo5/((((Q4j^~~~QZ++@#:Y~~^Y,b_(((a {{{{{{{{{{",
"{{{{{{{{{{{{{{ooXXoX0Y(((((Q,#,,<,,=+smeO::><,ob_(((a {{{{{{{{{{",
"{{{{{{{{{{{{{{{oXXX.j_(((((/Cz8 .3iriSDVrrr> opU((('a {{{{{{{{{{",
"{{{{{{{{[{{{{{{ooooXj_((((((('L3OwggnSDAggg1@8W((((H6X{{{{{{{{{{",
"{{{{{{{{{{{{{{{ooooXj_((((((((/T<$=$@gAiO#:$7~(((/Y<Xo{{{{{{{{{{",
"{{{{{{{{{{{{{{{oooo.j_((((((((((RYRC@#$@=LTTW((((Y:OX{{{{{{{{{{{",
"{{{{{{{{{{{{{{{{{{oXj'(((((((((((((~ZZZZH^(((((_'I@{{{{{{{{{{{{{",
"{{{{{{{{{{{{{{{{{{oo4C((((((((((((((('(((((((_(Fza#{{{{{{{{{{{{{",
"{{{{{{{{{{{{{{{{{{{o ,HKLY((((((('((((((_(((~KL2 .{{{{{{{{{{{{{{",
"{{{{{{{{{{{{{{{{{{{{oOO+otQQQQQQQQQQ~QQQQQ~QF#+Oo{{{{{{oXoo{{{{{",
"{{{{{{{{{{{{{{{{{{{{{{Xoo#:::::::::::::::::::{{{{{{{{{ooooooo{{{",
"{{{{{{{{{{{{{{{{{{{{{ooooXXXX.. ....XXXX.....o{{{{{{oooo{{oooo{{",
"{{{{{{{{{{{{{{{{{{{{ooXooXXXXX#68#.XXooXoooooo{{{{{oooo{{{{oooo{",
"{{{{{{{{{{{{{{{{{{{oooooXoO==&t/^t$==OXXooXOoo{{{{{ooo{{{{{{ooo{",
"{{{{{{{{{{{{{{{{{{oXoooXXX:URWQ((QRWL:.XooXXooo{{{oooo{{{{{{ooo{",
"{{{{{{{{{{{{{{{{{oooXooo.5L^((((((((Q:.oXXXXXoooooooo{{{{{{{ooo{",
"{{{{{{{{{{{{{{{{oooooooo.t((((((((((~c:XXOXooooooo. {{{{{{{{ooo{",
"{{{{{{{{{{{{{{{oXooooooo.t/(((((((((((0.XOooooooXO<{{{{{{{{{ooo{",
"{{{{{{{{{{{{{{oooooooooX.0(((((((((/((t.XX{{oXooO,R(({{{{{{oX{{{",
"{{{{{{{{{{{{{{Xooo{ooooo t((^(((((((((t.XX{{oooX6Y^((({{{{{o{{{{",
"{{{{{{{{{{{{{ooooo{oXooo t'(((((((((('0.XoOXooo9L(()_(({{{{{{{{{",
"{{{{{{{{{{{{{XXXoo{oooooX1Z((((((((_(Z1XoooooooM'())`_({{{{{{{{{",
"{{{{{{{{{{{{{O=@X{{oooXoX.:Q(((((((^L=XoXoooo{{{{_`))`({{{{{{{{{",
"{{{{{{{{{{(_H=H{{{{{ooooo.:R/^(((((H$ooooo{{{{{{{{(`)({{{{{{{{{{",
"{{{{{{{{{(((QL^{{{{{Xooooo@,1C_((_C:ooooo{{{{{{{{{{{{{{{{{{{{{{{",
"{{{{{{{{{()_((({{{{{{oooooo..1M_(C1XXooo{{{{{{{{{{{{{{{{{{{{{{{{",
"{{{{{{{{{)))_({{{{{{{{oooXooo ,FZ, oooo{{{{{{[{{{{{{{{{{{{{{{{{{",
"{{{{{{{{{]))`({{{{{{{{{{{{oooooooooooo{{{{{{{{{{{{{{{{{{{{{{{{{{",
"{{{{{{{{{{]`_{{{{{{{{{{{{{{{oooooooooooo{{{{{{{{{{{{{{{{{{{{{{{{",
"{{{{{{{{{{{{{{{{{{{{{{{{{{{{Xooooo{{oooo{{{{{{{{{{{{{{{{{{{{{{{{",
"{{{{{{{{{{{{{{{{{{{{{{{{{{{{{oooo{{{oooX{{{{{{{{{{{{{{{{{{{{{{{{",
"{{{{{{{{{{{{{{{{{{{{{{{{{{{{{oooo{{{XXX#{{{{{{{{{{{{{{{{{{{{{{{{",
"{{{{{{{{{{{{{{{{{{{{{{{{{{{{{ooo@{{{{@O9((((({{{{{{{{{{{{{{{{{{{",
"{{{{{{{{{{{{{{{{{{{{{{{{{{{{{X.#CQ((]IHY((`])_{{{{{{{{{{{{{{{{{{",
"{{{{{{{{{{{{{{{{{{{{{{{{{{{{{zzb^_()]]_))()``(({{{{{{{{{{{{{{{{{",
"{{{{{{{{{{{{{{{{{{{{{{{{{{{{{___]]__``_)](()]_({{{{{{{{{{{{{{{{{",
"{{{{{{{{{{{{{{{{{{{{{{{{{{{{{(()]])(((()]_{{{{{{{{{{{{{{{{{{{{{{"
};
