/* XPM */
static char *result[] = {
/* columns rows colors chars-per-pixel */
"64 64 86 1 ",
"  c #66340E",
". c #673610",
"X c #683712",
"o c #693813",
"O c #6E3D19",
"+ c #703F1C",
"@ c #72411E",
"# c #754522",
"$ c #794625",
"% c #764927",
"& c #794927",
"* c #764A28",
"= c #7B4B2A",
"- c #7B502F",
"; c #7F5232",
": c #825434",
"> c #8A5236",
", c #855738",
"< c #86593A",
"1 c #895B3D",
"2 c #8C5F41",
"3 c #965C43",
"4 c #8D6244",
"5 c #906447",
"6 c #926548",
"7 c #95694D",
"8 c #976B50",
"9 c #9A6E53",
"0 c #9D7257",
"q c #9F7359",
"w c #A36751",
"e c #A66955",
"r c #AE6F5C",
"t c #A3775E",
"y c #AF705E",
"u c #A3785F",
"i c #B0715F",
"p c #9C7C63",
"a c #A67C63",
"s c #A87D65",
"d c #B47463",
"f c #BE7D6E",
"g c #BF7E70",
"h c #C07F70",
"j c #AC836C",
"k c #A58771",
"l c #AB8F7A",
"z c #B18771",
"x c #B48C76",
"c c #B78F7A",
"v c #B9917D",
"b c #C18072",
"n c #CA877C",
"m c #BD9682",
"M c #BF9885",
"N c #D28D84",
"B c #C09986",
"V c #C59E8C",
"C c #D79289",
"Z c #DC958E",
"A c #E69E99",
"S c #CBA594",
"D c #CEA897",
"F c #CFA999",
"G c #D2AC9D",
"H c #D5AFA1",
"J c #D6B1A2",
"K c #D8B3A5",
"L c #DBB7A9",
"P c #DEBAAD",
"I c #E0BCAF",
"U c #E2BEB2",
"Y c #D1C2B7",
"T c #D6C8BE",
"R c #E5C1B6",
"E c #E6C3B9",
"W c #E9C6BC",
"Q c #EBC8BE",
"! c #DACEC5",
"~ c #E7CEC7",
"^ c #ECCAC1",
"/ c #E6CFC9",
"( c #F0CDC4",
") c #E5D1CC",
"_ c white",
"` c None",
/* pixels */
"````````````````````````````````````````QQ)~Q```````````````````",
"````````````````````````````````````````````````````````````````",
"````````````````````````````````````````````````````````````````",
"````````````````````````````````````````````````````````````````",
"````````````````````````````````````````````````````````````````",
"```````````````````````Xooooooooo```````````````````````````````",
"````````````````````ooXXoooXooooooooo```````````````````````````",
"```````````````````oooOXoooooooXooooo```````````````````````````",
"``````````````````ooooooXooooooooXooooXo````````````````````````",
"`````````````````Xooooooooooooooooooooooo```````````````````````",
"````````````````oooooooooooooXoooXooooo.oo``````````````````````",
"```````````````oooooXooooooooooooX.X....ooo`````````````````````",
"```````````````oXXXXXXXXooooooooo:11111:oooX````````````````````",
"``````````````ooXO#@####OXoooXoo#BWWEREB@Oooo```````````````````",
"``````````````oo.=SJHHJH4XooXoo#VRQQQQQEV@ooo```````````````````",
"``````````````oo :U^^^(^SvsO..:MWQQ^^^Q^Rm:.oo``````````````````",
"``````````````oX=sR^GvvvL(Pt9=5QQ^JvvcK^QW4 oo``````````````````",
"`````````oooooXX9QQL0Xo:vIQQ^jqWQLaoo;xPQW0@oo``````````````````",
"``````ooooOOOoo 9QE6oo;!ptQQQRRWW9Oo*!k9QQRsXX``````````````````",
"``````oooojDzOoX9QE1.4Yq#0QQQQQQQ4 <Yp*7WQ^jXo``````````````````",
"``````oX#sL(SOoX9QE<.;l# 0WQQQQQE4 =l& 7QQ^jXo``````````````````",
"`````oo.=IQ^S+o 9QEa*..X:xQQQQQQQj=o X=jWQ^j.o``````````````````",
"`````ooO>IQQSOo.9Q^Wj#%%BQQQQQQQQQx#$#vQQQ^j.oooo```````````````",
"`````o.4LQQQSOo 9QW^UKJKRQQQWQWQQQRKKKUQQQ^jXooooo``````````````",
"`````o.7^QQ^SOX.0^^QQQ^^QQQQQQQQQQQ^^^QQQWQJBBB1  o`````````````",
"`````oX:mEQ^SOXX,xcPQQQQQQWQQQQQQWQ^^QQQQQQQQQ(vq7OX````````````",
"`````ooX=IQ(SOooooOS^QQQQQQQQQQQQQPGGGUQQQQQQQQQQL1OX```````````",
"``````oX=KQQS+XoooOVQQQQQQQQQQQQQ^x@@@v^QQQQQQQQQWI4oo``````````",
"````````O,G(SOooooo=m^QQQQQQQQQQQQz.o.x^QQQQQQQQQQWK9 ``````````",
"````````XX5a7oooooo.<vWQQQQQ^QQQQQz oov(QWQQQQ(QQQQ^s ``````````",
"````````XoXXXXoooo.o 1EQQQWWSK^QQ(V1Oo0BSWQQQWVLQQQ^s ``````````",
"````````````XXooooooO9WQQQQR,sPLLLLB+@$@=GLLLG:v^QQQs ``````````",
"``````````````ooooXXaUQQWQQR,@&&&=&$+hCiO%&&&&Ov^QQ^s ``````````",
"````````_``````ooooXjQQQQQQWSVa owhfhZACffh3.OxLQQQ^s ``````````",
"```````````````oXooXjQQQQQQQ^(Jt+3rrdZANyyr>#sU^WQQB1X``````````",
"```````````````ooooXj^QQQQQQQQQI5,,:+dneO:>,qWQQQWS:Xo``````````",
"```````````````ooooXj^QQQQQQQQQWERES$#$#:KEUEW^W^J&o```oooo`````",
"``````````````````o.j^QQQQQQQQQQWQQEGGGGHWQQQ^WW^J#```ooooooo```",
"```````````````````X:xQQ^^QQQQQQQQQQQ(^^^QQQ^^^m09`Xoooo``oooo``",
"```````````````````o :mMmGQQ^^QQQQ^^QQ^Q^Q^QUBm1  `oooo````oooo`",
"```````````````````ooXooX7KKKKKKLKKKKKKKLLKLmOooo``ooo``````ooo`",
"``````````````````ooooooo@&==&==&&=&&$#$#####oXoo`oooo``````ooo`",
"`````````````````ooooooo.4VVVVVVVVVVB$ Xo..oXooXooooo```````ooo`",
"````````````````oooooooo t(^^^^^(^Q(Wx:.oooooooooo. ````````ooo`",
"```````````````ooooooooo qQQQQQQQQQQQQ0 ooooooooXO1`````````ooo`",
"``````````````ooXooooooo tQQQQQQQQQWQQt oo``oooXO,PWQ``````oo```",
"``````````````oooo`oXooo qQQQQQQQQQQQQt oo``ooo.6KWQQQ`````o````",
"`````````````ooooo`ooooo tQQQQQQQQQQQ(t oooooXo0G^W~^QQ`````````",
"`````````````XXXoo`oooooX1VWQQQQQQQ^WV1XooooooXm^Q~~~^Q`````````",
"`````````````O=@X``oooooX.:UQQQQQQQEG=Xoooooo````^)^//Q`````````",
"``````````Q^S=S`````ooooo.:PEWQQQQWD&ooooX````````^/~Q``````````",
"`````````QQQUGE`````oXoooo@,1B^QQ^B:ooooo```````````````````````",
"`````````W~^Q^Q``````oooooo..1mQQM1ooXoo````````````````````````",
"`````````^~~^Q````````ooooooo ,VV> ooooo````````````````````````",
"`````````)~~/Q```````ooooooooooOOoooooooo```````````````````````",
"``````````)/^``````EaOoooo```oooooo``oooo```````````````````````",
"``````````````````QWGxs&o````````````ooooo```_``````````````````",
"``````````````````QQETLz``````````````oooo```_``````````````````",
"``````````````````Q~~)^W``````````````oooo``````````````````````",
"```````````````````)))^^^`````````````oooo``````````````````````",
"````````````````````~~^~))``````````````ooM^QQQ`````````````````",
"````````````````````QQQ))/``````````````@jLQ^~~^````````````````",
"`````````````````````Q^))^Q`````````````qR~^^))~Q```````````````",
"````````````````````````WQ``````````````EQ//QW)~Q```````````````"
};
