/* XPM */
static char *_ba3e192b06c4ef7c6d4fdf6ea3f02f6LFpelwPJxeG4dSeJ[] = {
/* columns rows colors chars-per-pixel */
"64 64 134 2 ",
"   c None",
".  c #373737",
"X  c #3B3B3B",
"o  c #3F5E4D",
"O  c #326B4E",
"+  c #444444",
"@  c #4D4D4D",
"#  c gray33",
"$  c #5B5B5B",
"%  c #606060",
"&  c #6B6B6B",
"*  c #737373",
"=  c #7B7B7B",
"-  c #61B73D",
";  c #66B83B",
":  c #69B93B",
">  c #7EBF36",
",  c #77BD38",
"<  c #029846",
"1  c #079E4E",
"2  c #0A9F4E",
"3  c #149D4E",
"4  c #049F50",
"5  c #0BA14F",
"6  c #12A34D",
"7  c #1CA54B",
"8  c #1EA84C",
"9  c #04A553",
"0  c #0BA551",
"q  c #0BAB54",
"w  c #10A453",
"e  c #12AB51",
"r  c #0CB157",
"t  c #0CB559",
"y  c #07BE5F",
"u  c #0DBE5D",
"i  c #11BE5D",
"p  c #2EAA47",
"a  c #25A749",
"s  c #2AA948",
"d  c #32AB47",
"f  c #3CAE44",
"g  c #20BC55",
"h  c #379C65",
"j  c #1BB762",
"k  c #15BB60",
"l  c #1AB862",
"z  c #2EAE68",
"x  c #32AC6A",
"c  c #26B366",
"v  c #29B167",
"b  c #43B244",
"n  c #4BB443",
"m  c #469369",
"M  c #5C9275",
"N  c #529D74",
"B  c #5E9778",
"V  c #6D8D7B",
"C  c #728D7F",
"Z  c #64947A",
"A  c #6A917C",
"S  c #42A56F",
"D  c #0AC05D",
"F  c #15C05B",
"G  c #23C257",
"H  c #2EC254",
"J  c #35C452",
"K  c #3AC551",
"L  c #4EC84C",
"P  c #5FCA47",
"I  c #59C949",
"U  c #67CB45",
"Y  c #68CC44",
"T  c #74CD41",
"R  c #81BF36",
"E  c #83C035",
"W  c #8BC333",
"Q  c #95C531",
"!  c #9BC630",
"~  c #89D03B",
"^  c #A3C92F",
"/  c #ACCB2D",
"(  c #B6CD2B",
")  c #BACE2A",
"_  c #A2D434",
"`  c #ECDC1F",
"'  c #F5DF1D",
"]  c #F9DF1D",
"[  c #F7E01D",
"{  c #FFE11C",
"}  c #CED426",
"|  c #C1D129",
" . c #C5D92B",
".. c #CAD92A",
"X. c #DBD723",
"o. c #D4D927",
"O. c #E5DA21",
"+. c #EADD21",
"@. c #7F8783",
"#. c #768C80",
"$. c #7D8983",
"%. c #838584",
"&. c #848484",
"*. c #848584",
"=. c #858485",
"-. c #848585",
";. c gray52",
":. c #868485",
">. c #878485",
",. c #868686",
"<. c gray53",
"1. c #828282",
"2. c #888386",
"3. c #888888",
"4. c #898989",
"5. c gray54",
"6. c #8B8B8B",
"7. c gray55",
"8. c #8E8E8E",
"9. c gray56",
"0. c #909090",
"q. c gray57",
"w. c #929292",
"e. c #939393",
"r. c gray58",
"t. c #959595",
"y. c gray59",
"u. c #979797",
"i. c #989898",
"p. c gray60",
"a. c #9D9D9D",
"s. c gray62",
"d. c gray64",
"f. c #B7B7B7",
/* pixels */
"                                                                                                                                ",
"                                                                                                                                ",
"                                                                                                                                ",
"                                                                                                                                ",
"                                                                                                                                ",
"                                                                                                                                ",
"                                                                                                                                ",
"                                                                                                                                ",
"                                                                                                                                ",
"                                                                                                                                ",
"                        s.s.s.s.s.s.s.s.s.s.s.s.                                                                                ",
"                      t.w.w.w.w.w.w.w.w.w.w.w.w.i.                                                                              ",
"              s.s.i.i.8.&.&.&.&.&.&.&.&.&.&.&.&.w.i.                                                                            ",
"            s.s.i.5.&.&.&.&.&.&.&.&.&.&.&.&.&.&.&.8.s.                                                                          ",
"          s.s.t.5.&.&.&.&.&.&.&.&.&.&.&.&.&.&.&.&.8.s.                                                                          ",
"        s.s.t.5.&.&.&.&.&.&.&.&.&.&.&.&.&.&.&.&.&.5.w.s.                                                                        ",
"        t.t.5.&.&.&.&.&.&.&.&.&.&.&.&.&.&.&.&.&.&.&.&.w.                                                                        ",
"        &.&.&.&.&.&.&.&.1.= = = = &.&.&.&.&.&.&.&.&.&.&.                                                                        ",
"      i.&.&.&.&.&.&.&.&.* + + + $ 1.&.&.&.&.&.&.&.&.&.&.                                                                        ",
"      i.&.&.&.&.&.&.&.& + + f.* X # 1.&.&.&.&.&.&.&.&.&.t.                                                                      ",
"      i.&.&.&.&.&.&.&.% . + 8.d.= + = &.&.&.&.&.&.&.&.&.i.                                                                      ",
"      i.&.&.&.&.&.&.&.& @ X X t.s.$ 1.&.&.&.&.&.&.&.&.&.w.                                                                      ",
"      i.5.&.&.&.&.&.&.&.* + + + $ 1.&.&.&.&.&.&.&.&.&.&.&.&.                                                                    ",
"      s.i.5.&.&.&.&.&.&.1.= = = = &.&.&.&.&.&.&.&.&.&.&.&.&.&.                                                                  ",
"        s.5.&.&.&.&.&.&.&.&.&.&.&.&.&.&.&.&.&.&.&.&.&.&.&.&.&.                                                                  ",
"        * 1.&.&.&.&.&.&.&.&.&.&.&.&.&.&.&.&.&.&.&.&.&.&.&.V m                                                                   ",
"        X & * = &.&.&.&.&.&.&.&.&.&.&.&.&.&.&.>.&.&.%.V V h 0 5                                                                 ",
"      X X X X # &.&.&.&.&.&.&.&.&.&.&.&.&.%.@.@.@.%.A j k i t 5                                                                 ",
"  X X X X X X # &.&.&.&.&.&.&.&.&.&.&.&.>.A v c c c c u u u t 5 5                                                               ",
"X X X X X + + # & 1.&.&.&.&.&.&.&.&.&.>.Z x u D u u u u u u u q 0                                                               ",
"X X X + + @ @ @ # = &.&.&.&.&.&.&.&.&.A x D u t u u u u u u u u 0 5                                                             ",
"X X X + @ @ @ @ $ 1.&.&.&.&.&.$.#.#.C v u u u 0 t u u u u u u u 0 5 5                                                           ",
"X + @ @ @ @ @ $ = &.&.&.%.%.%.S l j l i r 0 0 5 t u u u u u u u u q 5 5                                                         ",
"+ @ @ @       * &.&.2.B x x x l u u u u q 5 5 r u u u u u u u u u u q 5 5                                                       ",
"@ @ @           $.N N z D u u u u u i P b 5 0 u u u u u u u u u u u u q 5 5                                                     ",
"                M k u u u u u u u u F  .E 1 0 u u u u u u u u u u u u u q 5 5                                                   ",
"                w u u u u u u u u u G ..E 1 0 u u u u u u u u u u u u u u q 5 5                                                 ",
"                0 u u u u u u u u H  .[ R 1 0 u u u u u u u u u u u u u u u q 5 5                                               ",
"                0 u u u u u u u u J +.{ > 4 0 u u u u u u u u u u u u u u u u q 5 5 5                                           ",
"                0 u u u u u u u u J +.{ / b 5 r u u u u u u u u u u u u u u u u q q 0 5                                         ",
"                0 u u u u u u u u J +.{ { ) 6 5 r u u u u u u u u u u u u u u u u u q 0 0 0 5                                   ",
"                0 u u u u u u u u K +.{ { ) 6 5 5 q u u u u u u u u u u u u u u u u u u u u 0 5 5 5 5 5 5 5 5 5 5 5             ",
"                5 q u u u u u u L  .[ { { ) 5 5 5 q u u u u u u u u u u u u u u u u u u u u u q 5 5 5 5 q t t t q 5 5 5 5 5 5 5 ",
"                5 5 t u u u u u Y { { { { X., 7 5 0 t u u u u u u u u u u u u u u u u u u u u t q q q 0 q r r r 0 5 5 5 5 5 5 5 ",
"                  5 t u u u u y U { { { { { ` - 7 5 0 t u u u u u u u u u u u u u u u u u t t t u u u q 0 q 0 5 5 5 5 5 5 5 5 5 ",
"                  5 t u u u u F T { { { { { { ' : 6 5 0 t u u u u u u u u u u u u u u u t 0 0 5 q u u u u u u 0 5 5 5 5 5 5 5 5 ",
"                  5 t u u u u ~ +.{ { { { { { { O.E 5 5 0 t u u u u t 0 0 u u t 0 0 0 r u u u q 5 0 0 u u u u 0 5 5 5 5 5 < <   ",
"                    q t u u u _ { { { { { { { { { X.^ ! s 9 t u u u u q 5 q t u r 5 2 0 r u u u t r 5 q q q q 5 5 5 5 5 5       ",
"                    5 q t i I  .{ { { { { { { { { { { [ W ; n t t t u u q 5 q t t q q 0 0 r t t t r 5 5 5 5 5 5 5 5 5 5         ",
"                    5 5 0 g o.{ { { { { { { { { { { { { { { | d 0 5 q u u 0 5 5 0 t u q 5 5 5 5 5 5 5 5 5 5 5 5                 ",
"                      5 5 8 } ] ] { { { { { { { { { { { { { ] o.H e 6 6 6 5 5 5 5 0 0 5 5 5 5 5 5 5 5 5 5                       ",
"                          6 f b W { { { { { { { { { { { { { { [ ..| | | ( s 4 5 5 5 5 5 5 5 5 5                                 ",
"                              4 d Q ' { { { { { { { { { { { { { { { { { [ ^ W - 5 5 5 5                                         ",
"                                1 a / ) ) } { { { { { { { { { { { { O.) ) ) | E 5 5 5                                           ",
"                                  5 6 6 5 n O.O.O.O.O.O.O.O.O.O.O.+.E 5 6 6 3 3 5                                               ",
"                                        5 6 p p p p p p p p p p p p 7 5     o o                                                 ",
"                                                      O                     @ @                                                 ",
"                                                    @ @ @                   @ @                                                 ",
"                                                @ @ @ @ @ @ @           @ @ @ @ @ @                                             ",
"                                              @ @ @   @   @ @         @ @   @ @   @ @                                           ",
"                                              @     @ @   @ @             @ @ @                                                 ",
"                                                    @                     @ @                                                   ",
"                                                    @                     @                                                     ",
"                                                                                                                X X             "
};
