/* XPM */
static char *smile_segal1710671793[] = {
/* columns rows colors chars-per-pixel */
"64 64 205 2 ",
"   c #2D2D2D",
".  c #363636",
"X  c #3C3C3C",
"o  c #3F4140",
"O  c #31664E",
"+  c #424242",
"@  c #4D4D4D",
"#  c #535353",
"$  c #5A5B5B",
"%  c #52484C",
"&  c #656665",
"*  c #6B6B6B",
"=  c #747474",
"-  c #7D7D7D",
";  c #707D75",
":  c #807D7F",
">  c #00963A",
",  c #009A3D",
"<  c #009536",
"1  c #119E3D",
"2  c #008E31",
"3  c #15A13E",
"4  c #2BA738",
"5  c #5FB63D",
"6  c #61B73E",
"7  c #009C44",
"8  c #049E4A",
"9  c #0C9E4D",
"0  c #009541",
"q  c #019D54",
"w  c #009D59",
"e  c #279E5C",
"r  c #00A246",
"t  c #02A44B",
"y  c #0BA14E",
"u  c #01AC4E",
"i  c #15A240",
"p  c #1BA647",
"a  c #0DA451",
"s  c #0CAB54",
"d  c #07AA55",
"f  c #12A353",
"g  c #1BA559",
"h  c #15A759",
"j  c #06B557",
"k  c #0DB157",
"l  c #0DB559",
"z  c #0DBE5F",
"x  c #07B659",
"c  c #11BE5E",
"v  c #17B858",
"b  c #22A647",
"n  c #35AA46",
"m  c #22A85E",
"M  c #2ABE54",
"N  c #38BE4F",
"B  c #389C66",
"V  c #1CA969",
"C  c #03BD63",
"Z  c #0CBF60",
"A  c #00B765",
"S  c #12BE61",
"D  c #1CB864",
"F  c #2AAE65",
"G  c #31AE6A",
"H  c #39AE6D",
"J  c #25B367",
"K  c #33B46D",
"L  c #3DB373",
"P  c #37B670",
"I  c #46B647",
"U  c #59BD43",
"Y  c #42AF44",
"T  c #5B8C71",
"R  c #569B75",
"E  c #439467",
"W  c #728E7F",
"Q  c #67947B",
"!  c #6F887A",
"~  c #40B374",
"^  c #46B679",
"/  c #4BB97B",
"(  c #46B879",
")  c #49A773",
"_  c #04C35C",
"`  c #0CC05F",
"'  c #12C05E",
"]  c #1DC25B",
"[  c #24C259",
"{  c #2BC357",
"}  c #36C353",
"|  c #05C163",
" . c #0DC160",
".. c #00C068",
"X. c #11C262",
"o. c #23C56E",
"O. c #56C94B",
"+. c #4AC94F",
"@. c #67CC46",
"#. c #7DD141",
"$. c #BDB61C",
"%. c #9CBA2A",
"&. c #96BB2D",
"*. c #8BBB30",
"=. c #ADB924",
"-. c #B3BA23",
";. c #CDB918",
":. c #CAB617",
">. c #D4BA16",
",. c #DCBA13",
"<. c #D7B814",
"1. c #E8B70E",
"2. c #8AC739",
"3. c #93C532",
"4. c #9EC833",
"5. c #99D238",
"6. c #8AD43E",
"7. c #BCD029",
"8. c #B8D52E",
"9. c #A6D535",
"0. c #DCC519",
"q. c #DCC217",
"w. c #E4C818",
"e. c #ECD21A",
"r. c #F5DB1C",
"t. c #F7D91A",
"y. c #F2C813",
"u. c #FFE616",
"i. c #FFE816",
"p. c #F5E11F",
"a. c #FFE21C",
"s. c #C3D126",
"d. c #CBD929",
"f. c #DBDC25",
"g. c #D5DB27",
"h. c #ECDE22",
"j. c #E3DC22",
"k. c #F3DF21",
"l. c #EFE021",
"z. c #F7E021",
"x. c #80D140",
"c. c #947E8A",
"v. c #7D8A82",
"b. c #788980",
"n. c #5ABE87",
"m. c #4FC083",
"M. c #62C28E",
"N. c #6DC795",
"B. c #6DC896",
"V. c #77CB9C",
"C. c #7FCEA3",
"Z. c #858585",
"A. c #8A8287",
"S. c #8E8288",
"D. c #8B8B8B",
"F. c #92878D",
"G. c #949494",
"H. c #9C9C9C",
"J. c #AA95A1",
"K. c #A9A8A8",
"L. c #B3B3B3",
"P. c #B9B9B9",
"I. c #B2A7AC",
"U. c #C5BBBF",
"Y. c #82CDA4",
"T. c #84D0A6",
"R. c #8CD3AC",
"E. c #9AD8B6",
"W. c #9AD8B5",
"Q. c #8CD4B3",
"!. c #A2D8BC",
"~. c #C6BCC0",
"^. c #A6DCC0",
"/. c #AADEC4",
"(. c #ADE0C7",
"). c #B2E0C6",
"_. c #B3E5CD",
"`. c #BCE5CE",
"'. c #BFE6D1",
"]. c #BEF3DB",
"[. c #C3C3C3",
"{. c #CDCDCD",
"}. c #D3D4D3",
"|. c #DCDCDC",
" X c #DCD2D6",
".X c #E1D7DB",
"XX c #C2E7D2",
"oX c #C4E9D5",
"OX c #CCEBDA",
"+X c #C8EDD7",
"@X c #D1EFDE",
"#X c #E1DDE0",
"$X c #DBF1E4",
"%X c #DFF3E8",
"&X c #EDEDED",
"*X c gray88",
"=X c #E6F6ED",
"-X c #E8F6EE",
";X c #ECF8F1",
":X c #F4F4F4",
">X c #F2F9F5",
",X c #F6FCF9",
"<X c #FFFFFF",
"1X c #FDF1F8",
"2X c #F1EDEF",
/* pixels */
"<X<X<X<X<X<X<X<X<X<X<X<X<X<X<X<X<X<X<X<X<X<X<X<X<X<X<X<X<X<X<X<X<X<X<X<X<X<X<X<X<X<X<X<X<X<X<X<X<X<X<X<X<X<X<X<X<X<X<X<X<X<X<X<X",
"<X<X<X<X<X<X<X<X<X<X<X<X<X<X<X<X<X<X<X<X<X<X<X<X<X<X<X<X<X<X<X<X<X<X<X<X<X<X<X<X<X<X<X<X<X<X<X<X<X<X<X<X<X<X<X<X<X<X<X<X<X<X<X<X",
"<X<X<X<X<X<X<X<X<X<X<X<X<X<X<X<X<X<X<X<X<X<X<X<X<X<X<X<X<X<X<X<X<X<X<X<X<X<X<X<X<X<X<X<X<X<X<X<X<X<X<X<X<X<X<X<X<X<X<X<X<X<X<X<X",
"<X<X<X<X<X<X<X<X<X<X<X<X<X<X<X<X<X<X<X<X<X<X<X<X<X<X<X<X<X<X<X<X<X<X<X<X<X<X<X<X<X<X<X<X<X<X<X<X<X<X<X<X<X<X<X<X<X<X<X<X<X<X<X<X",
"<X<X<X<X<X<X<X<X<X<X<X<X<X<X<X<X<X<X<X<X<X<X<X<X<X<X<X<X<X<X<X<X<X<X<X<X<X<X<X<X<X<X<X<X<X<X<X<X<X<X<X<X<X<X<X<X<X<X<X<X<X<X<X<X",
"<X<X<X<X<X<X<X<X<X<X<X<X<X<X<X<X<X<X<X<X<X<X<X<X<X<X<X<X<X<X<X<X<X<X<X<X<X<X<X<X<X<X<X<X<X<X<X<X<X<X<X<X<X<X<X<X<X<X<X<X<X<X<X<X",
"<X<X<X<X<X<X<X<X<X<X<X<X<X<X<X<X<X<X<X<X<X<X<X<X<X<X<X<X<X<X<X<X<X<X<X<X<X<X<X<X<X<X<X<X<X<X<X<X<X<X<X<X<X<X<X<X<X<X<X<X<X<X<X<X",
"<X<X<X<X<X<X<X<X<X<X<X<X<X<X<X<X<X<X<X<X<X<X<X<X<X<X<X<X<X<X<X<X<X<X<X<X<X<X<X<X<X<X<X<X<X<X<X<X<X<X<X<X<X<X<X<X<X<X<X<X<X<X<X<X",
"<X<X<X<X<X<X<X<X<X<X<X<X<X<X<X<X<X<X<X<X<X,X<X<X<X<X<X<X<X<X<X<X<X<X<X<X<X<X<X,X-X=X<X<X<X<X<X<X<X<X<X<X<X<X<X<X<X<X<X<X<X<X<X<X",
"<X<X<X<X<X<X<X<X<X<X<X<X<X<X<X<X<X<X<X<X<X<X<X<X<X<X<X<X<X<X<X<X<X<X<X<X<X,X<X`.y f XX<X<X<X<X<X<X<X<X<X<X<X<X<X<X<X<X<X<X<X<X<X",
"<X<X<X<X<X<X<X<X<X<X<X*XL.P.P.P.P.P.P.P.P.P.P.L.&X<X<X<X<X<X<X<X<X<X<X<X<X<XW.F 9 7 XX<X,X<X<X<X<X<X<X<X<X<X<X<X<X<X<X<X<X<X<X<X",
"<X<X<X<X<X<X<X:X{.{.}.L.A.D.D.D.D.D.D.D.D.D.D.D.P.&X<X<X<X<X<X<X<X<X<X<X<X^.G 7 l 8 XX<X<X<X<X<X<X<X<X<X<X<X<X<X<X<X<X<X<X<X<X<X",
"<X<X<X<X<X<X,X{.G.G.G.D.Z.Z.Z.Z.Z.Z.Z.Z.Z.Z.Z.Z.Z.L.:X<X<X<X<X<X<X<X-XOXOXh 8 l Z 8 XX<X<X<X<X<X<X<X<X<X<X<X<X<X<X<X<X<X<X<X<X<X",
"<X<X<X<X1X<X~.G.H.Z.Z.Z.Z.Z.Z.Z.Z.Z.Z.Z.Z.Z.Z.A.Z.D.K.<X<X<X<X<X,X<XR., 9 9 l  .c 8 '.<X<X<X<X<X<X<X<X<X<X<X<X<X<X<X<X<X<X<X<X<X",
"<X<X<X<X1XP.K.H.Z.Z.Z.Z.Z.Z.Z.Z.Z.Z.Z.Z.Z.Z.Z.Z.Z.D.L.<X<X<X<X<X<XN.f a a z Z  .z 7 @X<X<X<X<X<X<X<X<X<X<X<X<X<X<X<X<X<X<X<X<X<X",
"<X<X<X:X!.K.D.D.Z.Z.Z.Z.Z.Z.Z.Z.Z.Z.Z.Z.Z.Z.Z.Z.Z.Z.G.[.2X<X<X<XV.g t k 9 a s k z l ( ).<X<X<X<X<X<X<X<X<X<X<X<X<X<X<X<X<X<X<X<X",
"<X<X<X&XD.G.D.Z.Z.Z.Z.Z.Z.Z.A.Z.Z.Z.Z.Z.Z.Z.Z.Z.Z.Z.Z.F.2X@X!.W.9 t c z s s y s ` X., V.<X,X<X<X<X<X<X<X<X<X<X<X<X<X<X<X<X<X<X<X",
"<X<X<X|.Z.Z.Z.Z.Z.Z.Z.Z.Z.- - - Z.Z.Z.Z.Z.Z.Z.Z.Z.Z.Z.! 1XV.< 8 a k z z Z  .s s  .X.r Y.<X<X<X<X<X<X<X<X<X<X<X<X<X<X<X<X<X<X<X<X",
"<X<X}.G.A.Z.Z.Z.Z.Z.Z.D.= X X . $ D.Z.Z.Z.Z.Z.Z.Z.Z.Z.: 1XT.7 f 9 a y y a z z z ` X.r Y.<X<X<X<X<X<X<X<X<X<X,X<X<X,X<X<X<X<X<X<X",
"<X<X}.G.Z.Z.Z.Z.Z.Z.Z.* + . = @ . # Z.Z.Z.Z.Z.Z.Z.Z.Z.Z.^ g y z z a a z l z z z  .X.7 C.<X<X<X<X<X<X<X<X<X<X<X<X<X<X>X~ L ~ ~ L ",
"<X<X}.G.Z.Z.Z.Z.Z.Z.A.$ . & Z.= @ X Z.Z.Z.Z.Z.Z.Z.Z.Z.Z.R e d  .z k z z X.z z ` ` X.t Y.<X,X<X<X<X<X<X<XoXV.Y.Y.Y.Y.B.u u u u j ",
"<X<X}.G.Z.Z.Z.Z.Z.Z.D.* $ D.Z.D.= # Z.Z.Z.Z.Z.Z.Z.Z.Z.Z.J.R u z z Z Z z Z z z ` z c 7 Y.<X<XOX'.XX'.`.@Xn.< t r r 7 u X.X.X.X.l ",
"<X<X}.G.Z.Z.Z.Z.Z.Z.Z.Z.Z.Z.Z.Z.Z.Z.Z.Z.Z.Z.Z.Z.Z.Z.Z.Z.A.E t f z  .z z z ` `  .x f 7 V.<X-Xm 7 8 7 8 8 y s X.X.X.X.X.z `  .l 9 ",
",X<X}.G.H.D.Z.Z.Z.Z.Z.Z.Z.Z.Z.Z.Z.Z.Z.Z.Z.Z.Z.Z.Z.Z.Z.Z.Z.Z.T y 9 l  .z  . .k y y 9 9 g F o.S z z z z c z z Z Z z `  . .`  .l y ",
"<X<X:X{.K.Z.c.v.Z.Z.Z.Z.Z.Z.Z.Z.Z.Z.Z.Z.Z.Z.Z.Z.Z.Z.Z.Z.Z.S.Q x l z z z s s y a l l l l j `  . . .`  .` ` ` z z  .z a s s s a y ",
"<X<X<X:X= Z.Z.Z.Z.Z.Z.Z.Z.Z.Z.Z.Z.Z.Z.Z.Z.Z.Z.Z.Z.Z.Z.Z.A.! B l S Z z k 9 a s l  . . .X. .z z z z z z z Z z  .z l s s s s s s y ",
"<X<X,XU.. = - - Z.Z.Z.Z.Z.Z.Z.Z.Z.Z.Z.Z.Z.Z.Z.Z.Z.Z.Z.b.v.B t 9 z z s y a z  . .Z z Z z ` ` z ` z z  .z z z z ` s s  . . . .k y ",
",X<XK.  o X . # Z.Z.Z.Z.Z.Z.Z.Z.Z.Z.Z.Z.Z.Z.Z.Z.Z.A.b.| Z X.v y z d 9 a  .` z ` ` z z  .z z z Z Z ` c Z ` z z z Z `  . . .k 9 y ",
"<XG.+ . X X . # D.Z.Z.Z.Z.Z.Z.Z.Z.Z.Z.v.S.b.J J J J D z c | A 8 %.$.5 A c z z ` z ` Z c Z z Z z z Z ` Z Z ` z s a a a a h , L %X",
"G.@ . o X + + # * Z.Z.Z.Z.Z.Z.Z.Z.Z.Z.c.Q F _ | _ _ ` z C O.9.3.;.1.-.O.| z c Z z z z ` ` z ` z ` c ` z z z z y s k k l 7 / XX<X",
"  . + + o @ @ @ @ Z.Z.Z.Z.Z.Z.Z.A.Z.Z.W G _ S l  . .Z Z } 8.i.i.w.;.,.:.I c  .z z  .z ` c  .c  .` z c  .z z z s z  .l c P `.<X,X",
"o X X o # % @ @ $ Z.Z.Z.Z.Z.Z.v.v.v.Z.D _ S c p v [ ] ] j.a.p.a.a.w.;.>.,.N ` z z ' z Z z z ` z Z z Z z z z z z Z k 9 9 %X<X<X<X",
"X @ @ @ + + o # Z.Z.Z.Z.A.A.c.H ` D D X.k q a g.p.h.h.h.a.a.a.a.a.t.a.r.:.>.U ..C C ' z ` z ` z Z z  .Z ` z y y f y 7 7 OX<X<X<X",
"X o X $ }.{.{.P.Z.S.S.Q F G G D _ ` ` C O.s.7.a.a.a.a.a.a.a.a.a.a.a.a.a.e.,.=.&.&.%.M ..' z z z ` z ` s s a 9 f , ( +X).>X<X<X<X",
"H.H.G.L.<X<X<X#X- R R F _ _ _ ` z z z O.d.i.a.a.a.a.a.a.a.a.a.a.a.a.a.a.a.e.,.<.,.1.*.M C ` `  .z Z c k s s k y / `.<X<X<X<X<X<X",
"<X<X<X<X<X,X<X}.T | _ ` Z Z S c z z C g.u.a.t.a.a.a.a.a.a.a.z.a.a.a.a.a.a.a.e.>.;.;.1.*.v ' ` ' ` z  .z z z z 7 `.<X,X<X<X<X<X<X",
"<X,X1X<X<X<X<X(.r S Z S  .z z Z z ` z d.a.a.a.a.a.a.a.a.a.a.a.a.a.a.a.a.a.a.a.e.:.>.;.,.=.z z z z Z Z a 9 a f 7 (.<X<X<X<X<X<X<X",
"<X<X<X<X<X<X<X/.7 X.z ` c Z z ` C { g.p.a.a.a.a.a.a.a.a.a.a.a.a.a.a.a.a.a.a.a.a.t.a.,.:.:.-.[ s a a a c l 9 8 XX,X<X<X<X<X<X<X<X",
"<X<X<X<X<X<X<X).7 S z ` z ` Z ' | { a.a.a.a.a.a.a.a.a.a.a.a.a.a.a.a.a.a.a.a.a.a.a.z.r.e.w.:.M A k k k u , F !.<X<X<X<X<X<X<X<X<X",
"<X<X<X<X<X<X<X).7 X.z Z Z ` z z C { p.a.a.a.a.a.a.a.a.a.a.a.a.a.a.a.a.a.a.a.a.a.a.a.a.i.t.0.O.I } | | m.n.R.<X<X<X<X<X<X<X<X<X<X",
"<X<X<X<X<X<X<X/.7 X.z z ` z z Z z { a.a.a.a.a.a.t.a.a.a.a.a.a.a.a.a.a.a.a.a.a.a.a.a.a.a.a.a.w.1.%.' ] +X<X,X=X-X=X>X<X<X<X<X<X<X",
"<X<X<X<X<X<X<X).8 S ` z  .z  .z C [ p.a.a.a.a.a.a.a.a.a.a.a.a.a.a.a.a.a.a.a.a.a.a.a.a.a.a.a.a.0.$.:.<.n a f h g 8 V.<X<X<X<X<X<X",
"<X<X<X<X<X<X<X^.< s z ` z ` c C +.g.a.a.a.a.a.a.a.a.a.a.a.a.a.a.a.a.a.a.a.a.a.a.a.a.t.a.t.0.>.e.u.e.I v l l l x t m / / ^ ( ^ ^ ",
"<X<X<X<X<X<X<X$XN.f l ` z z ' C @.u.a.a.a.a.a.a.a.a.a.a.a.a.a.a.a.a.a.a.a.a.a.a.a.a.a.r.0.:.y.8.6.x.| |  . . . .l s u u u t 7 7 ",
"<X<X<X<X<X<X<X<X<Xf j X.z z  .C O.i.a.a.a.a.a.a.a.a.a.a.a.a.a.a.a.a.a.a.a.a.a.a.a.a.i.e.>.0.j.+.A x `  .` z  .z Z Z S z S k 9 9 ",
"<X<X<X<X<X<X<X<X=Xh l ` z Z Z C @.a.a.a.a.a.a.a.a.a.a.a.a.a.a.a.t.a.a.a.a.a.a.z.a.a.a.a.a.p.[ C c c ` ` ' ` z z Z k 9 9 a a f h ",
"<X<X<X<X<X<X<X<X=Xy x X.z ' C 5.a.a.a.a.a.t.a.a.a.a.a.a.a.a.a.a.a.a.a.a.a.a.a.a.a.a.z.a.d.[ ' ` z z a z X.` z d f f f f 7 2 H >X",
"<X<X<X<X<X<X<X<X,X(.P j  .c A 9.i.a.a.a.a.a.a.a.a.a.a.a.a.a.a.a.a.a.a.a.a.a.a.a.a.a.a.a.f...` ' ` z l s s s s f 7 7 7 0 E./.`.<X",
"<X<X<X<X<X<X<X<X<X<X^ r c c O.d.a.a.a.a.a.a.a.a.a.t.a.a.a.a.a.a.a.a.a.a.a.a.a.a.a.a.a.f.x.` ` l k l l a 9 8 8 8 ^ N.M.M.E.-X<X<X",
"<X<X<X<X<X<X<X<X<X<XM.f a c r.a.a.a.a.a.a.a.a.a.a.a.a.a.a.a.a.a.a.a.a.a.a.a.a.a.a.a.i.2.A c z d 9 a 9 y g F F g oX<X<X<XG R.<X<X",
"<X<X<X<X<X<X<X<X<X<X<XT., h j.a.t.a.a.a.a.a.a.a.a.a.a.a.a.a.a.a.a.a.a.a.a.a.a.a.p.a.u.3.q f f 9 8 8 y , Y.<X,X,X<X<X,X<X<X<X<X<X",
"<X<X<X<X<X<X<X<X<X<X<X;XW.7 4 n 2.i.a.a.a.a.a.a.a.a.a.a.a.a.a.a.a.a.a.t.a.I b n Y Y I b 7 7 < C.$X+XOX+X=X<X<X<X<X<X<X<X<X<X<X<X",
"<X<X<X<X<X<X<X<X<X<X,X<X;XT.Q.V 3 4.a.i.a.a.a.a.a.a.a.a.a.a.a.a.a.a.a.i.a.4.3.5 q 7 0 L Q.R.Y.%X<X<X<X<X<X<X<X<X<X<X<X<X<X<X<X<X",
"<X<X<X<X<X<X<X<X<X<X<X<X<X<X<XW.V y 7.s.7.g.a.a.a.a.a.a.a.a.a.a.a.a.j.7.s.d.j.3.d / L /.<X<X<X<X,X<X<X<X<X<X<X<X<X<X<X<X<X<X<X<X",
"<X<X<X<X<X<X<X<X<X<X<X<X<X<X<X<X).y h a q Y a.k.z.z.z.z.p.z.z.z.z.a.3.w f d w 8 G <X<X<X,X<X<X<X<X<X<X<X<X<X<X<X<X<X<X<X<X<X<X<X",
"<X<X<X<X<X<X<X<X<X<X<X<X<X<X<X<X>X=X=X<XN., p i i 1 i p 3 3 3 i i 3 , F =X,Xv.; ,X:X<X<X<X<X<X<X<X<X<X<X<X<X<X<X<X<X<X<X<X<X<X<X",
"<X<X<X<X<X<X<X<X<X<X<X<X<X<X<X<X<X<X<X<X$X/.(./._.].^.O E.]._./.(.(./.'.<X<XG.- <X<X<X<X<X<X<X<X<X<X<X<X<X<X<X<X<X<X<X<X<X<X<X<X",
"<X<X<X<X<X<X<X<X<X<X<X<X<X<X<X<X<X<X<X<X<X<X<X<X|.~.I.% I.~. X<X<X<X<X<XL.P.* & P.P.:X<X<X<X<X<X<X<X<X<X<X<X<X<X<X<X<X<X<X<X<X<X",
"<X<X<X<X<X<X<X<X<X<X<X<X<X<X<X<X<X<X<X<X<X<X>X&X* o $ @ $ o = <X,X<X,X[.X $ # # $ X P.:X<X<X<X<X<X<X<X<X<X<X<X<X<X<X<X<X<X<X<X<X",
"<X<X<X<X<X<X<X<X<X<X<X<X<X<X<X<X<X<X<X<X<X<X:X& o H.:X@ 2XH.= <X,X<XI.o @ >XD.c.<X# X K.<X,X<X<X<X<X<X<X<X<X<X<X<X<X<X<X<X<X<X<X",
"<X<X<X<X<X<X<X<X<X<X<X<X<X<X<X<X<X<X<X<X<X<X,X+ I.P.& X 2XG.& <X<X<X&X|.*XZ.+ - <X|.|.&X<X<X<X<X<X<X<X<X<X<X<X<X,X<X<X<X<X<X<X<X",
"<X<X<X<X<X<X<X<X<X<X<X<X<X<X<X<X<X<X<X<X<X<X<XI.,XP.X L.,X{.~.<X<X<X<X<X<X# = }.<X<X<X<X<X<X<X<X<X<X<X<X<X<X<X<X<X<X<X<X<X<X<X<X",
"<X<X<X<X<X<X<X<X<X<X<X<X<X<X<X<X<X<X<X<X<X<X<X<X<X[.D.<X<X<X<X<X<X<X<X<X<XD.}.<X,X<X<X<X<X<X<X<X<X<X<X<X<X<X<X<X}. X<X<X<X<X<X<X",
"<X<X<X<X<X<X<X<X<X<X<X<X<X<X<X<X<X<X<X<X<X<X<X<X<X<X<X<X<X,X<X<X<X<X<X<X<X<X<X<X<X<X<X<X<X<X<X<X<X<X<X<X<X<X<X<X& = <X<X<X<X<X<X"
};
