/* XPM */
static char *smile_monkey1710671793[] = {
/* columns rows colors chars-per-pixel */
"64 64 151 2 ",
"   c #551D00",
".  c #562200",
"X  c #5B2400",
"o  c #5E2A02",
"O  c #612C05",
"+  c #622F08",
"@  c #65320C",
"#  c #68350F",
"$  c #673510",
"%  c #693712",
"&  c #6B3915",
"*  c #6E3D1A",
"=  c #713E1A",
"-  c #71411E",
";  c #754523",
":  c #794725",
">  c #764826",
",  c #794927",
"<  c #774A28",
"1  c #7B4D2C",
"2  c #7E502F",
"3  c #7D5131",
"4  c #825435",
"5  c #8C5337",
"6  c #835738",
"7  c #845A3B",
"8  c #895B3D",
"9  c #865E41",
"0  c #8C5E40",
"q  c #995E45",
"w  c #866042",
"e  c #8B6245",
"r  c #8B6448",
"t  c #8E684C",
"y  c #916447",
"u  c #936649",
"i  c #94694D",
"p  c #946D52",
"a  c #996D52",
"s  c #957157",
"d  c #9C7056",
"f  c #967359",
"g  c #9B755B",
"h  c #9A785F",
"j  c #A76A55",
"k  c #AE6E5B",
"l  c #A0755C",
"z  c #A4785F",
"x  c #9D7C64",
"c  c #A57A62",
"v  c #A97E66",
"b  c #B37462",
"n  c #BA7A6A",
"m  c #A2836D",
"M  c #AD836C",
"N  c #A58771",
"B  c #AF8670",
"V  c #A78973",
"C  c #AA8E79",
"Z  c #B08771",
"A  c #B38A74",
"S  c #B68E79",
"D  c #AD927D",
"F  c #BA927D",
"G  c #C68476",
"H  c #C78578",
"J  c #C88679",
"K  c #CD897E",
"L  c #AF9480",
"P  c #B09682",
"I  c #BC9481",
"U  c #B29885",
"Y  c #BF9885",
"T  c #B49C8A",
"R  c #BB9D8B",
"E  c #B8A08F",
"W  c #BBA494",
"Q  c #BFA999",
"!  c #CE8B80",
"~  c #C09683",
"^  c #C19A87",
"/  c #C49D8B",
"(  c #D79189",
")  c #DA958D",
"_  c #DF9891",
"`  c #E79F9A",
"'  c #C6A190",
"]  c #CAA493",
"[  c #C1AD9E",
"{  c #CEA999",
"}  c #D1AC9D",
"|  c #EBA39F",
" . c #D4AFA1",
".. c #C5B1A3",
"X. c #CCB3A5",
"o. c #C9B7AA",
"O. c #CBBAAD",
"+. c #D6B1A3",
"@. c #D8B4A6",
"#. c #DAB6A9",
"$. c #DDB9AD",
"%. c #CEBDB1",
"&. c #DFBCB0",
"*. c #E2BEB3",
"=. c #D0C0B5",
"-. c #D3C5BA",
";. c #D6C8BE",
":. c #E4C1B6",
">. c #E8C2B6",
",. c #E6C4BA",
"<. c #E9C6BC",
"1. c #EAC8BE",
"2. c #D7CAC1",
"3. c #D9CCC3",
"4. c #DCD0C7",
"5. c #DDD2CA",
"6. c #E5CBC3",
"7. c #ECCBC2",
"8. c #F0CFC6",
"9. c #EDD0C7",
"0. c #E2D4CE",
"q. c #EED2CA",
"w. c #F1D0C7",
"e. c #F3D2CA",
"r. c #E2D7D0",
"t. c #EED7D0",
"y. c #E4DAD3",
"u. c #EBDAD4",
"i. c #E7DFD9",
"p. c #F7D7D0",
"a. c #F8D7D0",
"s. c #F2DBD5",
"d. c #FADAD3",
"f. c #F2DED8",
"g. c #FCDED8",
"h. c #E9E2DD",
"j. c #F4E2DD",
"k. c #FFE0DA",
"l. c #EDE6E1",
"z. c #EDE8E4",
"x. c #F8E5E0",
"c. c #F4EAE6",
"v. c #FBE9E5",
"b. c #F2EDEA",
"n. c #F9EEEB",
"m. c #F4F0EE",
"M. c #FAF1EE",
"N. c #F6F4F1",
"B. c #FAF6F4",
"V. c #FAF8F7",
"C. c #FFFFFF",
/* pixels */
"C.C.C.C.C.C.C.C.C.C.C.C.C.C.C.C.C.C.C.C.C.C.C.C.C.C.C.V.V.C.C.C.C.C.C.C.C.C.C.C.C.V.V.C.V.C.C.C.C.C.C.C.C.C.C.C.C.C.C.C.C.C.C.C.",
"C.C.C.C.C.C.C.C.C.C.C.C.C.C.C.C.C.C.C.C.C.C.C.C.C.C.C.C.C.C.h.i f f f f f f f p m C.C.C.C.C.C.C.C.C.C.C.C.C.C.C.C.C.C.C.C.C.C.C.",
"C.C.C.C.C.C.C.C.C.C.C.C.C.C.C.C.C.C.C.C.C.C.C.C.C.C.V.Q W [ m X o O O O O O o o % E Q W O.C.C.C.C.C.C.C.C.C.C.C.C.C.C.C.C.C.C.C.",
"C.C.C.C.C.C.C.C.C.C.C.C.C.C.C.C.C.C.C.C.C.C.C.C.h.i.=.o o X + & & & & & % & & & % o o . 1 h.V.C.C.C.C.C.C.C.C.C.C.C.C.C.C.C.C.C.",
"C.C.C.C.C.C.C.C.C.C.C.C.C.C.C.C.C.C.C.C.C.C.V.C.h o & & & & & % % % % % % % % % % & & * % & l.C.V.C.C.C.C.C.C.C.C.C.C.C.C.C.C.C.",
"C.C.C.C.C.C.C.C.C.C.C.C.C.C.C.C.C.C.C.C.V.C.C.t * # % % % & % % % % % & % % % % % % & % % & ; 3.C.C.C.C.C.C.C.C.C.C.C.C.C.C.C.C.",
"C.C.C.C.C.C.C.C.C.C.C.C.C.C.C.C.C.C.C.V.C.b.m % @ & % % & % & % % % % % % % % % & % % % % & O w o.C.C.C.C.C.C.C.C.C.C.C.C.C.C.C.",
"C.C.C.C.C.C.C.C.C.C.C.C.C.C.C.C.C.C.C.C.z.L X & % @ # # # @ # % % % % % % % % % % % % % % % = . h C.V.C.C.C.C.C.C.C.C.C.C.C.C.C.",
"C.C.C.C.C.C.C.C.C.C.C.C.C.C.C.C.C.C.V.C.N . * % - ; ; ; ; ; - % % % % % % % % % % % % & % & & + x V.V.C.C.C.C.C.C.C.C.C.C.C.C.C.",
"C.C.C.C.C.C.C.C.C.C.C.C.C.C.C.C.C.C.C.t % & & o F 1.:.:.:.7.^ o * % % % % % & % @ @ @ @ @ @ # % % 6 C.C.C.C.C.C.C.C.C.C.C.C.C.C.",
"C.C.C.C.C.C.C.C.C.C.C.C.C.C.C.C.C.C.C.r O % @ Y :.7.1.1.1.1.:.^ # # & & % @ X 4 { ] ' ] ] ' ; # @ < V.C.V.C.C.C.C.C.C.C.C.C.C.C.",
"C.C.C.C.C.C.C.C.C.C.C.C.C.C.C.C.C.N.W 1 + : M 1.7.1.w.w.w.1.7.1.M : @ @ @ g c Y g.e.p.e.w.8.- @ @ 3 C.C.C.C.C.C.C.C.C.C.C.C.C.C.",
"C.C.C.C.C.C.C.C.C.C.C.C.C.C.C.C.C.l.O # @ 8 a.<.7.&.] { ] $.7.,.d.e & 8 6 *.d.,.] { ] #.1.,.i - @ < 5.5.5.5.0.C.C.C.C.C.C.C.C.C.",
"C.C.C.C.C.C.C.C.C.C.C.C.C.C.C.C.C.l.= & @ 8 7.<.w.S O & O B w.<.8.7 l d.1.<.9.J + % o z w.,.e.a o & @ % # @ & z.C.V.C.C.C.C.C.C.",
"C.C.C.C.C.C.C.C.C.C.C.C.C.C.C.C.C.z.* O z <.<.w.i a :.@.:.d u w.1.&.&.1.<.e.l y :.@.:.v 8 7.e.a o & % @ + @ & 3 ; D C.C.C.C.C.C.",
"C.C.C.C.C.C.C.C.C.C.C.C.C.C.C.V.C.h.= O B e.,.e.8 u d.1.d.a 4 e.<.7.1.1.<.e.u 8 p.<.a.v , 7.w.i + & # v / c o % . V C.V.C.C.C.C.",
"C.C.C.C.C.C.C.C.C.C.C.C.C.C.C.C.C.b.* o M e.,.e.8 u e.:.e.d 4 e.<.1.<.1.<.e.u 7 e.:.e.c : 7.e.i o & $ +.g.#.u = + t 2.C.C.C.C.C.",
"C.C.C.C.C.C.C.C.C.C.C.C.C.C.C.b.z.5.* o M e.,.e.i l e.>.e.z y w.<.1.1.1.1.w.l i e.<.e.M 8 8.w.a @ & # ] 7.1.7.: % O > C.C.C.C.C.",
"C.C.C.C.C.C.C.C.C.C.C.C.C.V.C.m + - * + M e.1.1.<.<.1.1.1.<.<.1.1.1.1.1.1.1.<.<.1.1.1.1.<.<.e.i @ & @ { 8.1.*.- # @ 6 C.C.C.C.C.",
"C.C.C.C.C.C.C.C.C.C.C.C.C.C.x - @ o + . v e.,.1.1.1.1.1.1.1.1.1.1.1.1.1.1.1.1.1.1.1.1.1.1.>.w.a o & @ { 8.1.,.+.8 o 6 C.C.C.C.C.",
"C.C.C.C.C.C.C.C.C.C.V.C.N.C # X 1 Z M v { 7.1.1.1.<.1.1.1.<.1.1.1.1.1.<.1.1.1.1.1.1.1.1.1.8.d.a o * @ { 7.<.1.g.p X 6 C.C.C.C.C.",
"C.C.C.C.C.C.C.C.C.C.C.m.W X 8 6 Z g.8.e.7.1.1.1.1.1.1.1.1.1.1.1.1.1.1.1.1.1.1.1.1.1.1.1.*.' } 8 @ & @ { 9.1.,.} 8 o 3 C.C.C.C.C.",
"C.C.C.C.C.C.C.C.C.C.C.P X , &.e.1.<.,.,.<.1.1.1.1.<.:.:.:.<.1.1.1.1.1.1.1.1.1.1.1.1.1.7.{ O @ # % % # { 8.1.*.= # % 9 C.C.C.C.C.",
"C.C.C.C.C.C.C.C.V.C.x O 4 *.,.<.1.1.1.1.1.1.1.1.e.F - , & S e.<.1.1.1.1.1.1.1.1.1.1.,.e.+.# % & % & @ { 7.7.7., . h C.V.C.C.C.C.",
"C.C.C.C.C.C.C.C.C.C.9 6 } 8.<.1.1.1.1.1.1.1.1.<.w.S o % o Z t.,.1.1.1.1.1.1.1.1.1.<.a.' 6 % % % % % @  .k.$.r % C h.C.C.C.C.C.C.",
"C.C.C.C.C.C.C.C.C.C.9 z g.,.1.1.1.8.1.1.1.1.1.7.a.F O * o Z e.<.1.<.1.8.1.1.1.1.1.1.] 8 o & & % % % % c Y a X X -.C.V.C.C.C.C.C.",
"C.C.C.C.C.C.C.C.C.C.9 a e.<.1.7.*.@.1.1.1.1.<.+.$.M + & = J 8.<.<.1.*.@.1.1.1.1.1.8.4 o & % % % % % % + & 2 7 < ;.C.V.C.C.C.C.C.",
"C.C.C.C.C.C.C.C.V.C.9 l e.<.,.e.F - 1.1.1.9.,.> # % % % +.e.1.1.1.a.B , 7.1.1.1.1.7.8 @ & % % % & & & o T C.V.C.C.C.C.C.C.C.C.C.",
"C.C.C.C.C.C.C.C.C.C.9 d e.1.,.e.S X 6 4 , : < o j ( n O ; < 1 4 4 4 # , 7.1.1.1.1.1.$.l + & % & O * r.r.b.C.C.C.C.C.C.C.C.C.C.C.",
"C.C.C.C.C.C.C.V.l.v.4 c d.1.1.7.@.c O o 5 b k b ( | _ b k b y O   i Z F 1.1.1.1.1.<.a.M O & % @ 9 O.C.C.N.f.z.f.B.C.C.C.C.C.C.C.",
"C.C.C.C.C.C.V.l.6.9.4 9 +.7.1.1.8.<.u & q K G G ) ` ) J G J l # 8 +.d.8.1.1.1.1.1.,.e.M O & & o m C.V.B.p.,.0.,.j.V.C.C.C.C.C.C.",
"C.C.C.C.C.C.l.6.1.y.u o 4 *.,.1.1.<.e.e % & & O b | G @ % - % 1 >.8.,.,.1.1.1.1.1.,.e.M O & & O m C.V.9.6.0.1.r.,.s.C.C.C.C.C.C.",
"C.C.C.C.C.C.j.6.0.1.1.c X , #.6.<.1.1.*.*.*.$.= @ & & + ] ,.*.*.<.1.<.1.1.1.1.1.1.<.w.M O & #   x C.9.6.<.6.0.6.>.s.C.C.C.C.C.C.",
"C.C.C.C.C.C.s.:.6.1.e.:.v O *.d.7.<.1.7.7.7.7.' / / / / *.8.7.1.1.1.1.1.1.1.<.<.1.,.d.A o @ ..3.W p 8 &.e.1.7.c.v.B.C.C.C.C.C.C.",
"C.C.C.C.C.C.n.e.<.7.F } w.P M v ' e.7.1.1.1.1.7.8.8.w.w.7.1.<.1.1.1.1.1.1.<.7.8.8.w.' 4 & P V.C.%.  @ d } 1.1.C.C.C.C.C.C.C.C.C.",
"C.C.C.C.C.C.C.N.7.d.1 0 ,.h.t O 8 #.} :.7.1.1.1.<.1.,.1.1.1.1.<.1.1.1.1.1.7.#.} } @.< % N C.C.b.R @ = . m g.9.r.y.y.h.C.C.C.C.C.",
"C.C.C.C.C.C.C.C.C.C.p @ # @ B.V O & # } w.1.1.1.1.<.<.<.1.<.1.,.1.1.1.1.<.8.a O % & o L C.V.C.x o & = o T C.N.< # @ 4 C.C.C.V.C.",
"C.C.C.C.C.C.C.C.C.C.9 . & & < [ l.y.l.8 = 3 , 1 4 : : 4 1 1 1 4 1 1 1 1 1 4 = + > 5.V.W < 3 7 - % & X %.C.h.1 O o X @ 7 > %.C.V.",
"C.C.C.C.C.C.C.C.C.C.2.f + = . =.C.C.C.5.p o $ + @ + @ @ @ # + o X @ @ @ @ @ % # < C.o.7 o @ + % @ & [ P C p X W ....U X o 7 ..C.",
"C.C.C.C.C.C.C.C.C.V.C.W . * @ C =.-.C.h.c + & & & % & # % @ - i i ; @ # % % % # ; %.1 o & & & @ ; C C.7   * m C.C.C.B.x > . t C.",
"C.C.C.C.C.C.C.C.C.C.C.W & & & @ X ; b.3 o & % % % % & ; , * a a.e.a = , ; & % % % O % & % % & % D C.z.r X s C.V.V.C.C.C.9 X h C.",
"C.C.C.C.C.C.C.C.C.C.C.C.3.o & & & & - & & % % % % + : :.:.:.:.1.1.:.:.*.:.1 @ % % & & % % * X Q C.z.; * o r C.C.C.C.C.C.9 . g C.",
"C.C.C.C.C.C.C.C.C.C.C.C.V.;.& + & % # % % % % & O y  .1.7.1.1.1.1.1.7.7.1.; o & % % % & # o ..C.r.7 * . x l.C.C.C.C.C.C.9 X f C.",
"C.C.C.C.C.C.C.C.C.C.C.C.C.C.[ 3 o @ % % % % % & O l d.<.1.<.1.1.1.1.1.1.,.S 4 # & & + O ; W C.5.p o % x 0.C.C.C.C.C.C.C.w   p C.",
"C.C.C.C.C.C.C.C.C.C.C.C.C.V.C.T 7 9 % % % & % & O a e.<.1.<.1.1.1.1.1.1.,.d.l o & # 7 9 x l.i.r . & @ h.C.V.C.C.C.C.V.r.3 * L C.",
"C.C.C.C.C.C.C.C.C.C.C.C.C.C.C.C.C.b.- % % % % & O l e.<.1.1.1.1.1.1.1.1.<.8.d O & + 3.C.3.o @ & * * % 5.C.C.C.C.C.C.h.& O [ C.C.",
"C.C.C.C.C.C.C.C.C.C.C.C.C.C.C.C.C.V.b.7 + & % & O a 8.<.1.1.1.1.1.1.1.1.<.8.d O & O h.%.& = * X p N.h.V.C.C.C.C.C.C.i.o =.V.C.C.",
"C.C.C.C.C.C.C.C.C.C.C.C.C.C.C.C.C.C.C.r + & % & O l d.<.1.1.1.1.1.1.1.1.<.d.l O & # g 9 O O . v i.C.C.C.C.C.C.C.C.C.N.o.V.C.C.C.",
"C.C.C.C.C.C.C.C.C.C.C.C.C.C.C.C.C.C.C.7 o & % & @ 7 ' 1.1.1.1.1.1.1.1.1.7.' 7 @ & & o X ; m h y.C.V.C.C.C.C.C.C.C.C.C.C.C.C.C.C.",
"C.C.C.C.C.C.C.C.C.C.C.C.C.C.C.C.C.C.C.h & % % % & O ; 1.1.<.1.1.1.1.1.<.#.- + & % % 1 < f C.C.C.V.C.C.C.C.C.C.C.C.C.C.V.C.C.C.C.",
"C.C.C.C.C.C.C.C.C.C.C.C.C.C.C.C.C.C.V.C.U o & & & @ 1 7.1.<.<.6.1.,.8.+.& & & & & o ;.C.V.C.V.C.C.C.C.C.C.C.C.C.C.C.C.C.C.C.C.C.",
"C.C.C.C.C.C.C.C.C.C.C.C.C.C.C.C.C.C.C.C.D   * & % % & 8 4 / a.:.,.a./ , % % & @ % 3.B.C.C.C.C.C.C.C.C.C.C.C.C.C.C.C.C.C.C.C.C.C.",
"C.C.C.C.C.C.C.C.C.C.C.C.C.C.C.C.C.C.C.C.5.x o o # % % @ O 4 / e.e.^ 6 O & & @ 3 [ C.C.C.C.C.C.C.C.C.C.C.C.C.C.C.C.C.C.C.C.C.C.C.",
"C.C.C.C.C.C.C.C.C.C.C.C.C.C.C.C.C.C.C.V.C.z.r p > # % % & o 1 { { 1 o & % & o x C.V.C.C.C.C.C.C.C.C.C.C.C.C.C.C.C.C.C.C.C.C.C.C.",
"C.C.C.C.C.C.C.C.C.C.C.C.C.C.C.C.C.C.C.C.C.C.C.C.h O & % = * & @ # & = = & & o f C.C.C.C.C.C.C.C.C.C.C.C.C.C.C.C.C.C.C.C.C.C.C.C.",
"C.C.C.C.C.C.C.C.C.C.C.C.C.C.C.C.C.C.C.C.C.C.V.3 % % % % y.N   @ @   N r.X % & & 7 B.C.C.C.C.C.C.C.C.C.C.C.C.C.C.C.C.C.C.C.C.C.C.",
"C.C.C.C.C.C.C.C.C.C.C.C.C.C.C.C.C.C.C.C.C.C.V.; @ & % X h.l.o.=.%.O.i.C.O.1 # @ > N.C.C.C.C.C.C.C.C.C.C.C.C.C.C.C.C.C.C.C.C.C.C.",
"C.C.C.C.C.C.C.C.C.C.C.C.C.C.C.C.C.C.C.C.C.C.V.< @ % - m z.C.C.C.C.C.C.C.C.3 o % 1 V.C.C.C.C.C.C.C.C.C.C.C.C.C.C.C.C.C.C.C.C.C.C.",
"C.C.C.C.C.C.C.C.C.C.C.C.C.C.C.C.C.C.C.C.C.C.V.< @ @ 7 C.C.V.C.V.C.V.C.C.V.f * # , c.B.B.B.B.C.C.C.C.C.C.C.C.C.C.C.C.C.C.C.C.C.C.",
"C.C.C.C.C.C.C.C.C.C.C.C.C.C.C.C.C.C.C.C.C.C.N.> % @ 7 V.C.C.C.C.C.C.C.C.C.C.N X , *.8.1.1.7.B.C.C.C.C.C.C.C.C.C.C.C.C.C.C.C.C.C.",
"C.C.C.C.C.C.C.C.C.C.C.C.C.C.C.C.n.9.e.u.t.e.7.$.6   1 C.C.C.C.C.C.C.C.C.V.C.x ; &.1.1.0.0.0.9.n.C.C.C.C.C.C.C.C.C.C.C.C.C.C.C.C.",
"C.C.C.C.C.C.C.C.C.C.C.C.C.C.C.C.c.*.6.5.6.,.1.u.' v R C.C.C.C.C.C.C.C.C.C.C.X.~ e.6.1.,.6.5.:.v.C.C.C.C.C.C.C.C.C.C.C.C.C.C.C.C.",
"C.C.C.C.C.C.C.C.C.C.C.C.C.C.C.C.n.p.l.r.6.1.7.5.9.e.p.C.C.C.C.C.C.C.C.C.C.C.j.8.1.r.7.7.s.i.t.M.C.C.C.C.C.C.C.C.C.C.C.C.C.C.C.C.",
"C.C.C.C.C.C.C.C.C.C.C.C.C.C.C.C.C.C.C.e.,.6.0.r.6.,.7.C.C.C.C.C.C.C.C.C.C.C.s.>.6.r.<.j.C.C.C.C.C.C.C.C.C.C.C.C.C.C.C.C.C.C.C.C."
};
