/* XPM */
static char *result[] = {
/* columns rows colors chars-per-pixel */
"64 64 107 2 ",
"   c gray19",
".  c #313131",
"X  c #323232",
"o  c gray20",
"O  c #343434",
"+  c #353535",
"@  c gray21",
"#  c #373737",
"$  c gray22",
"%  c #393939",
"&  c #3A3A3A",
"*  c gray23",
"=  c gray24",
"-  c #3E3E3E",
";  c #3F3F3F",
":  c gray25",
">  c #414141",
",  c gray26",
"<  c #434343",
"1  c #444444",
"2  c gray27",
"3  c #464646",
"4  c gray28",
"5  c #484848",
"6  c #494949",
"7  c gray29",
"8  c #4B4B4B",
"9  c #4C4C4C",
"0  c gray30",
"q  c #4E4E4E",
"w  c gray31",
"e  c #505050",
"r  c #515151",
"t  c gray32",
"y  c #535353",
"u  c gray33",
"i  c #555555",
"p  c #565656",
"a  c gray34",
"s  c #585858",
"d  c gray35",
"f  c #5A5A5A",
"g  c #5B5B5B",
"h  c gray36",
"j  c #5D5D5D",
"k  c gray37",
"l  c #5F5F5F",
"z  c #606060",
"x  c gray38",
"c  c #626262",
"v  c gray39",
"b  c #646464",
"n  c #656565",
"m  c gray40",
"M  c #676767",
"N  c #686868",
"B  c DimGray",
"V  c #6A6A6A",
"C  c gray42",
"Z  c #6C6C6C",
"A  c #6D6D6D",
"S  c gray43",
"D  c #6F6F6F",
"F  c gray44",
"G  c #717171",
"H  c #727272",
"J  c gray45",
"K  c #747474",
"L  c gray46",
"P  c #767676",
"I  c #777777",
"U  c gray47",
"Y  c #797979",
"T  c gray48",
"R  c #7B7B7B",
"E  c #7C7C7C",
"W  c gray49",
"Q  c #7E7E7E",
"!  c gray50",
"~  c #808080",
"^  c #818181",
"/  c gray51",
"(  c #838383",
")  c #848484",
"_  c gray52",
"`  c #868686",
"'  c gray53",
"]  c #888888",
"[  c #898989",
"{  c gray54",
"}  c #8B8B8B",
"|  c gray55",
" . c #8D8D8D",
".. c #8E8E8E",
"X. c gray56",
"o. c #909090",
"O. c gray57",
"+. c #929292",
"@. c #939393",
"#. c gray58",
"$. c #959595",
"%. c gray59",
"&. c #979797",
"*. c #989898",
"=. c #9A9A9A",
"-. c #9B9B9B",
";. c None",
/* pixels */
";.;.;.;.;.;.;.;.;.;.;.;.;.;.;.;.;.;.;.;.;.;.;.;.;.;.;.;.;.;.;.;.;.;.;.;.;.;.;.;.;.;.;.;.;.;.;.;.;.;.;.;.;.;.;.;.;.;.;.;.;.;.;.;.",
";.;.;.;.;.;.;.;.;.;.;.;.;.;.;.;.;.;.;.;.;.;.;.;.;.;.;.;.;.;.;.;.;.;.;.;.;.w ;.;.;.;.;.;.;.;.;.;.;.;.;.;.;.;.;.;.;.;.;.;.;.;.;.;.",
";.;.;.;.;.;.;.;.;.;.;.;.;.;.;.;.;.;.;.;.;.;.;.;.;.;.;.;.;.;.;.;.;.;.;.;.;.w w ;.;.;.;.;.;.;.;.;.;.;.;.;.;.;.;.;.;.;.;.;.;.;.;.;.",
";.;.;.;.;.;.;.;.;.;.;.;.;.;.;.;.;.;.;.;.;.;.;.;.;.;.;.;.w w w q q q q q q q w q ;.;.;.;.;.;.;.;.;.;.;.;.;.;.;.;.;.;.;.;.;.;.;.;.",
";.;.;.;.;.;.;.;.;.;.;.;.;.;.;.;.;.;.;.;.;.;.;.;.w w w q q q q w r r r r r w q w r w ;.;.;.;.;.;.;.;.;.;.;.;.;.;.;.;.;.;.;.;.;.;.",
";.;.;.;.;.;.;.;.;.;.;.;.;.;.;.;.;.;.;.;.;.;.w w w w q q q q q t Z F F F S i q f C t q ;.;.;.;.;.;.;.;.;.;.;.;.;.;.;.;.;.;.;.;.;.",
";.;.;.;.;.;.;.;.;.;.;.;.;.;.;.;.;.;.;.;.w q w w w q y n M M M B P M C J l r q u x m i q ;.;.;.;.;.;.;.;.;.;.;.;.;.;.;.;.;.;.;.;.",
";.;.;.;.;.;.;.;.;.;.;.;.;.;.;.;.;.;.;.q w w 0 3 1 q c P Y F S U I b x m j h u 0 r M x i q ;.;.;.;.;.;.;.;.;.;.;.;.;.;.;.;.;.;.;.",
";.;.;.;.;.;.;.;.;.;.;.;.;.;.;.;.;.q q q 9 9 0 ; * a E E K x l I U U M h P U v u u i S M u u ;.;.;.;.;.;.;.;.;.;.;.;.;.;.;.;.;.;.",
";.;.;.;.;.;.;.;.;.;.;.;.;.w w q w e e e , = t Z G ~ $.O.c b K I U U P K I U L J J J P P K G p w q ;.;.;.;.;.;.;.;.;.;.;.;.;.;.;.",
";.;.;.;.;.;.;.;.;.;.Y n q q q 0 f A Z Z N m A P ] $.$.^ G x v I U U U U U I U U U U U U U P S d 0 q q ;.;.;.;.;.;.;.;.;.;.;.;.;.",
";.;.;.;.;.;.;.;.;.;.N f q e k c v M P U U U U U ( [ _ U U C N U I B Z U U U I U U U U I E ' R V c l e ;.;.;.;.;.;.;.;.;.;.;.;.;.",
";.;.;.;.;.;.;.;.;.A a 0 r g T E C j L U U U I I I I I I I U L S P x m U U U U K A A L I R ) G Y Q G t ;.;.;.;.;.;.;.;.;.;.;.;.;.",
";.;.;.;.;.;.;.;.D y w e g T o.( I Y U I U I U T U I U U U U A g J I I U U U U C u u A Y D p p R [ F e q w ;.;.;.;.;.;.;.;.;.;.;.",
";.;.;.;.;.;.;.C i w q k T o.^ Y / ..T I U I T X.^ I U U U I Q [ T I U U U U U L G G P U P J ' A m A = 5 w w ;.;.;.;.;.;.;.;.;.;.",
";.;.;.;.;.;.M s u U A Y | ` | ! E ` } W I I Y / E U J z H U E ( Y I U U U I U Y Y U U I U Y ( ~ F j j 1 2 w ;.;.;.;.;.;.;.;.;.;.",
";.;.;.;.;.N d a F { ' [ ( V Y T G A [ W I U I I U G n l H U I I I U U U U U N z V P U U U I I ..[ V N y 0 q ;.;.;.;.;.;.;.;.;.;.",
";.;.;.;.;.w 7 v X.R | ' D a i D S g L U U U U U U B h L U U U U U U U U U U i 2 f K U U U I I [ #.' i A M y w ;.;.;.;.;.;.;.;.;.",
";.;.;.;.w w : w Y U Y Y I K K [ [ L I U P P I U U P L I U U U U U U U U U U K J L I U U U U U T R J i Z L B t w ;.;.;.;.;.;.;.;.",
";.;.;.w w q C W I I I I I U U Q Q U U Y h r P U I U U U U U I U U U U U U I U U U U U U U I I ] ] P A j a m ~ p = ;.;.;.;.;.;.;.",
";.;.;.8 , 7 G ) U I I ^ ! n K z z U P h y l I U U U U P m A U I I I U U U I U U U U U U U I U / / U U B c S ` I t & . ;.;.;.;.;.",
";.;.w 5 # f F U I U I ) ( k H a a U L r l Y U U U U U P z V R ~ Y U H S I U U I U U U I U U U I I P A L U U R #.I a , o ;.;.;.;.",
";.w q 3 & W / I U I L K L P I P P U T I I U U U U U U I I K Q o.L P M g P U U U I K P U U U U U U G s S U I T O.&.] M = ;.;.;.;.",
"w w 1 + + t C U U I k u j P U U I E o.! I I I I U U U U U b x K 2 n P J I U I U H d S U U U U I I I H P U I U E o.E d V , ;.;.;.",
"w w , @ 1 8 m U U I S B A I U U I Y / T U F l K U U U I I D S D & x Y U U U M n L C J U U U U m m U U U I U I I z e p K n 8 ;.;.",
"q 3 : , w h P ^ U I C D U U U U U I I I U F c K U U I U ( ! J b t C U U U U N M I U U I U U U N N U U U U U U I n h n P Y r . ;.",
"q ; > q r F ] { U I l m U U U U U P G L U U U U I U I U / Q A g K U I U U I U U U U U U U U U U U U I G D H I U { / A I U r . ;.",
"q 0 w t y F U U Y U P P U U U U U G p S U U U U U U U L 6 h U L I U U U U U L L I U U U U I P I U U P h r h I U T z 4 H P t O ;.",
"w q B ( F P v C  .T I U I U U U U F y A U I I U U U U I C F U U U U U U U U p y I U U U U L j C U U I G j d P U I E T f a x f O ",
"; - N @.T U Z G ) Y I U U U U U U K M J I W ) s w z U U U U I U U U U I I U b c I U U U U P N F U U U U S V I U I ! Y 3 V T c O ",
"X . h { Y U F D I I U U U U U U I I U U I Q ' r 2 g U U U U U U U U I T ^ T U U U U I U U U U U I U U I U U U U U U B * ( [ x O ",
"o . t Y U U c z I U U U U U U I Y R U I I U U I P I U U U U U U U U I Q O.W K K I U U L K I U U U U U U U U U U U U Z < ) [ x O ",
"o . t Y U U K K I U U U U U U I ( X.T I U I I U U U U U U U U U U U I U R U c z I U U m h P U U U U U U U U U U U U P H X.] x O ",
"X   g } Y I U U U U U U U U U I E ~ U I U U U U U U U U U U U U U U x r L I D D I U U G S I U U U U U U U I I I U I E  ._ Q c O ",
"o t L ' U I U I I I I U U U I U I I I U U U U U U U U I I I U U U Y m s P ) Q U U U I U U U U U U U U U I E _ T I I Q $.! m 9 o ",
"O V ! I U U I T Q U U F Z I U U U U U U U U U U U U I U Q R I U I A D T ~ ..( H V P U I U U U I U U U U I ! ..R I T ) $.~ e . X ",
"o @ p Y L I I / o.T P d 7 L U U U U U U U U U U U U I Y } ( I U I 9 u ! +.! Y c < D I U U U U U P L I U I U Y U I ( %.&.! e . ;.",
"o > C ` g G U T W I l Z / U I U I U U U I U U U U U U L e x U U I S F Y W Y U J M d S U U U U U C h L U U I I I I T ( $.~ e . ;.",
"o 1 N ! V ) ~ I I I V P ( U I U U F y A U U Y U I U U I F J U U U U U U U U I U P N J U U U U U G B P U U U U U U I Q $.~ e . ;.",
"o w B I T { ^ I U U U U I I U U U F q Z Y F c K U U I U { / I I U U U H c J U I U U U I U U U I U U U I U U U U U I E { W r . ;.",
"o g J U U U U I U U U U U U U K K I I F J N 5 F U I U E Y T R U I U U V 1 Z U U U U U U U U U U U U U U U U U U U I U E Y r . ;.",
"o @ u I P P I U U U U U U U U x x U L 6 d ! } R I I W O.Q ] | U I U U P G P U U U U U U U I I I U U U U U U U U U I W +.! e . ;.",
";.X & 7 d d C U U U U U U U U F F U I N S R ~ Y I I Y ~ T W Q U I U I U U U I U U U U U U L k C U U U U U U U I I I Q $.~ r . ;.",
";.o X + , g c V U U I U U U U U U U U U U I I I U U I I I I I I U U U U U U U U U U U U U I J ~ / U I U U U I U ( U S +.n > X ;.",
";.o o X # C C b S P U U I I I U U P S L U U U U U U U U U U U U U I U U U U U U U I F H U T  .&. .I I U U U I U X.T h X.5   o ;.",
";.o o X # n ' W d K U I U T U I U G s S U U U U U U U U U U U U U U P L I U U U U I j b U U U } } I I U U U I U ..T j X.6 ;.;.;.",
";.;.o X o * b T H I U I Q o.E I U P G P U U U U U U U U U U U U U U N j P U U U U I H K U I I R R U U U U U I U ..T j X.6 ;.;.;.",
";.;.;.X + u A U Y U I I ~ @.M A U I I I I U U U I U K x H U U K x F G C I U U I U Y U U I U U I U Y I v V U T [ $...I h j ;.;.;.",
";.;.;.;.# C T S x L U I W ] n A U T ( _ Q U U U U A a 4 Z U U J y V U U U I U U K z F U U U U U A x K b V U R #.=.X.D $ v ;.;.;.",
";.;.;.;.> v L x > G U K H I U U L P o.#.! D I U Y z - > C U P A d A R E U U J J D 2 M U U U U Y x 5 J U I I R #.+.G 2 O ;.;.;.;.",
";.;.;.;.S < h N u J U m h P U U B f I R s 8 P U P K H G P Y A s F P _ ..U I c l P J P U I P I U L J I U Y U R O.C 3 + ;.;.;.;.;.",
";.;.;.;.;.@ * t D P I H F I U U J D P U S C I I u s H h F ` ` D I U E I h G G F I U U U F h H U U U U { O.{ P b 3 # ;.;.;.;.;.;.",
";.;.;.;.;.;.0 i g ) [ ~ I I I I U Y U I U U U I z v K n J ^ ( P b x C J M / ~ U U U U U H n K U U R [ %.-.o.L y ; ;.;.;.;.;.;.;.",
";.;.;.;.;.;.;.v e [ &...^ ^ ^ R F M P U U U U U U U U U U I I K j s M U T } / I U U U I U Y ! R J F / ) { ` C u ;.;.;.;.;.;.;.;.",
";.;.;.;.;.;.;.;.P Y  .+.o.&.$.( z 2 J U K H I U U U I I I U U I I Y T T U U U I U U U I U W o.( B u u u N S r ;.;.;.;.;.;.;.;.;.",
";.;.;.;.;.;.;.;.;.U E l a @.^ Y K D I U s 0 P U I I U U U I U I U } #. .Y I I U U U U I ! O.~ Y L H G G L L ;.;.;.;.;.;.;.;.;.;.",
";.;.;.;.;.;.;.;.;.;.;.n N ~ Y I U U Y { ^ R { T I I E } E I I I U ~ ( ^ U I U U U U U I T / Y U Y G w x ;.;.;.;.;.;.;.;.;.;.;.;.",
";.;.;.;.;.;.;.;.;.;.;.;.Y I I U U F j B _ -.*.[ W U E } ] ` ^ I I I I I I U I I I I U I U U U m f p @ ;.;.;.;.;.;.;.;.;.;.;.;.;.",
";.;.;.;.;.;.;.;.;.;.;.;.;.;.;.;.;.;.X . M @._ _ J V V C ! O.O.Q Y E R I I I R Q W U U U K C V 7 . X ;.;.;.;.;.;.;.;.;.;.;.;.;.;.",
";.;.;.;.;.;.;.;.;.;.;.;.;.;.;.;.;.;.;.;.;.;.& % $ # # # $ C $...U ] ' Y Y Y ' +. .I K L m % # ;.;.;.;.;.;.;.;.;.;.;.;.;.;.;.;.;.",
";.;.;.;.;.;.;.;.;.;.;.;.;.;.;.;.;.;.;.;.;.;.;.;.;.;.;.;.X - 6 5 < 2 B +.O.+.M 5 5 , > , : ;.;.;.;.;.;.;.;.;.;.;.;.;.;.;.;.;.;.;.",
";.;.;.;.;.;.;.;.;.;.;.;.;.;.;.;.;.;.;.;.;.;.;.;.;.;.;.;.;.;.;.;.;.;.;.;.;.;.;.;.;.;.;.;.;.;.;.;.;.;.;.;.;.;.;.;.;.;.;.;.;.;.;.;.",
";.;.;.;.;.;.;.;.;.;.;.;.;.;.;.;.;.;.;.;.;.;.;.;.;.;.;.;.;.;.;.;.;.;.;.;.;.;.;.;.;.;.;.;.;.;.;.;.;.;.;.;.;.;.;.;.;.;.;.;.;.;.;.;.",
";.;.;.;.;.;.;.;.;.;.;.;.;.;.;.;.;.;.;.;.;.;.;.;.;.;.;.;.;.;.;.;.;.;.;.;.;.;.;.;.;.;.;.;.;.;.;.;.;.;.;.;.;.;.;.;.;.;.;.;.;.;.;.;."
};
