/* XPM */
static char *success1710671793[] = {
/* columns rows colors chars-per-pixel */
"64 64 57 1 ",
"  c #321C00",
". c #362400",
"X c #382600",
"o c #3C2B00",
"O c #3F3100",
"+ c #413302",
"@ c #443A06",
"# c #473D09",
"$ c #483F0A",
"% c #4A420C",
"& c #4D4710",
"* c #4F4911",
"= c #524E15",
"- c #535116",
"; c #565519",
": c #595B1D",
"> c #5C5F20",
", c #5E6223",
"< c #606625",
"1 c #626827",
"2 c #636A29",
"3 c #67702D",
"4 c #69732F",
"5 c #6B7631",
"6 c #6D7A34",
"7 c #707F37",
"8 c #73833A",
"9 c #778A3F",
"0 c #798D41",
"q c #7D9446",
"w c #7D9749",
"e c #7C984B",
"r c #829B4B",
"t c #85A352",
"y c #89A753",
"u c #86A956",
"i c #8CAA56",
"p c #86AC5A",
"a c #8DAE59",
"s c #8DB05B",
"d c #91B35C",
"f c #94B85F",
"g c #9FBB5E",
"h c #A4BE5F",
"j c #96BA61",
"k c #98BE64",
"l c #9AC166",
"z c #9CC568",
"x c #E9E45E",
"c c #C2CF62",
"v c #C6D365",
"b c #CCD464",
"n c #EAE568",
"m c #EEE86A",
"M c #F1E969",
"N c #F8F6C8",
"B c #FFFFFF",
/* pixels */
"BBBBBBBBBBBBBBBBBBBBBBBBBBBBBBBBBBBBBBBBBBBBBBBBBBBBBBBBBBBBBBBB",
"BBBBBBBBBBBBBBBBBBBBBBBBBBBBBBBBBBBBBBBBBBBBBBBBBBBBBBBBBBBBBBBB",
"BBBBBBBBBBBBBBBBBBBBBBBBBBBBBBBBBBBBBBBBBBBBBBBBBBBBBBBBBBBBBBBB",
"BBBBBBBBBBBBBBBBBBBBBBBBBBBBBBBBBBBBBBBBBBBBBBBBBBBBBBBBBBBBBBBB",
"BBBBBBBBBBBBBBBBBBBBBBBBBBBBBBBBBBBBBBBBBBBBBBBBBBBBBBBBBBBBBBBB",
"BBBBBBBBBBBBBBBBBBBBBBBBBBBBBBBBBBBBBBBBBBBBBBBBBBBBBBBBBBBBBBBB",
"BBBBBBBBBBBBBBBBBBBBBBBBBBBBBBBBBBBBBBBBBBBBBBBBBBBBBBBBBBBBBBBB",
"BBBBBBBBBBBBBBBBBBBBBBBBBBBBBBBBBBBBBBBBBBBBBBBBBBBBBBBBBBBBBBBB",
"BBBBBBBBBBBBBBBBBBBBBBBBBBBBBBBBBBBBBBBBBBBBBBBBBBBBBBBBBBBBBBBB",
"BBBBBBBBBBBBBBBBBBBBBBBBBBBBBBBBBBBBBBBBBBBBBBBBBBBBBBBBBBBBBBBB",
"BBBBBBBBBBBBBBBBBBBBBBBBBBBBBBBBBBBBBBBBBBBBBBBBBBBBBBBBBBBBBBBB",
"BBBBBBBBBBBBBBBBBBBBBBBBBBBBBBBBBBBBBBBBBBBBBBBBBBBBBBBBBBBBBBBB",
"BBBBBBBBBBBBBBBBBBBBBBBBBBBBBBBBBBBBBBBBBBBBBBBBBBBBBBBBBBBBBBBB",
"BBBBBBBBBBBBBBBBBBBBBBBBBBBBBBBBBBBBBBBBBBBBBBBBBBBBBBBBBBBBBBBB",
"BBBBBBBBBBBBBBBBBBBBBBBBBBBBBBBBBBBBBBBBBBBBBBBBBBBBBBBBBBBBBBBB",
"BBBBBBBBBBBBBBBBBBBBBBBBBBBBBBBBBBBBBBBBBBBBBBBBBBBBBBBBBBBBBBBB",
"NNNNNNNNNNNNNNNNNNNNNNNNNNNNNNNNNNNNNNNNNNNNNNNNNNNNNNNNNNNNNNNN",
"xxxxxxxxxxxxxxxxxxxxxxxxxxxxxxxxxxxxxxxxxxxxxxxxxxxxxxxxxxxxxxxx",
"xnMMmmmmmmmmmmmmmmmmmmmmmmmmmmmmmmmmmmmmmmmmmmmmMMxMmmmmmmmmmmmm",
"nMbghhhhhhhhhhhhhhhhhhhhhhhhhhhhhhhhhhhhhhhhhhhhhhhhhhhhhhhhgbMn",
"nMcpssssassssssasssaasssssssssdassssassssssdsssssssssssssssspcMn",
"nMvsdddffddfjddddddddddfddddddddddfddddddddddddddsddddddddfdsvMn",
"nMcaaaaaaaaaadddddddddddddddddddddddddddddddddddddddddddddddpcMn",
"nMvr###%$$$@;fsddddddddddddddddddddddddddddddddddddddddddddsscMn",
"nMvwoOoXX.X %jddddddddsddddddddddddddddddsddddddddadddddddddscMn",
"nnve+o-1<<<,5ddddddddddddddddddddddddddsddddddddddddddddddddsvMn",
"nMve+X8zjjkkjdddsdddddddddddddddddsdddddddddddddddddddddddddpcMn",
"nMbe+X8jadadddddddddddddddsddadddddddddddddddddsddddddddddddscMn",
"nMve+o7jaddadddadddsdaddsssddddddaddsdddddadsdddssdaddadssssscmn",
"nMbe+o8zjjjjjddfjjdjjjdjjjjjjdfjjjjjjddjjjjjjdjjjjjjfdjjfkkjscMn",
"nnvwOo1q0000rddr0qdq9rd000000yi900000sr00000ra000000ti9qq900uvMn",
"nMve+OOoooo.%dk> @s= =d+Xo+o 7r oooooy<.oX+X*d@.+X+.6r.oooOoevMn",
"nMveXoo+oo+o-df,X%d;.:d$O+oo.6ro++Xooy2o+oo.*d%o+oo 6ro+ooXowvmn",
"nmvu00000q*.=dk,X$d=.;a$X;q00yqoo4r00d<.#qeqrd%X;rrqiqoo6rqruvmn",
"nMcsjjjjfl;.=dj,X%d=.;d@.1zjjk0ooqljjk<X@7870d%o=986troo1888ucMn",
"nMcaddadsf;.-df,X%d= ;d$X<jaaj0oo0jaak<X+XX %d%oo.X 5ro+o.XXwbMn",
"nMcadaddsf;.=dk,.%d=.;d$.<jsaj0oo0jaaj<X+++o=d$oO++X6roo++++wvMn",
"nMvskkjjjl;.=dj,.%k-.;d@.1zjkk0ooqzjjk<X$tiyidiyir@X4kyia6X+wvMn",
"nmvt<<<<<<$o=dj,o#<$X;d$o&2<:rqo+;1<<d1X@22<6d5<2,@X6i,13;o+evMn",
"nmvw.XXXXXoX=dj>.oXoX=d@ooXX 6e.+X...y<XoXX %d+..XO.6r X.X+oevmn",
"nMve%#$$$$$@;dj<+$$$@:d&@%#%+8r+#$%$#i2+%#$@:d=@%$$+8r@$$$$#evMn",
"nmvpaaaaaaaiaddaaaaaiadaasaaaddaaiiaaddaaaaaadiaaiaaadaaiaiaacMn",
"nMvsfddddffdffdfddffdfdfdddddddddffdfddddfddfdfddffddddfffdfavMn",
"nMcudsssssasasasssasasaassssssdsassassssssadsssaaassssssasadpcMn",
"nMbghhhhhhhhhhhhhhhhhhhhhhhhhhhhhhhhhhhhhhhhhhhhhhhhhhhhhhhhgvMn",
"nnmmMmmmmmmmmmmmmmnMmmmmmmmmMMMxmmnMmMmmmmmmmmmmmmmmmmmmmMMnmmnm",
"xxxxxxxxxxxxxxxxxxxxxxnxxxxxxxxxnxxxxxxxxxxxxxxxxxxxxxxxxxxxxxnx",
"NNNNNNNNNNNNNNNNNNNNNNNNNNNNNNNNNNNNNNNNNNNNNNNNNNNNNNNNNNNNNNNN",
"BBBBBBBBBBBBBBBBBBBBBBBBBBBBBBBBBBBBBBBBBBBBBBBBBBBBBBBBBBBBBBBB",
"BBBBBBBBBBBBBBBBBBBBBBBBBBBBBBBBBBBBBBBBBBBBBBBBBBBBBBBBBBBBBBBB",
"BBBBBBBBBBBBBBBBBBBBBBBBBBBBBBBBBBBBBBBBBBBBBBBBBBBBBBBBBBBBBBBB",
"BBBBBBBBBBBBBBBBBBBBBBBBBBBBBBBBBBBBBBBBBBBBBBBBBBBBBBBBBBBBBBBB",
"BBBBBBBBBBBBBBBBBBBBBBBBBBBBBBBBBBBBBBBBBBBBBBBBBBBBBBBBBBBBBBBB",
"BBBBBBBBBBBBBBBBBBBBBBBBBBBBBBBBBBBBBBBBBBBBBBBBBBBBBBBBBBBBBBBB",
"BBBBBBBBBBBBBBBBBBBBBBBBBBBBBBBBBBBBBBBBBBBBBBBBBBBBBBBBBBBBBBBB",
"BBBBBBBBBBBBBBBBBBBBBBBBBBBBBBBBBBBBBBBBBBBBBBBBBBBBBBBBBBBBBBBB",
"BBBBBBBBBBBBBBBBBBBBBBBBBBBBBBBBBBBBBBBBBBBBBBBBBBBBBBBBBBBBBBBB",
"BBBBBBBBBBBBBBBBBBBBBBBBBBBBBBBBBBBBBBBBBBBBBBBBBBBBBBBBBBBBBBBB",
"BBBBBBBBBBBBBBBBBBBBBBBBBBBBBBBBBBBBBBBBBBBBBBBBBBBBBBBBBBBBBBBB",
"BBBBBBBBBBBBBBBBBBBBBBBBBBBBBBBBBBBBBBBBBBBBBBBBBBBBBBBBBBBBBBBB",
"BBBBBBBBBBBBBBBBBBBBBBBBBBBBBBBBBBBBBBBBBBBBBBBBBBBBBBBBBBBBBBBB",
"BBBBBBBBBBBBBBBBBBBBBBBBBBBBBBBBBBBBBBBBBBBBBBBBBBBBBBBBBBBBBBBB",
"BBBBBBBBBBBBBBBBBBBBBBBBBBBBBBBBBBBBBBBBBBBBBBBBBBBBBBBBBBBBBBBB",
"BBBBBBBBBBBBBBBBBBBBBBBBBBBBBBBBBBBBBBBBBBBBBBBBBBBBBBBBBBBBBBBB"
};
