/* XPM */
static char *b20a17064fa44e43edb4db338bcce021o5Zm9nEvr7yEv2KK[] = {
/* columns rows colors chars-per-pixel */
"100 100 63 1 ",
"  c white",
". c #FFFFFE",
"X c #FEFDF5",
"o c #ECE872",
"O c #EBE665",
"+ c #EAE565",
"@ c #EBE669",
"# c #EDE769",
"$ c #EBE668",
"% c #E5E367",
"& c #E5E267",
"* c #ECE768",
"= c #9DBA5E",
"- c #96B65D",
"; c #97B75D",
": c #97B65D",
"> c #EDE768",
", c #8EB15C",
"< c #90B25C",
"1 c #8FB25C",
"2 c #92B35C",
"3 c #91B35C",
"4 c #91B25C",
"5 c #93B55E",
"6 c #92B55E",
"7 c #92B55D",
"8 c #8FB25B",
"9 c #8CAB56",
"0 c #8BAA56",
"q c #98B95E",
"w c #8AAA56",
"e c #4A420C",
"r c #433805",
"t c #453A07",
"y c #453A06",
"u c #99B95E",
"i c #8AA955",
"p c #443805",
"a c #3C2C00",
"s c #3E2F00",
"d c #3E3000",
"f c #3C2D00",
"g c #8AA956",
"h c #453B07",
"j c #403201",
"k c #3F3100",
"l c #3F3200",
"z c #443906",
"x c #86A250",
"c c #8DAC57",
"v c #8BAA55",
"b c #94B85F",
"n c #90B25B",
"m c #49410C",
"M c #8DAD58",
"N c #433704",
"B c #8DAD57",
"V c #443905",
"C c #49410B",
"Z c #8CAA56",
"A c #88A451",
"S c #8EAF59",
"D c #8EAD58",
/* pixels */
"                                                                                                    ",
"                                                                                                    ",
"                                                                                                    ",
"                                                                                                    ",
"                                                                                                    ",
"                                                                                                    ",
"                                                                                                    ",
"                                                                                                    ",
"                                                                                                    ",
"                                                                                                    ",
"                                                                                                    ",
"                                                                                                    ",
"                                                                                                    ",
"                                                                                                    ",
"                                                                                                    ",
"                                                                                                    ",
"                                                                                                    ",
"                                                                                                    ",
"                                                                                                    ",
"                                                                                                    ",
"                                                                                                    ",
"                                                                                                    ",
"                                                                                                    ",
"....................................................................................................",
"                                                                                                    ",
"XXXXXXXXXXXXXXXXXXXXXXXXXXXXXXXXXXXXXXXXXXXXXXXXXXXXXXXXXXXXXXXXXXXXXXXXXXXXXXXXXXXXXXXXXXXXXXXXXXXX",
"oooooooooooooooooooooooooooooooooooooooooooooooooooooooooooooooooooooooooooooooooooooooooooooooooooo",
"OOOO++++++++++++++++++++++++++++++++++++++++++++++++++++++++++++++++++++++++++++++++++++++++++++OOOO",
"@@@@############################################################################################@@@@",
"$$$$%&%%%%%%%%%%%%%%%%%%%%%%%%%%%%%%%%%%%%%%%%%%%%%%%%%%%%%%%%%%%%%%%%%%%%%%%%%%%%%%%%%%%%%%%%&%$$$$",
"$$*%=-;::::::::::::::::::::::::::::::::::::::::::::::::::::::::::::::::::::::::::::::::::::::;-=%*$$",
"$$>&-,<11111111111111111111111111111111111111111111111111111111111111111111111111111111111111<,-&>$$",
"$$>%;<2333333333333333333333333333333333333333333333333333333333333333333333333333333333333332<;%>$$",
"$$>%:134444444444444333333333333333333333333333333333333333333333333333333333333333333333333331:%>$$",
"$$>%:<56666666666667333333333333333333333333333333333333333333333333333333333333333333333333331:%>$$",
"$$>%;890000000000009433333333333333333333333333333333333333333333333333333333333333333333333331:%>$$",
"$$>&qwertyyyyyyyytre974333333333333333333333333333333333333333333333333333333333333333333333331:%>$$",
"$$>&uipasssssssssdfp064333333333333333333333333333333333333333333333333333333333333333333333331:%>$$",
"$$>&ughsjksssssssdfp064333333333333333333333333333333333333333333333333333333333333333333333331:%>$$",
"$$>&ugysklzyyyyyytre974333333333333333333333333333333333333333333333333333333333333333333333331:%>$$",
"$$>&ugysszxcv0000009433333333333333333333333333333333333333333333333333333333333333333333333331:%>$$",
"$$>&ugyssycb76666667333333333333333333333333333333333333333333333333333333333333333333333333331:%>$$",
"$$>&ugyssyv7n4444444333333333333333333333333333333333333333333333333333333333333333333333333331:%>$$",
"$$>&ugyssy0643333333333333333333333333333333333333333333333333333333333333333333333333333333331:%>$$",
"$$>&ugyssy0643333333333333333333333333333333333333333333333333333333333333333333333333333333331:%>$$",
"$$>&ugyssyv7n4444444333344443344443344444444443344444444443344444444443344444444443344444444431:%>$$",
"$$>&ugyssycb7666666733337666336666336666666666336666666666336666666666336666666666336666666665<:%>$$",
"$$>&ugysszxcv0000009433490093390093390000000093390000000093390000000093390000000093390000000098;%>$$",
"$$>&ugysklzyyyyyytre9779eppmMMmppmMMmrtyyyytrmMMmrtyyyytrmMMmrtyyyytrmMMmrtyyyytrmMMmrtyyyytrewq&>$$",
"$$>&ughsjkssssssssar0770rffNccNffNccNasssssdfrccNasssssdfrccNasssssdfrccNasssssdfrccNasssssdfpiu&>$$",
"$$>&uipasssssssskjst0770tddyccyddyccysjksssdfrcBysjksssdfrcBysjksssdfrcBysjksssdfrcBysjksssdfpiu&>$$",
"$$>&qwertyyyyyyzlksy0770ysszcczsszcczsklzyytrmMczsklzyytrmMczsklVzzyNCMczsklVzzyNCMczsklVzzyNewq&>$$",
"$$>%;89000000vcxzssy0770ysszcczsszcczsszxcv0007Zysszxcv0007ZysszAScccc7ZysszAScccc7ZysszAScccD8;%>$$",
"$$>%:<56666667bcyssy0770ysszcczsszcczssycb766750yssycb766750ysszAScccc7ZysszAScccc7ZysszAScccD8;%>$$",
"$$>%:13444444n7vyssy0770ysszcczsszcczssyv7n44n60yssyv7n44n60ysklVzzyNCMczsklVzzyNCMczsklVzzyNewq&>$$",
"$$>%:13333333460yssy0770ysszcczsszcczssy06433460yssy06433460yslksssdfrcBysjkssssaNcBysjkssssapiu&>$$",
"$$>%:13333333460yssy0770ysszcczsszcczssy06433460yssy06433460yslksssdfrccNasssskjsyBcNasssskjshgu&>$$",
"$$>%:13444444n7vyssy0770ysszcczsszcczssyv7n44n60yssyv7n44n60ysklVzzyNCMMCNyzzVlkszcMCNyzzVlksygu&>$$",
"$$>%:<56666667bcyssy0770ysszSSzsszcczssycb766750yssycb766750ysszAScccM33McccSAzssyZ7ccccSAzssygu&>$$",
"$$>%;89000000vcxzssy0770yssVAAVsszcczsszxcv0007Zysszxcv0007ZysszAScccM33McccSAzssyZ7ccccSAzssygu&>$$",
"$$>&qwertyyyyyyzlksy0770ysklzzlkszcczsklzyytrmMczsklzyytrmMczsklVzzyNCMMCNyzzVlkszcMCNyzzVlksygu&>$$",
"$$>&uipfdssssssskjst0770tsjksskjsyccysjksssdfrcBysjksssdfrcBysjksssdfrccrfdssskjsyBcrfdssskjshgu&>$$",
"$$>&uipfdsssssssssar0770rassssssaNccNasssssdfrccNasssssdfrccNasssssdfrccrfdsssssaNccrfdsssssapiu&>$$",
"$$>&qwertyyyyyyyytre9779ertyyyytrmMMmrtyyyytrmMMmrtyyyytrmMMmrtyyyytrmMMmrtyyyytrmMMmrtyyyytrewq&>$$",
"$$>%;890000000000009433490000000093390000000093390000000093390000000093390000000093390000000098;%>$$",
"$$>%:<5666666666666733337666666666336666666666336666666666336666666666336666666666336666666665<:%>$$",
"$$>%:134444444444444333344444444443344444444443344444444443344444444443344444444443344444444431:%>$$",
"$$>%;<2333333333333333333333333333333333333333333333333333333333333333333333333333333333333332<;%>$$",
"$$>&-,<11111111111111111111111111111111111111111111111111111111111111111111111111111111111111<,-&>$$",
"$$*%=-;::::::::::::::::::::::::::::::::::::::::::::::::::::::::::::::::::::::::::::::::::::::;-=%*$$",
"$$$$%&%%%%%%%%%%%%%%%%%%%%%%%%%%%%%%%%%%%%%%%%%%%%%%%%%%%%%%%%%%%%%%%%%%%%%%%%%%%%%%%%%%%%%%%%&%$$$$",
"@@@@############################################################################################@@@@",
"OOOO++++++++++++++++++++++++++++++++++++++++++++++++++++++++++++++++++++++++++++++++++++++++++++OOOO",
"oooooooooooooooooooooooooooooooooooooooooooooooooooooooooooooooooooooooooooooooooooooooooooooooooooo",
"XXXXXXXXXXXXXXXXXXXXXXXXXXXXXXXXXXXXXXXXXXXXXXXXXXXXXXXXXXXXXXXXXXXXXXXXXXXXXXXXXXXXXXXXXXXXXXXXXXXX",
"                                                                                                    ",
"....................................................................................................",
"                                                                                                    ",
"                                                                                                    ",
"                                                                                                    ",
"                                                                                                    ",
"                                                                                                    ",
"                                                                                                    ",
"                                                                                                    ",
"                                                                                                    ",
"                                                                                                    ",
"                                                                                                    ",
"                                                                                                    ",
"                                                                                                    ",
"                                                                                                    ",
"                                                                                                    ",
"                                                                                                    ",
"                                                                                                    ",
"                                                                                                    ",
"                                                                                                    ",
"                                                                                                    ",
"                                                                                                    ",
"                                                                                                    ",
"                                                                                                    ",
"                                                                                                    "
};
