/* XPM */
static char *result[] = {
/* columns rows colors chars-per-pixel */
"64 64 16 1 ",
"  c #BBBABA",
". c #BBBBBB",
"X c #BCBCBC",
"o c #9F776D",
"O c #9E766C",
"+ c #A88C86",
"@ c #BCBBBB",
"# c #905547",
"$ c #905445",
"% c #9E756B",
"& c #BBBBBA",
"* c #915749",
"= c #9E766D",
"- c #A88C85",
"; c #A88D86",
": c white",
/* pixels */
"                              .XX.                              ",
"oooooooooooooooooooooooooooooO+@@+Oooooooooooooooooooooooooooooo",
"#############################$%&&%$#############################",
"*****************************#=&&=#*****************************",
"*****************************#=&&=#*****************************",
"*****************************#=&&=#*****************************",
"*****************************#=&&=#*****************************",
"*****************************#=&&=#*****************************",
"*****************************#=&&=#*****************************",
"*****************************#=&&=#*****************************",
"*****************************#=&&=#*****************************",
"*****************************#=&&=#*****************************",
"*****************************#=&&=#*****************************",
"*****************************#=&&=#*****************************",
"*****************************#=&&=#*****************************",
"*****************************#=&&=#*****************************",
"*****************************#=&&=#*****************************",
"*****************************#=&&=#*****************************",
"*****************************#=&&=#*****************************",
"*****************************#=&&=#*****************************",
"*****************************#=&&=#*****************************",
"*****************************#=&&=#*****************************",
"*****************************#=&&=#*****************************",
"*****************************#=&&=#*****************************",
"*****************************#=&&=#*****************************",
"*****************************#=&&=#*****************************",
"*****************************#=&&=#*****************************",
"*****************************#=&&=#*****************************",
"*****************************#=&&=#*****************************",
"#############################$%&&%$#############################",
"=============================%-@@-%=============================",
" &&&&&&&&&&&&&&&&&&&&&&&&&&&&&@XX@&&&&&&&&&&&&&&&&&&&&&&&&&&&&& ",
"X@&&&&&&&&&&&&&&&&&&&&&&&&&&&&&  &&&&&&&&&&&&&&&&&&&&&&&&&&&&&@X",
".+%==========================================================%+.",
" O$##########################################################$O ",
" o#**********************************************************#o ",
" o#**********************************************************#o ",
" o#**********************************************************#o ",
" o#**********************************************************#o ",
" o#**********************************************************#o ",
" o#**********************************************************#o ",
" o#**********************************************************#o ",
" o#**********************************************************#o ",
" o#**********************************************************#o ",
" o#**********************************************************#o ",
" o#**********************************************************#o ",
" o#**********************************************************#o ",
" o#**********************************************************#o ",
" o#**********************************************************#o ",
" o#**********************************************************#o ",
" o#**********************************************************#o ",
" o#**********************************************************#o ",
" o#**********************************************************#o ",
" o#**********************************************************#o ",
" o#**********************************************************#o ",
" o#**********************************************************#o ",
" o#**********************************************************#o ",
" o#**********************************************************#o ",
" o#**********************************************************#o ",
" o#**********************************************************#o ",
" o#**********************************************************#o ",
" O$##########################################################$O ",
"@;OooooooooooooooooooooooooooooooooooooooooooooooooooooooooooO;@",
"X@                                                            @X"
};
