/* XPM */
static char *wall1710671793[] = {
/* columns rows colors chars-per-pixel */
"64 64 256 2 ",
"   c black",
".  c #010101",
"X  c #020202",
"o  c gray1",
"O  c #040404",
"+  c gray2",
"@  c #060606",
"#  c #070707",
"$  c gray3",
"%  c #090909",
"&  c gray4",
"*  c #0B0B0B",
"=  c #0C0C0C",
"-  c gray5",
";  c #0E0E0E",
":  c gray6",
">  c #101010",
",  c #111111",
"<  c gray7",
"1  c #131313",
"2  c gray8",
"3  c #151515",
"4  c #161616",
"5  c gray9",
"6  c #181818",
"7  c #191919",
"8  c gray10",
"9  c #1B1B1B",
"0  c gray11",
"q  c #1D1D1D",
"w  c #1E1E1E",
"e  c gray12",
"r  c #202020",
"t  c gray13",
"y  c #222222",
"u  c #232323",
"i  c gray14",
"p  c #252525",
"a  c gray15",
"s  c #272727",
"d  c #282828",
"f  c gray16",
"g  c #2A2A2A",
"h  c gray17",
"j  c #2C2C2C",
"k  c #2D2D2D",
"l  c gray18",
"z  c #2F2F2F",
"x  c gray19",
"c  c #313131",
"v  c #323232",
"b  c gray20",
"n  c #343434",
"m  c #353535",
"M  c gray21",
"N  c #373737",
"B  c gray22",
"V  c #393939",
"C  c #3A3A3A",
"Z  c gray23",
"A  c #3C3C3C",
"S  c gray24",
"D  c #3E3E3E",
"F  c #3F3F3F",
"G  c gray25",
"H  c #414141",
"J  c gray26",
"K  c #434343",
"L  c #444444",
"P  c gray27",
"I  c #464646",
"U  c gray28",
"Y  c #484848",
"T  c #494949",
"R  c gray29",
"E  c #4B4B4B",
"W  c #4C4C4C",
"Q  c gray30",
"!  c #4E4E4E",
"~  c gray31",
"^  c #505050",
"/  c #515151",
"(  c gray32",
")  c #535353",
"_  c gray33",
"`  c #555555",
"'  c #565656",
"]  c gray34",
"[  c #585858",
"{  c gray35",
"}  c #5A5A5A",
"|  c #5B5B5B",
" . c gray36",
".. c #5D5D5D",
"X. c gray37",
"o. c #5F5F5F",
"O. c #606060",
"+. c gray38",
"@. c #626262",
"#. c gray39",
"$. c #646464",
"%. c #656565",
"&. c gray40",
"*. c #676767",
"=. c #686868",
"-. c DimGray",
";. c #6A6A6A",
":. c gray42",
">. c #6C6C6C",
",. c #6D6D6D",
"<. c gray43",
"1. c #6F6F6F",
"2. c gray44",
"3. c #717171",
"4. c #727272",
"5. c gray45",
"6. c #747474",
"7. c gray46",
"8. c #767676",
"9. c #777777",
"0. c gray47",
"q. c #797979",
"w. c gray48",
"e. c #7B7B7B",
"r. c #7C7C7C",
"t. c gray49",
"y. c #7E7E7E",
"u. c gray50",
"i. c #808080",
"p. c #818181",
"a. c gray51",
"s. c #838383",
"d. c #848484",
"f. c gray52",
"g. c #868686",
"h. c gray53",
"j. c #888888",
"k. c #898989",
"l. c gray54",
"z. c #8B8B8B",
"x. c gray55",
"c. c #8D8D8D",
"v. c #8E8E8E",
"b. c gray56",
"n. c #909090",
"m. c gray57",
"M. c #929292",
"N. c #939393",
"B. c gray58",
"V. c #959595",
"C. c gray59",
"Z. c #979797",
"A. c #989898",
"S. c gray60",
"D. c #9A9A9A",
"F. c #9B9B9B",
"G. c gray61",
"H. c #9D9D9D",
"J. c gray62",
"K. c #9F9F9F",
"L. c #A0A0A0",
"P. c gray63",
"I. c #A2A2A2",
"U. c gray64",
"Y. c #A4A4A4",
"T. c #A5A5A5",
"R. c gray65",
"E. c #A7A7A7",
"W. c gray66",
"Q. c #A9A9A9",
"!. c #AAAAAA",
"~. c gray67",
"^. c #ACACAC",
"/. c gray68",
"(. c #AEAEAE",
"). c #AFAFAF",
"_. c gray69",
"`. c #B1B1B1",
"'. c #B2B2B2",
"]. c gray70",
"[. c #B4B4B4",
"{. c gray71",
"}. c #B6B6B6",
"|. c #B7B7B7",
" X c gray72",
".X c #B9B9B9",
"XX c gray73",
"oX c #BBBBBB",
"OX c #BCBCBC",
"+X c gray74",
"@X c gray",
"#X c gray75",
"$X c #C0C0C0",
"%X c #C1C1C1",
"&X c gray76",
"*X c #C3C3C3",
"=X c gray77",
"-X c #C5C5C5",
";X c #C6C6C6",
":X c gray78",
">X c #C8C8C8",
",X c gray79",
"<X c #CACACA",
"1X c #CBCBCB",
"2X c gray80",
"3X c #CDCDCD",
"4X c #CECECE",
"5X c gray81",
"6X c #D0D0D0",
"7X c gray82",
"8X c #D2D2D2",
"9X c LightGray",
"0X c gray83",
"qX c #D5D5D5",
"wX c gray84",
"eX c #D7D7D7",
"rX c #D8D8D8",
"tX c gray85",
"yX c #DADADA",
"uX c gray86",
"iX c gainsboro",
"pX c #DDDDDD",
"aX c gray87",
"sX c #DFDFDF",
"dX c gray88",
"fX c #E1E1E1",
"gX c #E2E2E2",
"hX c gray89",
"jX c #E4E4E4",
"kX c gray90",
"lX c #E6E6E6",
"zX c #E7E7E7",
"xX c gray91",
"cX c #E9E9E9",
"vX c #EAEAEA",
"bX c gray92",
"nX c #ECECEC",
"mX c gray93",
"MX c #EEEEEE",
"NX c #EFEFEF",
"BX c gray94",
"VX c #F1F1F1",
"CX c gray95",
"ZX c #F3F3F3",
"AX c #F4F4F4",
"SX c gray96",
"DX c #F6F6F6",
"FX c gray97",
"GX c #F8F8F8",
"HX c #F9F9F9",
"JX c gray98",
"KX c #FBFBFB",
"LX c gray99",
"PX c #FDFDFD",
"IX c #FEFEFE",
"UX c white",
/* pixels */
"' ' ] ] ] ' ;.q.0.0.0.0.0.0.0.0.9.9.0.0.0.0.0.0.0.0.2._ 1.q.0.0.0.0.0.0.0.0.x.v.0.0.0.0.0.0.0.#.#.0.0.0.q.<.X.v.s.f.M.w.0.0.0.q.",
"' &.<.,.<.,.6.q.0.0.0.0.0.0.q.q.#.E 6.0.0.0.0.0.0.0.7.,.7.0.9.0.0.=.:.q.q.q.u.u.0.0.0.0.0.0.0.3.3.0.0.0.0.7.<.:.5.t.p.q.0.0.u.v.",
"' ,.q.7.:.8.1.,.9.q.0.0.0.7.} :.=._ 7.0.0.0.q.q.0.0.0.q.0.l.v.q.9.o.$.3.] @.2.4.>.d.t.0.0.0.0.0.q.0.0.0.q.6.:.3.9.-.| 7.>.q.v.D.",
"X.2.q.4.O.5.=.:.a.;.5.0.0.5.P O.q.9.2.8.0.5.*.*.4.0.0.0.9.Z.J.q.0.2.<.#.F ( 2.8.:.x.5.1.0.0.0.0.7.4.9.3.6.<...n.u._ F 4.#.w.N.M.",
"8.9.0.9.6.5.7.n.T.K $.q.0.0.7.9.0.4.[ 1.w.%.m n o.0.0.0.0.w.w.0.9.P.k.} 7.0.k.V.n.w.J / q.0.0.q.:...6.} %.1.o.c.<.) [ 7.9.0.w.w.",
"0.0.0.4. .G ,.Y._.4.5.0.0.0.0.0.0.9.3.8.0.6.-.-. .$.q.0.0.0.0.7.O.q.r.9.m.N.h.y.y.9.F ! q.0.0.q.:.| 6.{ $.9.5.t.F.m.3.9.0.0.0.0.",
"0.q.,.+.=.| 5.c.n.t.q.q.0.w.k.i.0.7.&.5.0.0.q.q.<.} ) 8.j.a.3.%.-.5.9.e.f.g.l.f.9.9.O.3.j.w.k.1.-.q.&.&.1.d.G.y.>.,.0.0.0.0.0.0.",
"0.1.#.#.9.q.=.%.5.o. .;.0.q.y.e.0.6.$.4.q.q.9.>.:._ J 7.l.s.,.} 7.0.s.l.q.9.f.z.d.s.r.t.y.w.z.8.i.F.=.4.y.v.P.u._ @.x.w.p.t.0.0.",
"9. .X.6.0.0.^ W <.S m ' q.7.| *.7.9.5.9.5.3.6.} ` ' o.8.0.q.1.X.2.8.Z./.e.0.0.a.B.N.i.$.[ 4.9.k.L.W.t.9.h.l.<.,.5.n.E.t.v.f.0.0.",
"9. .) O.8.0.5.5.9.3.2.6.0.0.7.O.@.5.X.3.[ W 8.7.6.p.x.w.0.0.8.3.X.,.C.^.w.9.q.w.e.e.q.=.[ ..5.w.r.t.0.0.e.=.M m +.r.y.q.e.w.0.0.",
"0.3.+...9.0.0.0.0.q.q.0.0.0.0.i.i.8.1.8.<.-.0.0.j.z.i.q.q.;.o.+.>.$.*.<.O.o.x.D.q.0.0.c.B.2.8.%.{ o.8.0.0.4.$.#.3.0.0.0.9.0.0.0.",
"0.w.3.@.` 3.0.0.7.&.4.0.r.g.w.s.m.B.e.0.q.q.q.0.d.a.0.9.:.&.&.=.8.>.%.%.&.&.h.z.;.8.:.p.S.j.e.:.) I 5.0.q.<.' @.&.<.0.q.f.u.0.0.",
"0.;.<.:.L >.q.0.5...1.0.u.n.z.t.x.U.r.0.0.4.*.7.0.0.0.9.$.*.5.0.0.0.0.0.q.q.0.<.@.7.%.-.y.v.r.q.@.U 5.0.q.*.H `  .%.3.q.M.j.0.0.",
"3.I / 0.8.9.0.0.0.9.0.7.6.i.~.b.0.w.0.0.q.$.C <.q.0.9.7.9.%.+.9.8.9.0.9.7.7.9.0.9.0.9.9.0.q.0.8.8.0.w.e.q.9.7.8.9.:.O.0.M.f.7.0.",
"V | 4.0.0.0.0.0.0.0.q.[ ! b.g.r.0.0.0.0.q.>._ 4.0.0.4.o.4.%.O.6.O.1.q.4...| >.q.0.0.0.0.0.0.0.@.,.B.B.B.f.0.0.0.0.8.5.q.M.6.O.9.",
"J &.q.q.7.^ #.q.0.q.j.;._ d.x.i.9.r.z.t.0.6.,.8.q.2.o._ 1.3.1.8.,.6.q.7.;.:.v.C.q.0.0.0.0.0.0.<.5.f.d.6.6.3.+.6.0.q.q.q.a.&.} 9.",
"^ y.i.:.6.^ #.q.0.q.j.5.} -.r.e.9.r.z.t.0.0.q.0.2.@.] o.4.q.q.0.0.1.2.y.b.5.f.h.:.8.0.0.0.0.0.0.0.9.9.*.,.3.+.6.q.:.O.8.0.-.&.0.",
"] V.k. .8.0.0.0.0.0.0.:.[ / } 3.r.0.0.0.0.0.0.0.%.| +.8.0.7.6.q.a.=.*.f.W.>.| { | 7.0.0.0.0.0.0.0.0.0.0.0.0.0.0.q...P q.w.0.0.0.",
"7.e.e.9.0.9.9.0.0.0.0.9.,.} 2.l.z.0.8.9.9.8.0.9.8.7.8.0.0.*.@.u.^.j.7.q.t.8.7.7.7.0.0.0.0.0.0.0.0.0.0.q.q.0.0.0.0.8.e.M.u.0.0.0.",
"0.9.b.P.q.X.:.q.0.0.0.0.8.3.9.y.u.<.L ;.../ 6.@.1.q.0.0.0.5.3.w.h.:.-.0.8.#.,.q.0.0.0.0.0.0.0.0.0.0.q.z.f.0.0.0.9.v.Y.a.w.0.0.0.",
"0.9.A.).w.*.1.0.0.0.0.0.0.0.0.O.+.4.` ) _ o.7.;.&.,.0.0.0.c.M.q.9.>.1.7.*.*.3.0.0.0.0.0.0.0.0.q.3.-.0.f.i.0.0.0.s.n.Z.k.e.9.0.0.",
"0.9.b.K.w.0.0.0.0.0.0.0.0.0.0.] ] 0.9./ o.w.0.0.*.-.0.0.9.V.A.2.9.q.6.:.+.6.q.0.0.0.0.5.2.9.2.7.1.+.>.7.0.0.0.0.b.x.r.v.c.i.9.0.",
"0.0.q.w.e.q.0.9.7.0.0.0.0.0.0.9.9.0.0.9.9.0.0.0.9.9.q.y.w.9.,.X.3.7.=.O.8.0.0.0.q.y.w.,.*.7.o.>.q.3.[ 1.q.0.0.0.x.j.7.e.Y.V.r.0.",
"0.0.0.y.m.y.0.<.o.7.0.0.0.0.0.0.0.0.0.0.0.0.0.0.0.0.s.~.f.#.X.2.X.} &.6.0.0.0.9.p.~.j.m.L.w.6.8.0.9.5.8.0.0.0.0.r.>.| 6.$.c.P.q.",
"0.0.9.w.d.x.p.5.<.9.0.0.4.$.6.0.0.6.#.+.,.q.q.q.Z.B.0.q.0.1.1.3.P ..4.0.0.0.&.7.I.m.,.0.z.q.0.0.0.0.0.0.0.0.0.0.;.! S | &.u.k.0.",
"0.9.f.v.w.j.p.0.q.0.0.q.1.{ 4.q.0.7.&.#.<.6.;.;.b.M.6.%.u.i.6.*.) :.q.0.0.0.=.8.F.e.=.%.>.9.0.0.0.0.0.0.0.q.9.>.&.{ E ^ 1.2.,.0.",
"y.q.m.E.g.7.7.0.0.0.0.0.3.O.5.6.6.9.3.8.q.2. .] >.8.5.0.s.u.1.O.7.0.0.0.0.0.0.8.4.9.q.;.#.9.0.0.7.4.9.5.3.2.1.o.$.2.2._ 6.>.%.0.",
"V.p.q.l.^.:.;.q.q.0.0.0.9.8.8.$.$.2.' ,.0.0.5. .,.>.O.5.R ..0.7.0.0.w.e.0.9.8.:.X.6.0.8.7.0.9.w.<.o.6.@.' ` ..3.R ~ 2.` g.f.8.0.",
"u.w.d.n.g.7.6.p.v.e.0.0.0.8.@.-.;.| ^ { :.q.0.4.8.7.4.9.>.3.2.+.7.0.m.U.q.@.W / ,.O.3.:.$.7.@.n.A.4.9.4.2.1.3.9.>.<.2._ 7.r.0.0.",
"9...-.d.9.0.0.y.u.) :.q.6.&.=.5.5.=.*.f.d.4.#._ :.3.-.9.q.q.5.:.8.;.5.y.&.=.o.$.8.;.6.2.>.8.:.f.x.0.0.q.>.*.9.0.q.q.6.*.5.0.0.0.",
"9.I ~ t.z.r.3.3.2.Y -.6.*.[ ;.6.0.0.w.H.n.3.X.E =.;. .7.2.5.0.9.<.$.} { ;.8.5.4.0.0.0.0.q.0.0.f.f.0.0.0.=.-.l.e.0.0.r.x.t.2.1.0.",
"9.^ ] g.^.d.%.$.0.9.0.=.] } | ,.q.0.0.q.q.0.9.9.0.;. .6.+.;.q.6.o.1.;.*.b.y.#.+.0.0.0.8.6.0.0.J.J.0.0.0.9.j.~.p.9.e.l./.f.#.o.9.",
"0.g.s.w.u.w.7.7.0.9.0.*...4.6.8.0.0.0.0.0.0.0.0.q.;...8.7.8.0.9.6.9.8.7.e.q.O...0.0.q.&...9.0.t.t.0.0.0.0.w.u.q.9.m.Q.s.w.7.7.0.",
" .9.u.q.0.0.0.q.3.T -.=.^ U 1.q.0.0.0.0.q.4.#.7.0.6.1.9.0.0.0.0.q.q.,.%.9.0.2.1.0.0.0.4.<.0.0.0.0.0.0.0.0.0.7.$.2.a.d.o.3.q.0.0.",
"! :.-.{ *.=.4.6.@.J =.2.X./ 3.<.<.0.0.q.2.*.*.7.0.q.0.0.0.1.,.8.;.5.1.-.9.0.0.0.0.0.0.0.q.0.0.0.0.0.0.0.0.0.8.*.*.1.5.#.5.0.0.0.",
"{ 1.{ A  .#.&.+.] X.:.7.q.q.0.*.$.2.2.3.&.$.0.0.5.5.0.0.y.>.%.6.+.1.q.w.u.q.0.0.0.0.0.0.8.3.9.0.0.0.0.0.0.0.0.0.&.=.0.0.0.0.0.0.",
"5.8.*. .7.v.| D  .5.@.&.6.8.0.9.>.} } } -.9.0.0.$.&.0.0.b.f.8.0.9.0.9.t.M.y.0.0.0.8.9.0.2...5.0.0.0.0.0.9.8.0.0.9.9.0.0.0.0.0.0.",
"] } &.,.o.0.4.:.4.9.6.' H ..5.0.8.3.4.3.7.0.0.0.6.6.5.O.9.e.0.0.0.q.:.$.t.q.0.0.5.| 1.q.8.4.9.0.0.0.0.0.-.$.0.0.0.0.0.0.0.0.0.0.",
"*.=.2.u.b.t.0.q.0.9.] ^  .,.A.j.0.3._ <.q.q.8.&.3.q.7.>.f.8.#.&.8.:.&.=.&.6.0.0.8.-.$.#.=.e.D.j.2.$.$.5.3.O.~ 3.0.0.6.&.6.,.;.0.",
"q.q.4.r.~.s.0.0.0.8.T / 3.e.J.l.0.2.~ >.4.1.7.$.1.0.0.q.p.2.O.@.;.} $.1.! 1.q.0.8.<.$.+.*.e.J.l.;.] +.4.w.*.G 1.q.0.3.{ 2.>.=.0.",
"0.0.;.&.z.t.6.6.0.9.#._  .u.w.0.0.0.0.0.=.$.e.q.u.r.4.4.O.,.r.6.X.( o.*.K -.9.0.6.o.2.0.0.q.p.q.-.O.7.0.7.;.{ 5.0.0.4.X.4.4.2.0.",
"0.0.9.1.O.4.@.O.0.0.9.( / Q.a.9.0.0.0.0.8.y.m.r.K.x._ | 1.h.x.9.6.| / | <.X.:.q.0.7.9.0.0.t.Q.r.#.7.0.0.$.( ' 5.0.0.9.7.0.( T 9.",
"0.0.0.8.<.@.*.3.0.0.0.,.&.4.9.0.0.0.0.0.0.e.y.$.-.#.{ ,.9.,.@.o.o.-.,.1.8. .-.q.0.0.0.0.0.0.2.,.4.q.9.+.` -.S.y.9.9.0.q.q.:.-.0.",
"0.0.0.7.*.[ ;.5.;.8.0.q.7.=.7.0.0.0.0.0.0.0.7.| ..| { 7.:.$.#.&.&.%.<.7.*.{ ;.q.0.0.0.q.6.&._ 6.t.;.8.=.#.3.k.e.b.c.3.] 3.w.q.0.",
"0.0.6.>.o.X.<.1.@.8.q.<.*.2.9.0.0.0.0.0.0.8.,.[ *.*.o.7.$.=.5.0.0. .@.5.o.] ;.q.0.0.2.5.1.] ..u.u.+.,.8.q.3.O.6.F.V.+.c ] 2.0.0.",
"0.q.-.X.7.q.w.w.0.5.9.} H | 5.0.9.8.0.0.0.2.} _ ` $.8.7.6.#.+.0.0.@.%.8.7.X.:.q.0.9.| $.3...8.q.9.3.[ 1.q.0.9.0.w.<.( n b } q.0.",
"0.q.=...0.v.B.B.g.K %.b.A.7.9.q.,.O.8.0.0.8.4.3.| O.5...] ` +.0.0.6.=.@.8.5.8.0.0.9.X.%.9.0.R.r.%.9.4.8.0.0.0.0.0.8.3.>.:.4.0.0.",
"0.&.#.<.w.B.b.e.1.s.r.f.c.q.0.0.5.,.0.w.>.*.0.q.<.1.3.` #.:.=.@.#.4.5.-.$.6.0.0.0.q.1.4.5.=.x.e.%.@.8.0.0.0.9.0.9.z.G.t.q.q.q.0.",
"0.&.;.q.q.y.e.-. .F.f.9.9.0.0.0.q.6. .} ,.t.9.:.5.q.2.` %.5.4.#.#.3.q.6.%.6.0.0.6.+.3.5.%.' [ ,.1.@.8.0.0.i.b.r.9.z.C.O.3.*.#.9.",
"0.5.6.9.3.O.,.<.O.7.0.7.6.0.0.0.6.$.I n ,.A.3.} =.7.5.X.| :.0.9.5.8.0.0.0.0.0.0.2.I =.:. .{ D o.q.0.0.0.9.j.Q.e.7.q.:.F ;._ E 9.",
"9.o.#.3...2.0.0.8.0.0.=.O.6.0.q...T L.=.J H  .3.#.&.9.6.6.9.q.6...<.q.0.0.0.0.q.q.4.8.8.6.7.4.8.0.0.0.8.8.q.e.@.<.q.9.4.9.7.6.0.",
"0.3.&.@.1.9.j.k.0.9.%.&.@.L <.q.2.:.j.H.6.) 1.9.4.5.4.|  .e.l.6.} ,.q.0.0.0.9.z.L.*.3.>.%.9.0.0.0.0.8.W W >.m.L.h.9.0.0.0.0.0.0.",
"0.q.*.{ 6.-.w.s.e.j.3.a.l.' 2.0.0.q.0.M.p.>.0.0.0.q.6.&.&.w.d.8.;.5.2.&.=.s.u.d.M.,.5.*...9.0.0.0.8.*.Y &.x.l.A.d.9.0.9.=.<.0.0.",
"0.3.$.%.g.*.,.7.4.s.>.k.~.v.z.u.0.0.0.9.0.q.0.0.0.0.8.<.8.0.0.0.0.4.*.o.@.h.s.9.9.0.q.>.%.9.0.0.7.=.Q { j.J.0.1.6.0.0.8.~ %.u.0.",
"0.=.;.f./.g.q.,.[ } D $.I.]..Xm.9.0.0.7.4.7.y.r.e.w.3.[ ,.9.0.0.0.#.*.9.9.q.0.0.0.0.0.0.8.6.9.q.<.' C &.0.0.0. .;.9.9.3.K >.n.q.",
"q.H.C.w.s.m.d.>.| 2.<.a.N.h.'.M.9.0.9.X.I X.^.A.B.k.9.3.| =.0.0.0.7.7.0.0.0.0.0.0.0.0.q.1.{ 4.0.p.k.2.7.=.:.x.o.[ *.3.} t.N.b.q.",
"0.k.g.0.0.p.t.6.1.9.q.y.i.r.J.k.u.l.0.[ #.1.O.y.N.c.q.0.>.+.%.0.0.0.0.0.0.0.0.0.0.q.0.0.7.:.8.0.r.a.q.*.} @.i.2.>.=.o.' q.f.i.0.",
"0.9.9.0.0.0.0.,...7.0.u.a.w.h.h.B.P.w.] 1.u. .u.z.t.;.0.s.2.O.=.8.0.0.0.0.0.0.0.8.-.5.3.,.9.>.4.y.d.0.=.#.-.9.0.q.=.` $.5.1.<.0.",
"0.0.0.0.0.0.q.@.K 4.0.f.v.u.y.z.K.R.r.-.-.w.m.x.8.| / 9.A.b.8.&.1.7.0.0.0.0.0.8.>._ 4.<.#.7.+.-.e.j.w.0.0.0.0.0.q.;...8.0.=.%.0.",
"0.0.0.0.0.0.q.9.5.8.9.q.i.m.V.s.q.r.w.T.u.| 0.[ L N G 0.E.U.J.R.+.1.w.8.8.0.0.;.) ] d.h.8.9.5.$.{ | 5.8.9.0.0.0.7.7.8.8.q.0.8.0.",
"0.0.0.0.0.0.j.l.5. .1.q.;.R 7.;.*.0.q.f.} ` J.L &.s.d.c.} *.s.h.l.Y.l. .o.5.-.} _ ] 6.t.q.6.I >.p.:.{ ] =.0.0.9.~ ) 5.+.g.f.0.0.",
"&.4.q.q.q.q.a.k.f.-.5.q.=.L <.1...) 6.q.Q J t. .=.v.W.h.o. .;.8.7.c.s.=.;.8.2.-.-.-.5.q.,.! ) p.b.7.*.%.1.0.w.h.*.;.j.t.f.6.;.0.",
"' &.,.:.:.:.;.9.x.e.0.s.p.+.5.w.#.E 6.q. .R +.7.*.t.J.e.q.:.*.7.#.2.5.<.<.,.,.4.0.q.0.q.;.T 2.j.g.0.q.q.0.0.e.B.t.e.b.v.7.%.$.,.",
"' ] _ ^ ^ ^ ~ X.0.0.9.S.~.w.0.0.9.9.0.0.9.9.9.0.0.0.q.0.0.0.0.0.0.0.-.' ] ] ' @.0.0.0.0.0.9.0.0.0.0.0.0.0.0.e.B.,.#.q.9.X.-.<.] "
};
