/* XPM */
static char *result[] = {
/* columns rows colors chars-per-pixel */
"64 64 235 2 ",
"   c #64320C",
".  c #65330D",
"X  c #65330E",
"o  c #65340E",
"O  c #66340F",
"+  c #66350F",
"@  c #67350F",
"#  c #673510",
"$  c #673610",
"%  c #673611",
"&  c #683611",
"*  c #683711",
"=  c #683712",
"-  c #693812",
";  c #693813",
":  c #6A3813",
">  c #693814",
",  c #693914",
"<  c #6A3914",
"1  c #6A3A15",
"2  c #6B3A15",
"3  c #6B3A16",
"4  c #6B3B16",
"5  c #6C3B17",
"6  c #6C3C17",
"7  c #6C3C18",
"8  c #6D3C18",
"9  c #6D3D19",
"0  c #6E3C19",
"q  c #6E3D19",
"w  c #6F3D1A",
"e  c #6D3E1A",
"r  c #6E3E1A",
"t  c #6F3F1B",
"y  c #703F1C",
"u  c #70401C",
"i  c #70411E",
"p  c #71411E",
"a  c #72411E",
"s  c #72421F",
"d  c #74401E",
"f  c #734320",
"g  c #734321",
"h  c #724421",
"j  c #724422",
"k  c #734523",
"l  c #754623",
"z  c #794928",
"x  c #794A28",
"c  c #784A29",
"v  c #7B4C2B",
"b  c #794D2C",
"n  c #7A4F2E",
"m  c #7E4F2E",
"M  c #7B5030",
"N  c #7C5131",
"B  c #7F5030",
"V  c #7F5130",
"C  c #804A2B",
"Z  c #804B2C",
"A  c #805231",
"S  c #815232",
"D  c #815333",
"F  c #825333",
"G  c #825434",
"H  c #835435",
"J  c #835535",
"K  c #845636",
"L  c #855737",
"P  c #865839",
"I  c #87593A",
"U  c #885A3B",
"Y  c #885A3C",
"T  c #895B3C",
"R  c #895B3D",
"E  c #895C3D",
"W  c #895C3E",
"Q  c #8A5C3E",
"!  c #93593F",
"~  c #855E40",
"^  c #8C5F41",
"/  c #876143",
"(  c #8D6042",
")  c #8D6043",
"_  c #8E6143",
"`  c #8E6144",
"'  c #8F6245",
"]  c #8B6549",
"[  c #8D674B",
"{  c #8D684B",
"}  c #8E6A4E",
"|  c #906447",
" . c #916447",
".. c #916448",
"X. c #926548",
"o. c #94674B",
"O. c #9E634C",
"+. c #9F634C",
"@. c #9F644D",
"#. c #966A4E",
"$. c #966A4F",
"%. c #976B4F",
"&. c #996D52",
"*. c #996E53",
"=. c #9A6E53",
"-. c #9A6F54",
";. c #9B6F54",
":. c #9B6F55",
">. c #9B7055",
",. c #9C7157",
"<. c #97755C",
"1. c #9F745A",
"2. c #AB6D5A",
"3. c #A0755B",
"4. c #A0755C",
"5. c #A1765C",
"6. c #A1765D",
"7. c #A2775E",
"8. c #A3785F",
"9. c #9D7D65",
"0. c #9E7F67",
"q. c #A57A61",
"w. c #A57B62",
"e. c #A57B63",
"r. c #A67B62",
"t. c #A67B63",
"y. c #A67C64",
"u. c #A77C64",
"i. c #A77D64",
"p. c #A77D65",
"a. c #A87D65",
"s. c #B47563",
"d. c #A1826B",
"f. c #AC826B",
"g. c #AF856F",
"h. c #A58771",
"j. c #AC8770",
"k. c #A68973",
"l. c #B38A75",
"z. c #B58C77",
"x. c #B58D77",
"c. c #B68D78",
"v. c #B68E79",
"b. c #AC917C",
"n. c #AD927E",
"m. c #BB927E",
"M. c #AF9581",
"N. c #BC9480",
"B. c #BD9581",
"V. c #BE9783",
"C. c #B39A87",
"Z. c #B59D8A",
"A. c #BFAA9A",
"S. c #C09886",
"D. c #C19986",
"F. c #C29B89",
"G. c #C39C8A",
"H. c #C49D8B",
"J. c #C59E8C",
"K. c #C69F8D",
"L. c #DA948C",
"P. c #DB958E",
"I. c #DD968F",
"U. c #E59C98",
"Y. c #E59D98",
"T. c #C7A08E",
"R. c #C8A18F",
"E. c #C8A190",
"W. c #C8A290",
"Q. c #C9A391",
"!. c #C9A392",
"~. c #CAA493",
"^. c #CBA493",
"/. c #CBA594",
"(. c #CCA695",
"). c #CDA696",
"_. c #CDA797",
"`. c #CEA898",
"'. c #CFA899",
"]. c #CFA999",
"[. c #D0AA9B",
"{. c #D1AB9C",
"}. c #D2AC9D",
"|. c #D3AE9F",
" X c #CAB8AB",
".X c #D6B1A3",
"XX c #D7B2A3",
"oX c #D9B4A6",
"OX c #DAB6A8",
"+X c #DBB6A9",
"@X c #DCB8AA",
"#X c #DCB8AB",
"$X c #DDB8AB",
"%X c #DDB9AC",
"&X c #DEBAAD",
"*X c #E0BCB0",
"=X c #E1BCB0",
"-X c #E1BDB0",
";X c #E2BEB2",
":X c #E2BEB3",
">X c #E2BFB3",
",X c #E3BFB3",
"<X c #D3C5BA",
"1X c #E3C0B4",
"2X c #E4C1B5",
"3X c #E5C1B6",
"4X c #E5C2B7",
"5X c #E6C3B8",
"6X c #E7C3B8",
"7X c #E7C3B9",
"8X c #E7C4B9",
"9X c #E8C4BA",
"0X c #E9C5BB",
"qX c #E9C6BC",
"wX c #EAC6BC",
"eX c #EAC7BC",
"rX c #EAC7BD",
"tX c #EBC7BD",
"yX c #EBC8BD",
"uX c #EBC8BE",
"iX c #EBC8BF",
"pX c #EBC9BF",
"aX c #ECC9BF",
"sX c #DCD0C8",
"dX c #ECC9C0",
"fX c #EDCAC0",
"gX c #EDCAC1",
"hX c #EDCBC1",
"jX c #EECBC1",
"kX c #EECBC2",
"lX c #EECCC2",
"zX c #EFCCC3",
"xX c #EFCDC4",
"cX c white",
"vX c None",
/* pixels */
"vXvXvXvXvXvXvXvXvXvXvXvXvXvXvXvXvXvXvXvXvXvXvXvXvXvXvXvXvXvXvXvXvXvXvXvXvXvXvXvXvXvXvXvXvXvXvXvXvXvXvXvXvXvXvXvXvXvXvXvXvXvXvXvX",
"vXvXvXvXvXvXvXvXvXvXvXvXvXvXvXvXvXvXvXvXvXvXvXvXvXvXvXvXvXvXvXvXvXvXvXvXvXvXvXvXvXvXvXvXvXvXvXvXvXvXvXvXvXvXvXvXvXvXvXvXvXvXvXvX",
"vXvXvXvXvXvXvXvXvXvXvXvXvXvXvXvXvXvXvXvXvXvXvXvXvXvXvXvXvXvXvXvXvXvXvXvXvXvXvXvXvXvXvXvXvXvXvXvXvXvXvXvXvXvXvXvXvXvXvXvXvXvXvXvX",
"vXvXvXvXvXvXvXvXvXvXvXvXvXvXvXvXvXvXvXvXvXvXvXvXvXvXvXvXvXvXvXvXvXvXvXvXvXvXvXvXvXvXvXvXvXvXvXvXvXvXvXvXvXvXvXvXvXvXvXvXvXvXvXvX",
"vXvXvXvXvXvXvXvXvXvXvXvXvXvXvXvXvXvXvXvXvXvXvXvXvXvX; ; ; ; ; ; ; ; ; ; ; ; vXvXvXvXvXvXvXvXvXvXvXvXvXvXvXvXvXvXvXvXvXvXvXvXvXvX",
"vXvXvXvXvXvXvXvXvXvXvXvXvXvXvXvXvXvXvXvXvXvX; ; ; ; ; ; ; ; ; ; ; ; ; ; ; ; ; ; vXvXvXvXvXvXvXvXvXvXvXvXvXvXvXvXvXvXvXvXvXvXvXvX",
"vXvXvXvXvXvXvXvXvXvXvXvXvXvXvXvXvXvXvXvXvX; ; ; ; ; ; ; ; ; ; ; ; ; ; ; ; ; ; ; ; ; vXvXvXvXvXvXvXvXvXvXvXvXvXvXvXvXvXvXvXvXvXvX",
"vXvXvXvXvXvXvXvXvXvXvXvXvXvXvXvXvXvXvXvX; ; ; ; ; ; ; ; ; ; ; ; ; ; ; ; ; ; ; ; ; ; ; vXvXvXvXvXvXvXvXvXvXvXvXvXvXvXvXvXvXvXvXvX",
"vXvXvXvXvXvXvXvXvXvXvXvXvXvXvXvXvXvXvX; ; ; ; ; ; ; ; ; ; ; ; ; ; ; ; ; ; ; ; ; ; ; ; ; vXvXvXvXvXvXvXvXvXvXvXvXvXvXvXvXvXvXvXvX",
"vXvXvXvXvXvXvXvXvXvXvXvXvXvXvXvXvXvX; ; ; ; ; ; ; ; ; ; ; ; ; ; ; ; ; ; ; ; ; ; ; ; ; ; ; vXvXvXvXvXvXvXvXvXvXvXvXvXvXvXvXvXvXvX",
"vXvXvXvXvXvXvXvXvXvXvXvXvXvXvXvXvXvX; ; ; ; ; ; ; ; ; ; ; ; ; ; ; ; ; ; ; ; ; ; ; ; ; ; ; ; vXvXvXvXvXvXvXvXvXvXvXvXvXvXvXvXvXvX",
"vXvXvXvXvXvXvXvXvXvXvXvXvXvXvXvXvX; ; ; ; = % $ $ $ % ; ; ; ; ; ; ; ; - % $ $ $ $ % = ; ; ; ; vXvXvXvXvXvXvXvXvXvXvXvXvXvXvXvXvX",
"vXvXvXvXvXvXvXvXvXvXvXvXvXvXvXvXvX; ; ; = a T W W Q J 1 = ; ; ; ; ; = y U W W W W T a = ; ; ; ; vXvXvXvXvXvXvXvXvXvXvXvXvXvXvXvX",
"vXvXvXvXvXvXvXvXvXvXvXvXvXvXvXvXvX; ; ; 8 o.1X5X5X9X[.v f q ; ; ; ; 5 ( =X6X5X5X5X1Xo.8 ; ; ; ; ; vXvXvXvXvXvXvXvXvXvXvXvXvXvXvX",
"vXvXvXvXvXvXvXvXvXvXvXvXvXvXvXvXvX; ; & 5.%XuXuXuXaX8XXX.X*.% ; ; % &.+XrXuXuXuXuXuX%X5.& ; ; ; ; vXvXvXvXvXvXvXvXvXvXvXvXvXvXvX",
"vXvXvXvXvXvXvXvXvXvXvXvXvXvXvXvX; ; ; O f.kXuXuXuXuXuXdXfX}.1.= = 1.}.fXuXuXuXuXuXuXkXf.O ; ; ; ; vXvXvXvXvXvXvXvXvXvXvXvXvXvXvX",
"vXvXvXvXvXvXvXvXvXvXvXvXvXvXvX= ; ; 2 ( J.dXuXuXuXuXuXuXuXjX|.>.>.|.jXuXuXuXuXuXuXuXdXJ.( 2 ; ; ; vXvXvXvXvXvXvXvXvXvXvXvXvXvXvX",
"vXvXvXvXvXvXvXvXvX; = g B B B p ; ; 9 ^.gXuXuXuXuXuXuXuXuXuXuXuXuXuXuXuXuXuXuXuXuXuXuXgX^.9 ; ; ; vXvXvXvXvXvXvXvXvXvXvXvXvXvXvX",
"vXvXvXvXvXvXvXvX; ; 2 w.;X*X*X#.$ < s (.gXeX5X5X5X5X8XuXuXuXuXuXuXuXuXuXuX8X5X5X5X5XeXgX(.s < ; 2 r r r 4 ; ; vXvXvXvXvXvXvXvXvX",
"vXvXvXvXvXvXvXvX; 4 g.@XaXaXaX-.O x H.1XkX{.^ E Y I ,.5XaXuXuXuXuXuXuXaX5X,.Y W R Q [.kX1XH.x + _ ~.~./.%.+ ; ; vXvXvXvXvXvXvXvX",
"vXvXvXvXvXvXvXvX; 6 E.kXuXuXuX=.o B ;XgX!.o.@ % 9.<.f i.#XaXuXuXuXuXaX#Xu.p o + k M.j.R.gX;XB o ;.gXgXkX).&.2 ; vXvXvXvXvXvXvXvX",
"vXvXvXvXvXvXvXvX; 6 T.gXuXuXuX=.o B *XhXt.j } i C.b.& q `.fXuXuXuXuXfX`.i ] M $ b  X~ q.hX*XB o =.uXuXuXkXE.6 ; vXvXvXvXvXvXvXvX",
"vXvXvXvXvXvXvXvX; 6 T.gXuXuXuX=.o B *XhXr.{ sXN 1 4 - t `.fXuXuXuXuXfX`.c <Xd.@ , 7 = a.hX*XB o =.uXuXuXgXT.6 ; vXvXvXvXvXvXvXvX",
"vXvXvXvXvXvXvXvX; 6 K.fXuXuXuX=.o B *XhXp.e N 7 > , - t `.fXuXuXuXuXfX`.p n h ; < ; $ a.hX*XB o =.uXuXuXgXT.6 ; vXvXvXvXvXvXvXvX",
"vXvXvXvXvXvXvXvX; < Y D.lXhXhX:.o B *XhXu.X & , n.k.& 9 `.fXuXuXuXuXfX`.9 $ @ [ A.k . y.hX*XB o =.uXuXfXxXW.6 ; vXvXvXvXvXvXvXvX",
"vXvXvXvXvXvXvXvX; ; + ^ c.z.x.P + B *XfXH.` ; = h.0.p 1.OXaXuXuXuXuXaXOX1.s X / Z.h ) H.fX*XB o ;.fXyXG.c.4.2 ; vXvXvXvXvXvXvXvX",
"vXvXvXvXvXvXvXvXvX; ; - = = = ; & B *XaXgX`.L G D A $.3XaXuXuXuXuXuXuXaX3X$.S F D L `.gXaX*XB O  .}.`.H # = ; ; vXvXvXvXvXvXvXvX",
"vXvXvXvXvXvXvXvXvXvXvXvXvXvX; ; & B *XaXuX0X,X,X,X,X2XrXuXuXuXuXuXuXuXuXrX2X,X,X,X,X0XuXaX*XB % 6 s a 3 ; ; ; vXvXvXvXvXvXvXvXvX",
"vXvXvXvXvXvXvXvXvXvXvXvXvXvXvX; % m *XaXuXuXaXaXaXaXiXuXuXaXdXdXdXdXaXuXuXiXaXaXaXaXuXuXaX*Xm % ; vXvXvXvXvXvXvXvXvXvXvXvXvXvXvX",
"vXvXvXvXvXvXvXvXvXvXvXvXvXvXvX$ J m.5XuXuXuXuXuXuXuXuXuXaXG.7.8.8.7.G.aXuXuXuXuXuXuXuXuXuX5Xm.F . vXvXvXvXvXvXvXvXvXvXvXvXvXvXvX",
"vXvXvXvXvXvXvXvXvXvXvXvXvXvXvXvXe.fXuXuXuXuXuXuXaXaXaXuXdX6.  $ $   6.dXuXaXaXaXuXuXuXuXuXuXfXl.` vXvXvXvXvXvXvXvXvXvXvXvXvXvXvX",
"vXvXvXvXvXvXvXvXvXvXvXvXvXvXvXvXvXuXuXuXuXuXuXuX-X+X&XrXdXf.s ; ; s f.dXrX&X+X-XuXuXuXuXuXuXuXeXqXvXvXvXvXvXvXvXvXvXvXvXvXvXvXvX",
"vXvXvXvXvXvXvXvXvXvXvXvXvXvXvXuXuXuXuXuXuXuXuXrX3.l ` ;XeX:Xv.2 2 v.:XeX;X` l 3.rXuXuXuXuXuXuXuXuXuXvXvXvXvXvXvXvXvXvXvXvXvXvXvX",
"vXvXvXvXvXvXvXvXvXvXvXvXvXvXvXuXuXuXuXuXuXuXuXrXo.  u ' | ..K = = K ..| ' u   o.rXuXuXuXuXuXuXuXuXuXvXvXvXvXvXvXvXvXvXvXvXvXvXvX",
"vXvXvXvXvXvXvXvXvXvXvXvXvXvXvXuXuXuXuXuXuXuXuXtXB.E # : ! +.O.@.@.O.+.! : # E B.tXuXuXuXuXuXuXuXuXuXvXvXvXvXvXvXvXvXvXvXvXvXvXvX",
"vXvXvXvXvXvXvXvXvXvXvXvXvXvXvXuXuXuXuXuXuXuXuXuXjXF.V w s.L.Y.U.U.Y.L.s.w V F.jXuXuXuXuXuXuXuXuXuXuXvXvXvXvXvXvXvXvXvXvXvXvXvXvX",
"vXvXvXvXvXvXvXvXvXvXvXvXvXvXvXuXuXuXuXuXuXuXuXuXuXeX`.z 0 2.I.P.P.I.2.0 z `.eXuXuXuXuXuXuXuXuXuXuXvXvXvXvXvXvX; ; ; ; vXvXvXvXvX",
"vXvXvXvXvXvXvXvXvXvXvXvXvXvXvXvXuXuXuXuXuXuXuXuXuXpX7X`.B d Z C C Z d B `.7XpXuXuXuXuXuXuXuXuXuXvXvXvXvXvXvX; ; ; ; ; ; ; vXvXvX",
"vXvXvXvXvXvXvXvXvXvXvXvXvXvXvXvXvXvXvXgXhXgXgXgXgXgXkXaXH.v.v.v.v.v.v.H.aXkXgXgXgXgXgXgXhXgXaXvXvXvXvXvX; ; ; ; vXvX; ; ; ; vXvX",
"vXvXvXvXvXvXvXvXvXvXvXvXvXvXvXvXvXvXvXV.V.V.V.V.V.V.V.V.S.D.D.D.D.D.D.S.V.V.V.V.V.V.V.V.V.V.vXvXvXvXvX; ; ; ; vXvXvXvX; ; ; ; vX",
"vXvXvXvXvXvXvXvXvXvXvXvXvXvXvXvXvXvXvX< < < < < < < < < < < < < < < < < < < < < < < < < < < vXvXvXvXvX; ; ; vXvXvXvXvXvX; ; ; vX",
"vXvXvXvXvXvXvXvXvXvXvXvXvXvXvXvXvXvX; ; ; ; ; ; ; ; ; ; ; ; ; ; ; ; ; ; ; ; ; ; ; ; ; ; ; ; ; vXvXvX; ; ; ; vXvXvXvXvXvX; ; ; vX",
"vXvXvXvXvXvXvXvXvXvXvXvXvXvXvXvXvX; ; ; ; ; ; ; ; ; ; ; ; ; ; ; ; ; ; ; ; ; ; ; ; ; ; ; ; ; ; ; ; ; ; ; ; vXvXvXvXvXvXvX; ; ; vX",
"vXvXvXvXvXvXvXvXvXvXvXvXvXvXvXvX; ; ; ; ; ; ; ; ; ; ; ; ; ; ; ; ; ; ; ; ; ; ; ; ; ; ; ; ; ; ; ; ; ; % + vXvXvXvXvXvXvXvX; ; ; vX",
"vXvXvXvXvXvXvXvXvXvXvXvXvXvXvX; ; ; ; ; ; ; ; ; ; ; ; ; ; ; ; ; ; ; ; ; ; ; ; ; ; ; ; ; ; ; ; ; = q U vXvXvXvXvXvXvXvXvX; ; ; vX",
"vXvXvXvXvXvXvXvXvXvXvXvXvXvX; ; ; ; ; ; ; ; ; ; ; ; ; ; ; ; ; ; ; ; ; ; ; ; ; ; ; ; vXvX; ; ; ; 5 I %XrXuXvXvXvXvXvXvX; ; vXvXvX",
"vXvXvXvXvXvXvXvXvXvXvXvXvXvX; ; ; ; vX; ; ; ; ; ; ; ; ; ; ; ; ; ; ; ; ; ; ; ; ; ; ; vXvX; ; ; $ X.oXwXuXuXuXuXvXvXvXvX; vXvXvXvX",
"vXvXvXvXvXvXvXvXvXvXvXvXvX; ; ; ; ; vX; ; ; ; ; ; ; ; ; ; ; ; ; ; ; ; ; ; ; ; ; ; ; ; ; ; ; ; >.].dXuXuXuXuXuXvXvXvXvXvXvXvXvXvX",
"vXvXvXvXvXvXvXvXvXvXvXvXvX; * = ; ; vX; ; ; ; ; ; ; ; ; ; ; ; ; ; ; ; ; ; ; ; ; ; ; ; ; ; ; ; N.zXuXuXuXuXuXuXvXvXvXvXvXvXvXvXvX",
"vXvXvXvXvXvXvXvXvXvXvXvXvX4 v s = vXvX; ; ; ; ; ; ; ; ; ; ; ; ; ; ; ; ; ; ; ; ; ; ; ; ; ; vXvXvXvXuXuXuXuXuXuXvXvXvXvXvXvXvXvXvX",
"vXvXvXvXvXvXvXvXvXvXuXgXQ.v _.vXvXvXvXvX; ; ; ; ; ; ; ; ; ; ; ; ; ; ; ; ; ; ; ; ; ; ; ; vXvXvXvXvXvXuXuXuXuXvXvXvXvXvXvXvXvXvXvX",
"vXvXvXvXvXvXvXvXvXuXuXpX,X'.5XvXvXvXvXvX; ; ; ; ; ; ; ; ; ; ; ; ; ; ; ; ; ; ; ; ; vXvXvXvXvXvXvXvXvXvXvXvXvXvXvXvXvXvXvXvXvXvXvX",
"vXvXvXvXvXvXvXvXvXuXuXuXpXfXaXvXvXvXvXvXvX; ; ; ; ; ; ; ; ; ; ; ; ; ; ; ; ; ; ; vXvXvXvXvXvXvXvXvXvXvXvXvXvXvXvXvXvXvXvXvXvXvXvX",
"vXvXvXvXvXvXvXvXvXuXuXuXuXuXvXvXvXvXvXvXvXvX; ; ; ; ; ; ; ; ; ; ; ; ; ; ; ; ; ; vXvXvXvXvXvXvXvXvXvXvXvXvXvXvXvXvXvXvXvXvXvXvXvX",
"vXvXvXvXvXvXvXvXvXuXuXuXuXuXvXvXvXvXvXvXvXvXvXvX; ; ; ; ; ; ; ; ; ; ; ; ; ; ; ; vXvXvXvXvXvXvXvXvXvXvXvXvXvXvXvXvXvXvXvXvXvXvXvX",
"vXvXvXvXvXvXvXvXvXuXuXuXuXvXvXvXvXvXvXvXvXvXvXvX; ; ; ; ; ; ; ; ; ; ; ; ; ; ; ; vXvXvXvXvXvXvXvXvXvXvXvXvXvXvXvXvXvXvXvXvXvXvXvX",
"vXvXvXvXvXvXvXvXvXvXvXvXvXvXvXvXvXvXvXvXvXvXvXvX; ; ; ; ; ; vXvXvXvX; ; ; ; ; ; vXvXvXvXvXcXvXvXvXvXvXvXvXvXvXvXvXvXvXvXvXvXvXvX",
"vXvXvXvXvXvXvXvXvXvXvXvXvXvXvXvXvXvXvXvXvXvXvXvX# % % % % vXvXvXvXvXvX; ; ; ; ; vXvXvXvXvXcXvXvXvXvXvXvXvXvXvXvXvXvXvXvXvXvXvXvX",
"vXvXvXvXvXvXvXvXvXvXvXvXvXvXvXvXvXvXvXvXvXvXvXvX^ F G G G %.vXvXvXvXvX- - - - = vXvXvXvXvXvXvXvXvXvXvXvXvXvXvXvXvXvXvXvXvXvXvXvX",
"vXvXvXvXvXvXvXvXvXvXvXvXvXvXvXvXvXvXvXvXvXvXvXuX4X>X,X,X,X8XuXvXvXvXvXt t t t f vXvXvXvXvXvXvXvXvXvXvXvXvXvXvXvXvXvXvXvXvXvXvXvX",
"vXvXvXvXvXvXvXvXvXvXvXvXvXvXvXvXvXvXvXvXvXvXvXuXuXaXaXaXaXuXuXvXvXaX$X`.`.`.`.XXuXvXvXvXvXvXvXvXvXvXvXvXvXvXvXvXvXvXvXvXvXvXvXvX",
"vXvXvXvXvXvXvXvXvXvXvXvXvXvXvXvXvXvXvXvXvXvXvXuXuXuXuXuXuXuXuXvXvXuXaXfXfXfXfXaXuXvXvXvXvXvXvXvXvXvXvXvXvXvXvXvXvXvXvXvXvXvXvXvX",
"vXvXvXvXvXvXvXvXvXvXvXvXvXvXvXvXvXvXvXvXvXvXvXuXuXuXuXuXuXuXvXvXvXuXuXuXuXuXuXuXuXvXvXvXvXvXvXvXvXvXvXvXvXvXvXvXvXvXvXvXvXvXvXvX",
"vXvXvXvXvXvXvXvXvXvXvXvXvXvXvXvXvXvXvXvXvXvXvXvXvXvXvXvXvXvXvXvXvXuXuXuXuXuXuXuXuXvXvXvXvXvXvXvXvXvXvXvXvXvXvXvXvXvXvXvXvXvXvXvX"
};
