/* XPM */
static char *_770ba42980c4a39d00517d05354e2d3MlKzxavwn397zvme[] = {
/* columns rows colors chars-per-pixel */
"64 64 140 2 ",
"   c None",
".  c #66340F",
"X  c #673610",
"o  c #683712",
"O  c #693813",
"+  c #6E3E1A",
"@  c #723F1D",
"#  c #6F401D",
"$  c #71401D",
"%  c #744422",
"&  c #7A4625",
"*  c #774826",
"=  c #784927",
"-  c #774A28",
";  c #7B4C2B",
":  c #7E502F",
">  c #7E5130",
",  c #825434",
"<  c #8B5337",
"1  c #845738",
"2  c #86593B",
"3  c #895B3D",
"4  c #865F41",
"5  c #8C5F41",
"6  c #955B42",
"7  c #8E6144",
"8  c #8B6549",
"9  c #8E6A4E",
"0  c #906447",
"q  c #93664A",
"w  c #96694D",
"e  c #926D52",
"r  c #9A6E53",
"t  c #947157",
"y  c #9D7157",
"u  c #957359",
"i  c #9E7359",
"p  c #99785F",
"a  c #A36650",
"s  c #A66954",
"d  c #AD6F5C",
"f  c #A1765D",
"g  c #AF715E",
"h  c #9C7C64",
"j  c #A67B63",
"k  c #A87E66",
"l  c #B37563",
"z  c #BF7D6F",
"x  c #BF7E70",
"c  c #C17F71",
"v  c #A1836C",
"b  c #AC836C",
"n  c #AF8670",
"m  c #B08771",
"M  c #B38A74",
"N  c #B68E79",
"B  c #AE937F",
"V  c #B9917D",
"C  c #CA877B",
"Z  c #BD9582",
"A  c #B69E8C",
"S  c #D28D83",
"D  c #C19986",
"F  c #C49D8B",
"G  c #D79189",
"H  c #DB958E",
"J  c #E69D99",
"K  c #C6A08F",
"L  c #CAA493",
"P  c #C1AD9E",
"I  c #CFA999",
"U  c #D1AC9C",
"Y  c #D4AFA0",
"T  c #CBBAAD",
"R  c #D6B1A3",
"E  c #D9B4A6",
"W  c #DBB7A9",
"Q  c #DAB5A8",
"!  c #DBB6A9",
"~  c #DCB8AB",
"^  c #DDB8AB",
"/  c #DDB9AC",
"(  c #DEB9AC",
")  c #DEB9AD",
"_  c #DEBAAD",
"`  c #DFBBAF",
"'  c #DDB9AC",
"]  c #E1BCB0",
"[  c #E1BDB1",
"{  c #E1BEB2",
"}  c #E2BEB2",
"|  c #E3BFB3",
" . c #E2BEB2",
".. c #D6C8BE",
"X. c #E4C0B4",
"o. c #E4C0B5",
"O. c #E4C1B5",
"+. c #E4C1B6",
"@. c #E5C1B6",
"#. c #E5C2B6",
"$. c #E6C2B7",
"%. c #E4C0B5",
"&. c #E6C2B8",
"*. c #E6C3B8",
"=. c #E7C3B8",
"-. c #E7C3B9",
";. c #E7C4B9",
":. c #E6C3B8",
">. c #E8C4BA",
",. c #E8C5BA",
"<. c #E8C5BB",
"1. c #E9C5BB",
"2. c #E9C6BB",
"3. c #E9C6BC",
"4. c #EAC7BC",
"5. c #EAC7BD",
"6. c #EAC7BD",
"7. c #EBC8BE",
"8. c #EBC8BF",
"9. c #EBC9BF",
"0. c #ECC9BF",
"q. c #EBC8BE",
"w. c #D6C9C0",
"e. c #D7CAC0",
"r. c #DED3CB",
"t. c #DDD2CA",
"y. c #E7CDC5",
"u. c #ECC9C0",
"i. c #ECCAC0",
"p. c #EDCAC0",
"a. c #EDCAC1",
"s. c #EDCBC1",
"d. c #EECBC2",
"f. c #EECCC3",
"g. c #EFCCC3",
"h. c #EBCAC1",
"j. c #E6CFC9",
"k. c #F0CEC5",
"l. c #E3D1CC",
"z. c white",
/* pixels */
"                                                                                                                                ",
"                                                              O O O O O O O O O O                                               ",
"                                                            O O O O O O O O O O O O                                             ",
"                                                      O O O O O O O O O O O O O O O O O O                                       ",
"                                                O O O O O O O O O O O O O O O O O O O O O O                                     ",
"                                              O O O O O O O O O O O O O O O O O O O O O O O O                                   ",
"                                            O O O O O O O O O O O O O O O O O O O O O O O O O O                                 ",
"                                          O O o o X X X X X o o O O O O O O O O O O O O O O O O O                               ",
"                                        O O o o % ; ; ; ; ; % O o O O O O O O o o o o o o o o O O                               ",
"                                      O O o O + N ` ` ` ` ` V + O o O O O O o O + + + + + O O o O O                             ",
"                                      O O X $ V ` 0.7.7.7.0.] V $ X O O o X . 2 F F F F K Z = o O O                             ",
"                                      O o = b ] 0.7.i.i.i.i.i.O.b ; X X O r k D i.f.f.i.i.] ; X O O                             ",
"                                    O O . 7 2.7.0.` L L L L Y 5.5.0 % 3 7 E f.] L L L W 0.] r % o O                             ",
"                                    O o + w 2.7.O.m + + - $ w 2.2.w j *.*.5.*.V $ = + j O.5.*.r X O O o o o O                   ",
"                                    O X f ~ 5.5.j % o + T v 7 2.5.W ` 7.7.7.b % ; ..8 + r *.7.r . O O o o o O O O               ",
"                                    O X b i.7.5.q 9 A # u 1 0 2.7.7.7.5.7.i.y . + h P p 2 O.7.r X o O j Z f O o O O             ",
"                                    O X b i.7.5.q 9 P v % . 0 2.7.7.7.7.;.F 2 > p + B h 2 O.7.r X o + L k.R w + o O             ",
"                                    O X b i.7.5.j $ 1 e.2 $ f 2.7.7.7.7.O.q + t e.8 # . 3 O.7.r X o + L i.7.` ; X O O           ",
"                              O O O O X b i.7.5.O.m + = + b O.5.7.7.7.7.5.] y + 4 t.e O 5 *.7.r X o + L i.7.` > O o O           ",
"                            O O o X X . b i.7.7.0.` L L L ~ 0.7.7.7.7.5.7.7.E k + 8 Z L U 5.7.r X o + L i.7.;.I 3 X O           ",
"                          o X . , b b b L 7.7.7.5.7.i.i.i.7.5.7.7.7.7.7.7.5.i.R b b E i.i.i.i.r . o + L i.5.7.i.w . O           ",
"                          O 2 5 m i.i.i.7.5.7.7.5.7.7.7.7.7.5.7.7.7.7.7.7.7.5.7.i.i.7.7.] L F 5 X o + L i.7.;.L 3 X O           ",
"                      o O : Y 2.2.7.7.7.7.7.7.7.7.O.` ` ` O.7.7.7.7.7.7.7.7.7.7.7.7.7.i.L $ O O o o + L i.7.` ; o o O           ",
"                    o X 1 R 2.7.7.7.7.7.7.7.7.7.i.Z = ; = V i.7.7.7.7.7.7.7.7.7.7.7.7.0.L + o o O o + L i.7.~ ; X O             ",
"                    X 0 L 5.7.5.7.7.7.7.7.7.7.7.i.M X X . m i.7.7.7.7.7.7.7.7.7.5.7.i.F 3 O o O O o + L k.Y q + o               ",
"                    . k i.7.5.5.7.0.7.5.7.5.7.0.f.N o o . m i.7.7.5.7.0.7.5.7.7.7.5.F 7 . o O O O o O f N y o o                 ",
"                    . k i.7.7.7.] R 2.7.7.7.2.R U j o O ; Z i.7.7.7.` R 5.7.7.7.7.;.5 . O O O O O O o o o o o O                 ",
"                    . k i.7.7.i.Z 1 W O.O.O.E , % % + + F ] O.O.O.*.b 3 O.7.7.7.7.;.q O o O O O O O O o                         ",
"                    . k i.7.7.i.V + , 1 1 1 , + s C l + ; 1 1 1 1 1 % , O.7.7.7.7.5.R y X O O O O O                             ",
"                    . k i.7.5.0.R j O . < d d g S J H l d d 6 X . r m Z 2.7.7.7.5.7.i.b X O O O O                               ",
"                    X q L 5.7.5.i.` w $ 6 z z z G J H c z z a + 7 U f.i.7.5.7.7.7.7.i.b X O O O O                               ",
"                    o o 2 E 2.7.7.5.O.w * = = + g G x @ * = = 2 W 7.7.7.7.7.7.7.7.7.i.b X O O O O                               ",
"                      o + , R 0.7.7.5.` W W I = $ & % $ F ~ W ~ 2.7.5.7.7.7.7.7.7.7.i.b X O O O O                               ",
"                          % R i.0.5.7.7.0.0.;.L D D D F ] i.0.7.7.5.7.7.7.7.7.7.5.7.i.b X O                   z.                ",
"                          % k n K i.i.7.5.5.7.i.i.i.i.i.7.5.7.7.7.7.7.7.7.5.0.i.i.7.F 5 X O                                     ",
"                            X . 7 L I O.7.7.7.7.7.7.7.7.7.7.7.7.7.7.7.7.7.7.W L I L 1 . O                                       ",
"                              o O + % K O.] ] ] ] ] ] ] ] ] ] ] ] ] ] ] ] ] y + + + O o                       o O O O           ",
"                                      , , , , , , , , , , , , , , , , , , , % o o                           O O O O O O O       ",
"                                          . X X X X X X X X X . . X X X X X o O O                       O O O       O O O O     ",
"                                          O O O O O o X X X * w w * X X X o O O O                     O O O O         O O O O   ",
"                                      O O O O O O o + = ; = y 2.2.y = ; = + o O O O                   O O O             O O O   ",
"                                    O O O O O O o o , R ` ` ] 5.5.] ` ` R > X O O O O O O           O O O O             O O O   ",
"                                O O O O O O O O X 7 I 2.7.7.7.7.7.7.7.0.] , . O O O O O O O       O O O O               O O O   ",
"                              O O O O O O O O O X i i.7.5.7.7.7.7.7.7.7.*.M , X O O O O O O O     O O O                 O O O   ",
"                            O O O O O O O O O O X y 7.7.7.7.7.7.7.7.7.5.7.i.i X O O O O O O O O O O O                   O O O   ",
"                          O O O O O O O O O O O X y 7.7.7.7.7.7.7.7.7.7.7.7.y X O O     O O O O O O O                 O o       ",
"                        O O O O O O   O O O O O X y 7.7.7.7.7.7.7.7.7.7.7.7.y X O O       O O O O O                 t.%         ",
"                        O O O O       O O O O O . i i.7.5.7.7.7.7.7.7.5.7.i.i . O O O O O O O O O O O                           ",
"                      O O O O         O O O O O X 3 F ;.7.7.7.7.7.7.5.7.2.F 3 X O O O O O O O O O O O O                         ",
"                    O o o o O         O O O O O O X , ] 7.7.5.7.7.5.7.*.I ; X O O O O O O     O O O o o ;                       ",
"                    O O + O             O O O O O X , ` *.2.7.7.7.7.5.L = O o O O O               o O O b i.7.                  ",
"                7.*., w F               O O O O O o + 2 3 D i.7.7.i.D , O o O O O                 o O m ~ 7.5.5.                ",
"              5.5.2.Z L i.                O O O O O o X . 3 Z 0.0.Z 3 X o O O O                   ; b ~ i.h.y.7.5.              ",
"            5.7.h.7.0.0.5.                  O O O O O O O . 1 F F 1 . O O O O O                     i.7.h.y.j.h.7.5.            ",
"            7.y.l.h.7.5.                        O O O O O o O + + O o O O O O O                       5.y.j.h.l.h.5.            ",
"            l.j.h.l.h.5.                      O O O O O   O o o o o O   O O O O O                       7.h.l.h.                ",
"              l.j.y.h.                        O O O O O                   O O O O                                               ",
"                l.7.                          O O O O O                   O O O O                                               ",
"                                              o o O O                     O O o +                                               ",
"                                              $ O o o                       o O , ` 7.7.7.7.                                    ",
"                                  5.7.l.y.7.;.U 3 . X                       . 3 U 2.7.y.l.j.h.                                  ",
"                                  7.y.l.y.5.7.y.K n m                       b F h.y.h.h.j.l.h.                                  ",
"                                  h.l.l.h.7.y.l.y.i.i.                      i.0.h.l.h.5.h.l.h.                                  ",
"                                      7.5.h.l.l.h.5.7.                      7.5.h.l.h.5.                                        "
};
