/* XPM */
static char *_6839015b23f4080b939791509d5f27eAxSWrZuTq9FYSy1P[] = {
/* columns rows colors chars-per-pixel */
"64 64 166 2 ",
"   c #C08324",
".  c #C2872D",
"X  c #C5892D",
"o  c #C58B32",
"O  c #C78E3B",
"+  c #C99037",
"@  c #C7923B",
"#  c #CA923B",
"$  c #CB9542",
"%  c #CE9946",
"&  c #CF9E4D",
"*  c #D19C4B",
"=  c #CF9A53",
"-  c #CE9E58",
";  c #D39F5C",
":  c #CFA35D",
">  c #D2A255",
",  c #D3A45B",
"<  c #D9A75B",
"1  c #DAA95F",
"2  c #D5A462",
"3  c #DBAB63",
"4  c #D5AB6C",
"5  c #DDAE6A",
"6  c #D4B069",
"7  c #DFB06A",
"8  c #DCB876",
"9  c #E0B26D",
"0  c #E3B675",
"q  c #E1B57D",
"w  c #E5BB7B",
"e  c #E8BC7E",
"r  c #B7B3AE",
"t  c #D7B480",
"y  c #DFB283",
"u  c #D7BA8E",
"i  c #DBB88A",
"p  c #D5BF9B",
"a  c #E6BD83",
"s  c #E9BE81",
"d  c #E1B78B",
"f  c #E4BA8C",
"g  c #E7BE95",
"h  c #E6BE98",
"j  c #DAC18D",
"k  c #EAC084",
"l  c #ECC48C",
"z  c #EBC395",
"x  c #E7CD97",
"c  c #EDC995",
"v  c #E4C49D",
"b  c #EDC69C",
"n  c #E6CA9E",
"m  c #EDC99D",
"M  c #F1CA94",
"N  c #F3CE9A",
"B  c #ECD19C",
"V  c #F4D19E",
"C  c #D7C3A7",
"Z  c #DEC9AC",
"A  c #DACEBF",
"S  c #DFD0BB",
"D  c #E7C4A5",
"F  c #EAC5A6",
"G  c #E7CDA7",
"H  c #EBC9A6",
"J  c #ECC7A8",
"K  c #E4CBAC",
"L  c #EDCBA9",
"P  c #F2CEA2",
"I  c #F1CDAB",
"U  c #EAD6A5",
"Y  c #EAD8A7",
"T  c #E7D2A8",
"R  c #EBD4AA",
"E  c #E7DAAA",
"W  c #ECDBAD",
"Q  c #F6D3A3",
"!  c #F8D5A6",
"~  c #F5D3AD",
"^  c #F9D6AD",
"/  c #F2DCAF",
"(  c #FBDAAD",
")  c #E5CCB4",
"_  c #EACCB2",
"`  c #E5CEBB",
"'  c #E7D6B6",
"]  c #EDD2B4",
"[  c #E6DAB3",
"{  c #ECDBB3",
"}  c #E5D0BB",
"|  c #ECD5BB",
" . c #E6DBBD",
".. c #ECDCBC",
"X. c #F4D4B2",
"o. c #F9D7B0",
"O. c #F5DDB1",
"+. c #FEDEB4",
"@. c #F2D5B9",
"#. c #F5DDBD",
"$. c #FADEBA",
"%. c #FFE0B7",
"&. c #F9E1BB",
"*. c #FEE1BB",
"=. c #FFE3BF",
"-. c #DFDAD6",
";. c #DEDDDB",
":. c #E6D2C1",
">. c #E5D4C3",
",. c #EBD5C1",
"<. c #E7DCC0",
"1. c #E5DBC4",
"2. c #E4DBC5",
"3. c #ECDDC1",
"4. c #EBDDC4",
"5. c #EDDCC5",
"6. c #EDDDC7",
"7. c #E3D5C9",
"8. c #E4DCCD",
"9. c #E7DCCF",
"0. c #EBDDCB",
"q. c #ECDDCB",
"w. c #EADDCC",
"e. c #EBDDCC",
"r. c #E9DDCE",
"t. c #F3DDC2",
"y. c #F2DDC3",
"u. c #F5DEC1",
"i. c #F3DBC7",
"p. c #F0DDC6",
"a. c #F0DFC9",
"s. c #F5DECD",
"d. c #E1DCD1",
"f. c #E7DCD1",
"g. c #E4DCD3",
"h. c #E3DCD5",
"j. c #E8DDD0",
"k. c #E1DCD9",
"l. c #EFE0CD",
"z. c #F3E4C4",
"x. c #FBE3C2",
"c. c #FCE2C0",
"v. c #FFE5C2",
"b. c #FEE4C3",
"n. c #F7E0C9",
"m. c #FDE6CA",
"M. c #FDE8C9",
"N. c #FEE9CC",
"B. c #F5E5D6",
"V. c #F3E8D3",
"C. c #F7E8D5",
"Z. c #FEEAD0",
"A. c #FFECD3",
"S. c #FBEDDB",
"D. c #FEF0DE",
"F. c #EBE7E4",
"G. c #ECE8E3",
"H. c #F4ECE1",
"J. c #F9EFE2",
"K. c #F1EDEA",
"L. c #FFF3E2",
"P. c #FDF3E5",
"I. c #FBF4E6",
"U. c #FDF4E9",
"Y. c #FEF5EC",
"T. c #FEF9F2",
/* pixels */
"E E G F E E O.+.+.+.+.+.+.+.+./ / O.E E E W $.h.t.+.+.+.+.+.+.+.+.+.p.f.+.+.+.+.+.+.+.+.+.+.+.+.+.+.+.+.q.j.$.f.t.+.] r ] +.+.+.",
"O.L D D E E <.f.r.+.O.8 > W +.O.O.+.O.L ~ +.+.#.$.+.+.+.+.O./ $.r.#.$.#.+.+.+.+.$.r.$.+.+.+.+.+.+.+.+.+.$.$.+.#.$.+.+.) L L ~ +.",
"+.o.I ~ / / ..q.6.O.8 > 5 / O.O.+.+.O.~ a w +.+.^ ~ / ~ +.O.O.+.1.{ O.+.+.~ #.u.$.q.$.+.+.~ +.+.+.+.%.+.#.u.+.+.+.+.+.+.F F ~ +.",
"+.N V +.+.+.+.+.+.W & 9 *.+.W O.+.O./ +.9 * +.+.I L R L @.x.v.+.W W / O.O.F :.q.+.+.+.+.o.G o.O.O.( M o.q.0.+.O.+.=.v.+.L ~ +.+.",
"+.* < +.+.+.+.+.+.+.( ( +.+.+.+.+.+.+.+.+.( +.+.+.+.+.+.9.K.L.+.+.+.O.W E F ~ +.+.+.+.+.O.W +.O.O.N . C a.+.+.{ O.Z.Y.*.W / +.+.",
"+.x B +.+.+.+.+.+.W W W / +.+.+.+.O.W O.+.+.+.+.+.t.r.+.$.c.=.+.+.+.+.O.O.o.+.+.+.+.r.p.#.d.h.#.+.^ d ~ $.+.*.I.M.@.@.+.L F I +.",
"+.4. ./ / I I ~ O.G / O.O.+.+.+.+.+.O.+.+.+.+.+.+.$.t.+.+.+.+.+./ / O.+.+.+.+.+.+.+.H.C.$.p.p.$.+.Q = N o.~ +.i.$.@.:.o., q o.+.",
"+.a.3.W W G D L +.) o.+.+.+.+.+.+.+.+.+.+.+.+.+.+.+.+.+.+.+.+.+./ W O.+.O.O.O.&.N.N.L.N.+.+.+.+.+.Q * H @.~ +.I o.u.q.o.< e %.+.",
"+.Q ! +.+.W G I $.d.#.+.+.+.+.*.*.+.+.+.+.+.+.=.%.+.+.+.$.+.+.+.+.+.^ V E E E z.T.Y.o.Q o.+.+.+.+.+.+.r.p.+.+.+.+.+.+.+.+.+.+.+.",
"+.* 1 +.+.+.I I +.{ H ~ +.+.+.D.D.+.+.+.~ I *.Y.z./ +.+.r.p.+.+.+.O.6 # ( W O.%.$.H $ ; H W +.+.+.+.+.+.+.+.+.+.+.+.+.+.+.+.+.+.",
"+.M N +.+.+.o.o.+.O.o.I I +.+.v.v.+.+.+.o.o.+.v.&./ / +.#.$.+.%.+.O.V l +.O.6.4.W R l N ~ L o.+.o.I +./ O.+.+.I o.+.+.+.+.~ I +.",
"+.O.O.+.+.+.+.+.+.+.+.o.~ +.O.O.+.+.+.+.+.+.+.+.+.O.O.+.+.+.N 7 ( +.+.%.+.~ | 3./ R +.o.z 2 Q o.L R +.O.#.t.+.} @.+.+.~ +.~ R +.",
"#.O.O.+.+.+.+.+.+.+.+.+.+.+./ O.+.+.+.v.$.o.+.O.+.+.+.+.+.%.l $ ! +.+.+.O.L ~ +.^ y Q o.d @ V ~ L W O.+.p.q.+.7.6.$.o.J l B O.+.",
"h.#.+.+.+.+.+.+.+.+.+.+.+.+.+.+.+.+.%.U.s.I +.{ O.+.+.+.+.+.+.( +.$.+.O.W O.+.+.V X l *.O.Y O.+.+.O.W O.+.+.$.L 7.q.+.( # 9 %.+.",
"$.+.t.r.+.+.+.u.f.$.r.p.+.+.+.+.+.+.+.=.$.+.$.9.h.q.+.+.r.t.+.$.f.h.p.+.O.+.+.+.+.N ( +.+.O.+.+.+.+.O.+.+.v.T.Y.m.+.+.+.V ! +.+.",
"+.O.{  ./ +.+.$.u.+.] @.+.+.+.+.+.+.+.6.u.+.+.u.h.r.$.0.p.$.$.r.p.} @.+.+.I ^ v.D.*.+.+.o.I +.+.+.+.+.+.+.=.Z.Z.=.+.+.I I I ~ +.",
"+.O.{  ./ +.#.#.O.+.~ ~ +.+.+.o.o.+.+.4.#.+.+.O.3.t.=.F.@.o.$.q.+.~ ~ +.t.I ^ N.T.=.+.+.o.I +.+.+.+.+.+.+.+.+.+.+.+.+.I I _ ] +.",
"+.+.t.r.+.o.6.1.R +.V ! +.o.+.I I +.+./ / +.+.R o.+.v.Y.] ~ +.+.o.+.*.n.f.u.+.M.Y.*.+.+.+.+.+.+.+.+.$.+.+.+.+.+.+.+.+.+.=.l.0.+.",
"+.+.+.O.U G o.o.F ( % 3 o.F o.+.+.+.+.+./ W O.J o.+.+.*.+.+.+.+.L ^ A.Y.$.f.t.+.*.+.+.~ L +.+.+.+.$.f.#.+.+.+.+.+.+.+.+.L.Z.+.+.",
"+.+.o.f @ c +.~ F o.Z R c O N 3 1 +.+.I R E W o.S.n % U L ~ +.+.o.+.=.x.L @.$.#.r.+.+.+.o.+.+.+.+.+.#.+.+.+.+.+.+.~ L F - a %.+.",
"+.O.~ b 5 z.v.o.~ +.p.#.B 5 ! e w O.+.~ L R O.+.n.v 2 / F ~ +.+.+.+.o.I ~ +.O.#.p.+.+.+.+.+.+.+.+.+.+.+.+.+.+.+.+.o.~ I 4 l +.+.",
"+./ O.+.*.D.M.+.+.O.+./ R %.+.%.O./ +.+.~ I +.+.~ L I +._ _ o.+.+.+.~ I +.+.O./ +.+.O.O.+.+.o.+.+.+.+.+.+.$.#.u.o.o.+.+.O.O.O.+.",
"+.+.+.+.+.{ O.+.+.W O.~ L +.+.+.+.+.+.+.+.+.+.+.+.+.+.+.9.` I +.*.%.+.+.+.+.+.+.+.+./ O.+.+.L ^ +.+.$.$.+.#.h.h.) I +.+.+./ W +.",
"+.+.O.W *.U.G.q.+.+.+.+.+.+.L ~ +.O.W W R F L +./ W W +.$.+.+.=.Y.M.+.+.+.+.+.+.+.+.+.+.#.f.@.+.+.$.f.h.p.+.$.$.+.+.+.+.+.~ L +.",
"+.A.I.S.*.M.,.] +.+.+.+.o.L D ~ +.+.O.O.| :.o.+.O.O.O./ O.+.+.*.M.@.~ $.r.$.+.+.+.+.+.u.r.t.+.p.r.r.t.t.$.+.+.+.+.+.+.%.+.o.o.+.",
"+.n.S.S.$.+.~ ~ +.+.+.+.+.I I ~ O.O.O.+.u.6.~ O.~ o.+./ O.+.+.+.t.X.~ $.q.$.+.+.+.+.+.n u +.+.t.r.q.+.+.+.+.+.+.+.+.! 0 Q +.$.p.",
"$.L ~ +.O.$.+.+.+.O.+.+.+.+.+./ E E R O.$.@.D T G L o.o.O.+.+.$.f.#.+.+.+.$.$.+.O.+.%.9 * ( +.+.+.+.+.c.=.+.+.+.+.%.N + M $.p.f.",
"h.#.+.O.W 8. ./ O.W O.+.+.+.+.+.O.R F o.6.7.D D R R D F R O.+.+.+.+.+.+.+.f.t.O.W +.+.o.( +.+.+.+.+.+.U.A.+.+.+.+.+.+.( +.q.r.$.",
"#.+.+.+.O.{ #.O.{ 8.#.t.r.+.+.q.6.O.o.+.X.K R o.O.~ F o.9.} I +.W O.+.+.+.$.$.#.9.+.+.p.r.+.+.+.^ I +.v.=.+.$.r.f.f.r.+.+.$.$.+.",
"+.+.#.6.I / / / #.h...#.t.+.+.u.u.+.+.O.~ ~ O.+.+.~ F +.u.@.~ +.O.~ ~ +.+.~ o.$.p.+.~ @.t.I +.+.@.:.+.+.+.O.O.t.p.4. .+.p.#.O.+.",
"+.O...1.L +.O./ O.8. .{ O.O.+.+.+.+.~ / O.+.+.+.O.~ I +.#.$.=.M.+.L I +.+.I o.Q k ~ I ~ o.I +.+.#.r.t.$.+.O./ +.+.O./ O.0. ./ +.",
"+./ E W +.+.+.O.W W 8.1.W W O.+.+.o.L o.$.+.+.+./ / +.+.9.t.M.Y.*.L I +.+.Q +.a o h P ( +.+.+.+.+.$.f.#.+.+.+.+.+.+.O.W O.+.+.+.",
"+.+.~ L +.W 1.0.O.O.{ O.+.+.+.+.+.+.+.r.k.7.L +.+.+.O.W O.+.%.*.W E L L ^ # n B.g ^ % 3 %.+.+.+.+.+.$.+.~ I +.+.+.+.+.+.+.O./ +.",
"+.+./ R +.O...j * b / O.+.+.+.+.+.+.+.#.u.#.o.+.+.O./ O.I ~ +.+.O.O.o.@.r.' z.v.o.+.l N +.+.+.+.+.+.+.+.o.o.+.+.S.A.+.O.O.O.O.+.",
"+.+.O.O.+.O.O.l 2 ) @.+.+.+.+.o.o.+.+.+.+.+.+.O.O.O./ ~ I ~ / ~ +.+.O...k.J.c e +.+.%.+.O.+.+.+.+.+.+.+.+.+.+.+.Z.N.Q 6 ] #.O.+.",
"+.+.+.+.+./ O.+.$.j.#.+.O.o.+.I I +.+.+.+.+.+.W O.+.o.J z B T F +.+.O.{ 9.$.3 , $.+.+./ W +.+.+.$.$.+.+.+.+.+.+.+.+.N # Z 3./ +.",
"+.+.+.+.+.+./ / +.+.+.O.R F o.I I +.+.+.+.+.+.+.+.+.+.( # 6 R F o.+.+.+.+.+.( @.f.+.+.O.W +.+.+.t.f.+.+.+.+.+.+.+.+.+.( +.+.+.+.",
"f.h.p.+.+.+.+.O.+.+.+.+.O.o.+.I I +.+./ O.o.F F F L / +.f m O.o.L 7.p.+.+.+.+.$.@.L R / O.+.+.+.+.$.+.+.+.+.+.+.+.+.+.+.+.+.+.+.",
"p.p.#.+.+.+.+.+.+.+.+.o.~ +.+.| | +.+.O.O.+.~ ~ ~ ~ O.+.o.t.6.I R ..$.+.+.+.+.+.+.~ / O.+.+.+.+.+.+.%.+.+.+.+.+.+.+.+.+.+.+.+.+.",
"+.+.+.+.+.+.+.=.M.O.+.I F +.^ 6.p.+.+.o.o.+.O.O.+.+.+.o.#.0.>.G W O.O.+.+.u.$.+.+.+.+.+.+.+.+.o.o.( e ! $.u.+.+.+.$.u.+.+.+.+.+.",
"+.+.+.+.+.+.+.x.V.{ o.I L @.L o.+.o.O.J ~ O.W [ O.+.o.F 7. .E W +./ O.+.+.S | +.+.$.+.+.+.$.+.I I N o M | } +.+.+.t.9.+.+.+.+.+.",
"+.+.+.+.+.+.%.s @ Q I ` -.h.h.t.~ G E F ~ +.+.d.t.+.o.F o.+.+.+.+.+.+.+.( @ 0 %.$.f.#./ { f.$./ / +.Q +.3 % +.+.+.+.+.J o.+.+.+.",
"+./ O.+.+.+.+.Q k J ~ {  .#.u.X.I o.O.F I +.+._ L ~ +.o.+.+.+.+.+.+.~ I +.l V +.+.#.$.+.O.#.+.4.4.+./ L z l L +.+.+.+.o.+.~ I +.",
"+.O.O.+.+.+.+.$.p.~ o.O.O.+.+.~ ~ O.+.~ ~ O.+.~ I I ~ +.+.O.O.+.p.$.o.~ +.%.+.v.A.*.+.v.Z.+.+.u.u.O.L L o.+.~ +.+.o.~ +.+.^ ~ +.",
"+.O.O.+.+.+.+.#.r.o.+.+.+.+.O.+.O./ +.+.O./ +.o.$.@.I +.+.O.O.u.j.#.+.+.+.$.$.M.P.&.+.Z.D.+.+.O.O.+.L o.+.+.o.+.+.o.F l ( +.+.+.",
"+.W / +.+.+.+.+.+.J o.+.+.+.W O.+.+.+.+.+.+.+.G 7.0.+.+.+.+.#.f.$.+.+.+.+.f.p.+.+.W O.$.*.+.+./ / +.+.^ ( o.F o.+.+.M X M %.+.+.",
"+.W / +.+.+.+.+.+.+.+.+.+.+.O.+.O.W +./ O.+.+.R 9.r.o.L o.+.+.@.L o.+.+.+.f.p.+.+.O.L s.P.{ O.+.+.+.( % 9 o.F o.+.+.( N ( O./ +.",
"+.O.#.q.+.+.+.+.+./ O.+.O./ +.+.~ L +.O.O.O./ O.#.#.+.~ +.+.o.I ~ +.%.N > A ,.I I +.o.@.t.O.+.+.+.+.+.s M +.~ +.+.+.+.%.+.O.O.+.",
"+.+.u.q.+.+.O.O.+./ O.+.O./ +.+.o.I +.+.+.O.O.t.$.+.+.+.+.$.@.I ~ +.%.N > ) | I I +.o.I ~ +.O.O.+.+.+.%.+.+.+.+.+.+.+.+.+.o.o.+.",
"+.+.+.+.+.+./ / +.+.+.$.$.+.$.+.+.+.+.+.+.+.$.f.u.+.+.+.+.q.f.+.L ~ +.+.o.+.+.+.+.+.g b +.+.R o.+.+.+.%.+.+.+.o.$.$.+.+.+.~ I +.",
"+.+.+.+.+.+.+.+.+.+.+.p.r.$.f.` I +.+.+.+.+.+.+.+.+.+.+.+.q.j.+.+.W O.o.J o.+.+.+.+.$ 3 %.+.J ~ +.+.+.+.+.+.+.L >.q.+.+.+.+.+.+.",
"+.+.+.+.%.+.+.+.+.+.+.$.@.L ' O.o.$.f.f.t.+.+.+.+.+.+.+.+.S.J.+.W 1.6.$.7.$.+.+.+.+.Z R +.+.o.+.+.+.W O.~ I +.o.@.$.$.r.{ R I +.",
"+.t.u.Q 3 Q O.O.+.+.+.+.+.~  .$.+.$.6.q.#.+.+.+.+.+.+.+.+.M.m.~ / t.#.$.p.$.+.$.p.+.t i ~ +.+.+.+.+.O.+.o.~ +.p.#.x.S.k...L L +.",
"+.K K c $ N O.O.+.+.$.$.+.$.f.p.+.+.+.+.+.+.+.+.+.+.+.+.+.+.^ I +.+.+.+.o.+.+.#.7.o.: 4 I +.+.+.+.+.+.+.+.+.+.7.[ z.I.9.@.I I +.",
"+.* , W E O.+.+.+.+.r.6.+.+.f.u.+.+.+.+.+.+.+.+.+.+.+.+.+.+.$.$.+.+.+.o.F o.+.o.G W 8.6.+.+.+.+.+.+.+.+.+.+.o.L R O.+.W G ~ +.+.",
"+.Q Q O.O.+.+.+.+.+.$.$.+.+.$.+.+.+.+.+.+.+.+.+.+.+.+.+.+.6.h.f.$.+.+.+.+.+.+.+.o.+.f.q.+.+.+.+.+.+.+.+.+.o.L o.O.+.+.O.o.+.+.+.",
"+.+.+.+.+.+.+.+.+.+.+.+.O./ L o.+.+.+.+.+.+.+.+.+.+.+.+.q.q.t.u.+.+.+.+.+.+.p.p.+.+.#.$.+.+.+.+.+.+.+.+.+.+.~ +.+.+.+.+./ O.+.+.",
"+.+.+.+.+.+.o.o.+.+.N.v.O./ I o.$.u.+.+.+.+.+.t.$.+.+.O.6.#.O.+.+.+.+.+.+.+.t.p.+.~ +.+.+.~ +.+.+.+.+.+.+.+.+.+.+.+.+.+.O.O.+.+.",
"+.+.$.$.$.+.~ I +.+.L.A.+.+.+.+.u.r.+.O.+.+.#.f.u.+.O.W O.O./ +.+.+.+.+.+.+.+.+.+.L o.+.o.G o.$.$.+.+.+.+.O.+.$.$.$.+.$.+.+.$.+.",
"+.+.t.k.h.$.+.+.+.+.*.%.+.+.+.+.+.+.+.W O.u.f.$.+.O.W +.+.+.+.+.+.+.+.+.+.+.+.+.$.f.#.+.O.W O.q.q.+.+.+.O./ $.f.k.q.$.h._ :.r.+.",
"+.I X.p.k.$.p.f.f.f.#.+.+.+.+.+.+.$.f.$.3.r.#.L o.+.O.+.+.+.+.+.+.+.+.+.+.r. ./ +.$.$.+.+.+.+.$.$.+.+./ / O.+.{ #.$.$.h.@.+.$.+.",
"+.L L { ` { #.j.;.1.$.+.+.+.+.+.+.$.p.$.#.t.+.~ I ~ +.+.A.M.+.+.+.+.+.+.+.t.#./ O.+.7 q z < Q +.O.O.+.O.~ ~ +.O./ O.+. .+.O.O.+.",
"+.~ R W L W O.R p W O.+.+.+.+.+.+.+.+.+.+.+.+.+.~ ~ +.%.D.N.+.+.+.O.O.+.+.+.+.O./ +.< 5 f * V +.O./ +.+.~ I +.O./ O.O.E O./ W +.",
"+.+.+.+.+.+.%.w   Q +.+.+.+.+.+.+.+.+.+.+.+.+.+.+.+.+.+.+.+.+.+.+.W / +.+.+.+.+.+.+.+.+.+.+.W O.+.+.+.+.+.+.+.W O.+.O.W O./ W +."
};
