/* XPM */
static char *c2a00fa8c3f748aae485df05ce297ca1iLa5Z1LKkMwY7PJQ[] = {
/* columns rows colors chars-per-pixel */
"64 64 133 2 ",
"   c None",
".  c #951A0E",
"X  c #891710",
"o  c #8D1A10",
"O  c #941711",
"+  c #941C10",
"@  c #9C1A11",
"#  c #A41F0E",
"$  c #A31A13",
"%  c #AA1B16",
"&  c #A31E1A",
"*  c #B51F16",
"=  c #BA1F18",
"-  c #9D2506",
";  c #96220C",
":  c #9C2109",
">  c #9E2A0F",
",  c #9E2610",
"<  c #AA2707",
"1  c #AB2807",
"2  c #A3220D",
"3  c #A9260E",
"4  c #A52E0E",
"5  c #AA2D0D",
"6  c #B22909",
"7  c #B92B0B",
"8  c #A6300F",
"9  c #A12610",
"0  c #AF2717",
"q  c #AD2F10",
"w  c #B22111",
"e  c #BB2215",
"r  c #B12F11",
"t  c #BC2E14",
"y  c #BF261F",
"u  c #AC3010",
"i  c #C32B0E",
"p  c #C12316",
"a  c #CA2615",
"s  c #C32C14",
"d  c #CC2C14",
"f  c #C42219",
"g  c #CC2419",
"h  c #CF2D18",
"j  c #D52B15",
"k  c #D92B17",
"l  c #D3261A",
"z  c #DA271B",
"x  c #D32C18",
"c  c #DD2A1A",
"v  c #CC341C",
"b  c #D1361C",
"n  c #DE341F",
"m  c #E42B1C",
"M  c #EB2C1E",
"N  c #CA2E26",
"B  c #D22E25",
"V  c #DE2D22",
"C  c #CE3F21",
"Z  c #D53B20",
"A  c #D83920",
"S  c #EC2F21",
"D  c #EE3224",
"F  c #E23B27",
"G  c #E93B2F",
"H  c #F03427",
"J  c #F03629",
"K  c #F23B2D",
"L  c #EF3D31",
"P  c #F43F31",
"I  c #BC4C23",
"U  c #A95925",
"Y  c #B55024",
"T  c #8E6C28",
"R  c #9D6126",
"E  c #926A28",
"W  c #877129",
"Q  c #867F32",
"!  c #CA4422",
"~  c #CC512C",
"^  c #F54033",
"/  c #5F8D2E",
"(  c #67872C",
")  c #69862D",
"_  c #628B2D",
"`  c #68892E",
"'  c #74812D",
"]  c #668F32",
"[  c #669033",
"{  c #699235",
"}  c #6C9639",
"|  c #6F9B3E",
" . c #73933A",
".. c #71983C",
"X. c #71993D",
"o. c #70983C",
"O. c #729A3E",
"+. c #759C40",
"@. c #749D41",
"#. c #769D41",
"$. c #779E42",
"%. c #789E43",
"&. c #79A045",
"*. c #7AA045",
"=. c #7AA046",
"-. c #7CA248",
";. c #7EA349",
":. c #7EA44A",
">. c #7FA54B",
",. c #82A74D",
"<. c #83A74D",
"1. c #83A84E",
"2. c #83A84F",
"3. c #82A94F",
"4. c #84A84F",
"5. c #84A94F",
"6. c #85A950",
"7. c #85AA51",
"8. c #87AB52",
"9. c #88AC53",
"0. c #8EAA54",
"q. c #8AAE55",
"w. c #8BAF56",
"e. c #8BAF57",
"r. c #8CAF57",
"t. c #8CB057",
"y. c #8DB058",
"u. c #8DB158",
"i. c #8EB159",
"p. c #8FB25A",
"a. c #90B35B",
"s. c #91B35C",
"d. c #91B45C",
/* pixels */
"                                                                                                                                ",
"                                                                                                                                ",
"                                                                                                                                ",
"                                                                                                                                ",
"                                                                                                                                ",
"                                                                                                                                ",
"                                                                                                                                ",
"                                                                                                                                ",
"                                                                                    _ ] {                                       ",
"                                                                                _ _ _ @.r.                                      ",
"                                                                              _ _ _ _ %.s.                                      ",
"                                                                            _ _ _ _ O.4.a.                                      ",
"                                                                            _ _ _ _ 1.s.p.                                      ",
"                                                              _ _           _ _ _ ] 4.d.                                        ",
"                                                              _ _ :.a.a.a.  _ _ [ 4.p.a.    a.a.a.a.p.} _ _                     ",
"                                              M M M M M M     / _ <.d.a.p.} _ _ [ w.a.p.  a.a.a.s.w.@.] _ _                     ",
"                                              M M M M M M M I T ` @.7.a.p.{ _ [ @.p.a.    a.a.7.:.&._ _ _                       ",
"                                        M M M M M M M M M M M n W ( O.w.t.{ _ O.p.a.      9.9.O._ _ _ _                         ",
"                                      M M M M M M M M M M M M M n T `  .0.{ _ O.p.p.    1.[ ] _ _ _ _                           ",
"                                    M M M M M M M M M M M M M M M Z ! ! ~ ' / [ } } 7.-.{ _ _ _ _ _                             ",
"                                    M M M M M M M M M M M M M M M M M M M Y U U R ` | } [ &.&.&.&.-.p.a.p.                      ",
"                                    M M M M M M M m k M M M M M M M M M M M M M n E W W Q <.1.1.1.7.p.a.a.a.                    ",
"                                  M M M M M M M M d 6 m M M M M M M M M M M M M M m m M ! ' ' ` _ { 9.w.w.w.w.w.w.w.            ",
"                                  M M M M M M M M p @ m K D M M M M M M M M M M M M M M m A A T _ _ [ { { { { { { {             ",
"                                M M M M M M M M M V B M D S M M M M M M M M M M M M M M M M M C U   _ _ _ _ _ _ _ _             ",
"                              M M M M M M M M M M H K M D S M M M M M M M M M M M M M M M M M M M   ) _ _ _ _ _ _               ",
"                              M M M M m m M S S S J K D K J S S M m m M M M M M M M M M M M M M M M                             ",
"                            M M M M M 7 d D P P P P P P P P P K M 7 i M M M M M M M M M M M M M M M                             ",
"                            M M M M m @ e M D P ^ ^ ^ ^ ^ ^ ^ P S $ * M M M M M M M M M M M M M M m q                           ",
"                          M M M M M M f l S J P ^ F b P ^ P ^ P S g g M M M M M M M M M M M M M M c q x                         ",
"                          M M M M M M M S J P ^ ^ v 3 L ^ ^ P J M M M M M M M M m k m M M M M M M c q d                         ",
"                          M M M M M M M J ^ P ^ ^ N & L ^ P J M M M M M M M M M m 1 j M M M M M M c q 4 4                       ",
"                          M M M M M M M J ^ ^ ^ ^ L G P P J M M M M M M M M M M c O g M M M M M M c q 8 8 8                     ",
"                          M M M M m i c J ^ ^ ^ P ^ ^ P D S M M M M j i M M M M m g m M M M M M k 7 4 8 8 8                     ",
"                          M M M M c : l J ^ ^ ^ ^ P ^ P D M M M M M p 2 m M M M M M M M M M M M a ; 4 8 8 8                     ",
"                          M M M M z $ z J ^ ^ ^ ^ ^ P K S M M M M M f % m M M M M M M M M M M M f o 4 8 8 8                     ",
"                          M M M M M m M J ^ ^ P P P K S M M M M M M M m M M M M M M M M m M M M x 4 4 8 8 8                     ",
"                          M M M M M M M J ^ ^ P v d S M M M M M M M M M M M M M M M M d i M M M x 8 8 8 8 8                     ",
"                          M M M M M M M J ^ ^ P 0 w M M M M M M M M M M M M M M M M M e # m M M x 8 8 8 8                       ",
"                          M M M M m j m J ^ ^ P y p M M M M m j M M M M M M M M M M M g * m x x s 8 8 8                         ",
"                          M M M M c 1 k J ^ ^ P D M M M M M j 1 m M M M m M M M M M M m m c r 8 4 8 8                           ",
"                          M M M M z O l J ^ P P D M M M M M g O z M M c 6 c M M M M M h q q 4 8 8 8 8                           ",
"                          M M M M m l m J K D D S M M M M M m l m M M z . z M M m t t q 8 8 8 8 8 8                             ",
"                          M M M M M M M D D M M M M M M M M M M M M M z = m M M m d q 8 4 4 4 8 8                               ",
"                          M M M M M M M M M M M M m c M M M M M M M M M M M M M M c r 8 4 - 4 8                                 ",
"                          M M M M M M M M M M M M d 6 m M M M M M M M M M m m m c q 4 8 > X 4                                   ",
"                            M M M M M M M M M M M p @ m M M M M M M M M m t r r q 4 8 8 4 4 4                                   ",
"                            M M M M M M M M M M M z g M M M M M M M M m i 5 8 8 8 8 8 4 8 8                                     ",
"                            M M M M M M c k M M M M M M M M M M M M m s : 4 8 8 8 8 8 8 8 8                                     ",
"                            M M M M M M s 6 M M M M M M M M M M M m s > o 4 8 8 8 8 8                                           ",
"                              M M M M M * $ M M M M M M M M M M m t 5 4 4 4 8 8 8 8                                             ",
"                              M M M M M z z M M M M M M M d i m t q 8 8 8 8 8 8 8                                               ",
"                              M M M M M M M M M M M M M h 3 2 s 5 8 8 8 8 8 8 8                                                 ",
"                                M M M M M M M k m m x x r ; + 4 8 8 8 8 8 8 8                                                   ",
"                                  M M m m M m 1 d h 4 4 4 4 4 4 8 8 8 8 8                                                       ",
"                                    M t h M m O 9 u 8 8 8 8 8 8 8 8 8                                                           ",
"                                      q r t t , 4 8 8 8 8 8 8 8                                                                 ",
"                                        8 8 8 8 8 4 8 8 8 8 8 8                                                                 ",
"                                                    8 8                                                                         ",
"                                                                                                                                ",
"                                                                                                                                ",
"                                                                                                                                ",
"                                                                                                                                ",
"                                                                                                                                "
};
