/* XPM */
static char *result[] = {
/* columns rows colors chars-per-pixel */
"64 64 86 1 ",
"  c #66340F",
". c #673610",
"X c #683712",
"o c #693813",
"O c #6E3D19",
"+ c #703F1C",
"@ c #71411D",
"# c #754522",
"$ c #7A4626",
"% c #774826",
"& c #784927",
"* c #7B4C2B",
"= c #7E502F",
"- c #7F5030",
"; c #825434",
": c #8B5337",
"> c #855738",
", c #87593A",
"< c #895C3E",
"1 c #8C5F41",
"2 c #965C43",
"3 c #8E6144",
"4 c #916447",
"5 c #92664A",
"6 c #95694D",
"7 c #976B50",
"8 c #996E53",
"9 c #977056",
"0 c #9C7056",
"q c #9F735A",
"w c #A36751",
"e c #A66955",
"r c #AE6F5C",
"t c #A1765D",
"y c #AF705E",
"u c #A2785F",
"i c #B0715F",
"p c #A67B63",
"a c #A97F67",
"s c #A97F68",
"d c #B47563",
"f c #BE7D6E",
"g c #BF7E70",
"h c #C07E70",
"j c #AC836B",
"k c #AF8670",
"l c #B08771",
"z c #B38B75",
"x c #B78E7A",
"c c #BA917D",
"v c #C18072",
"b c #CB877C",
"n c #BD9582",
"m c #D28D84",
"M c #C09986",
"N c #C49C8B",
"B c #D79289",
"V c #DC958E",
"C c #E69E99",
"Z c #C7A08E",
"A c #C8A18F",
"S c #C4A190",
"D c #CBA493",
"F c #CFA899",
"G c #D1AB9C",
"H c #D5AFA1",
"J c #D6B1A2",
"K c #D9B4A6",
"L c #DBB6A9",
"P c #DEBAAD",
"I c #E0BCAF",
"U c #E3BFB3",
"Y c #E5C1B6",
"T c #E7C3B8",
"R c #E9C6BC",
"E c #EBC8BE",
"W c #DDD2CA",
"Q c #E6CDC6",
"! c #ECCAC1",
"~ c #E6CFC9",
"^ c #F1CEC5",
"/ c #E4D1CD",
"( c #F4E0DB",
") c #F7E9E5",
"_ c #FEF7F5",
"` c None",
/* pixels */
"````````````````````````````````````````````````````````````````",
"```````````````````````````````oooooooooX```````````````````````",
"``````````````````````````````oooooooooooo``````````````````````",
"```````````````````````````ooXoooooXoXooooooo```````````````````",
"````````````````````````oooooooooooooooooXoooo``````````````````",
"```````````````````````oooXoooooooooooXoooooooo`````````````````",
"``````````````````````oooXoooXooooXooooooooooooo````````````````",
"`````````````````````oXoXXXXXXXooXoooooooooXooooo```````````````",
"````````````````````ooXo#*****%XoooooXooooooXoooo```````````````",
"```````````````````oooX+cIIIIIc+ooooooooOoOOOooooo``````````````",
"```````````````````oXX@cIEEEEEUc#XoXoX ,NZZZZM&Xoo``````````````",
"```````````````````oX*jUEE!!^EEYj*XXo8aM^!^!!U= oX``````````````",
"``````````````````oo.1TEEIDDDLEER5#<4K^UDDDK!Y8#Xo``````````````",
"``````````````````oXO7RETz%%%zYER7pTTRTn&&#aYTT8XooXoXo`````````",
"``````````````````o.tLEEutJGGptEELI!EEj8JJJj8TE8.oooXXooo```````",
"``````````````````o.j^EE58E^^t1REEEEEE85EE!j,TE0.XOpnpoXoo``````",
"``````````````````o.j!!R58!E!t1TEEREEE86EEEj,TE8.oOF^J7+XX``````",
"``````````````````X.j!ERuaEEEjtEEEEEE^stEEEz8TE8.XOD!EI*Xoo`````",
"```````````````oooo.j!EEYYEEEYUEEEEEEEUUEEETUEE8XoODEEL;ooo`````",
"``````````````XoXXX.j!EEEEEEEEEEEEEEEEEEEEEEEE!8XooD^ETG<Xo`````",
"`````````````o. ;jjjFEEEEEEEEEEEEEEEEEEEEEEEE!!8.XODEEEE7Xo`````",
"`````````````o,3l^E!EEEEEEEEEEEEEREEEEEEEEEEUZN3XXOD!ETD<XX`````",
"```````````XO-JTTEEREEEEETPIIYEEREEEEEEEEEEEF+Oooo+D!EI;Xoo`````",
"``````````XX>JTEEEEEEEEEEn**&cEEEEEEEEEEEEEEDOXoXoOD!EI$Xo``````",
"``````````.4DEEEEEEEREEE^zXXXlEEEEEEEEEEEE!N<ooooXOD^J5@X```````",
"`````````` a!EEEEEEEEEEE^zooXl!EEEEEEEEEEEN4XooooXOpxqXX````````",
"`````````` a!EEEUJEEEEEGGpXo*n!EEEUKRREEET3XXooXoooXXXXo````````",
"`````````` pEEE!c>LYTTK;#@O+NUYYUTk<UEEEET5oXooooooo````````````",
"``````````.p!EE!cO>>>>;oebd+;>>,,>#>YEEEERKqXooooX``````````````",
"````````/T-p!EE!Juo :irrmCVdrr2X.7lnT!EEEE!j.oXoo````Q/!````````",
"```````/~Q<4FEEEEI7@<hfhBCVvhhw+2F^EEEEERE!j.oooo```!Q~Q!```````",
"``````/~!~8O,KTEEEY6$;#OiBh@#$$,LEEEEEEEE!!j.oooo``EQ~!/!E``````",
"``````EQ/EUpo;K!EERILLF*@$$@MLKIEEEEEEEEEE!jXXoo.`REEQ/!EE``````",
"``````E!!E!Lj#J!EEEEE!TDNMMNU^EEEEEEEEEEEE^jXX```@5J!EQ)(```````",
"```````EERMFP&alN^^EEEEE^E^EEEEEEEEEEEE!EEN3Xo```XoqGE!_````````",
"````````ET>8D`..2FFU!EE^EEEE!EEEEEEEEEKFFD>Xo```oXXXp!R`````````",
"``````````oOOo`oo@#SUUUUUUUUUUUUYYUYYYqO@+oo```oooXo```oooo`````",
"``````````Xoooo````;;;;;;;;;;;;;-;-;;;@XX```ooooooo```XooooXX```",
"```````````oooo`````X..XX.oXX.X.  ..XXXXo``ooooooo`ooooo``oooo``",
"````````````oooo````ooXoXooXXX#56%XXXoooo`ooXoXooo`oooo````oooo`",
"````````````ooooXo`oooooXoo***tTT0**&Oooooooooooo``ooo``````ooX`",
"`````````````oXooooooXooXX>JPIUEEYPPG;XXoooXooo```XooX``````ooo`",
"``````````````oooooooXooX4FREEEEEEE!Y;XXoooooo```oooo```````ooo`",
"```````````````oXoooooooXtEEEEEEEEEETz;Xooooo```oooo````````ooo`",
"````````````````ooXooooo.tRREEEEEEEEEEqXoXooo``Xooo`````````ooo`",
"``````````````````oooooo.tREEEEEEEEEEEqXoo```Xooooo````````Xo```",
"```````````````````ooooXX0EEREEEEEEEEEt oo``ooooo`````````W#````",
"```````````````````oooooXt!EEEEEEEEEE!q oooooooo````````````````",
"```````````````````oXoooX<NTEEEEEEEEEN<XooooooX`````````````````",
"```````````````````ooooXo.;Y!EEEE!RTG*XooXooo```````````````````",
"````````````````````oooooX;PTTEEEEEF&ooooo``````````````````````",
"````````````````````ooooooO,<M!RE!M;ooooo```````````````````````",
"`````````````````````oooooo..<n!EM<XoooX````````````````````````",
"``````````````````````ooooooX.,NN, Xoooo````````````````````````",
"````````````````````````oXoooooOOoXXoooo````````````````````````",
"```````````````````````ooooo`ooooXo`ooXoo```````````````````````",
"```````````````````````ooXoo`````````oooX```````````````````````",
"```````````````````````Xoooo`````````XooX```````````````````````",
"```````````````````````Xooo``````````oooO```````````````````````",
"```````````````````````@ooX```````````oo;PEE!E``````````````````",
"`````````````````EE/QETG1XX``````````` <GTEQ//!`````````````````",
"`````````````````!Q/QE!~Sll```````````lN!Q!QQ/!`````````````````",
"`````````````````!//QEQ/Q!^```````````!!!/!EQ/!`````````````````",
"```````````````````EE!//!EE```````````EEE/QE````````````````````"
};
