/* XPM */
static char *result[] = {
/* columns rows colors chars-per-pixel */
"64 64 147 2 ",
"   c #3C3C3C",
".  c #3F5F4E",
"X  c #326C4E",
"o  c #434343",
"O  c #4D4D4D",
"+  c #535353",
"@  c #5B5B5B",
"#  c #626262",
"$  c #6A6A6A",
"%  c #737373",
"&  c #7C7C7C",
"*  c #5DB63E",
"=  c #60B53C",
"-  c #68BC3D",
";  c #029846",
":  c #069C4A",
">  c #159D4E",
",  c #049F50",
"<  c #129F52",
"1  c #2B995D",
"2  c #0BA14F",
"3  c #12A34E",
"4  c #1DA54B",
"5  c #1EA84C",
"6  c #07A050",
"7  c #0BA451",
"8  c #0CAB54",
"9  c #10A453",
"0  c #16AD51",
"q  c #0CB157",
"w  c #07B75C",
"e  c #0CB559",
"r  c #0DBE5E",
"t  c #1AB856",
"y  c #12BE5C",
"u  c #1FBE58",
"i  c #24AA4B",
"p  c #2EAA48",
"a  c #33AB47",
"s  c #3CAB44",
"d  c #37BE4F",
"f  c #24BD55",
"g  c #2ABD53",
"h  c #30BE51",
"j  c #379D65",
"k  c #3C9B67",
"l  c #07BE60",
"z  c #15BB60",
"x  c #1BB863",
"c  c #2CA061",
"v  c #2EAF69",
"b  c #32AD6A",
"n  c #25B366",
"m  c #29B267",
"M  c #44B043",
"N  c #4AB142",
"B  c #4DBD47",
"V  c #45BD4A",
"C  c #52BD45",
"Z  c #60BC40",
"A  c #49936A",
"S  c #53916F",
"D  c #4A9D70",
"F  c #539E75",
"G  c #5E9878",
"H  c #5D9375",
"J  c #6D8D7C",
"K  c #738E7F",
"L  c #649479",
"P  c #6C917D",
"I  c #619A7B",
"U  c #43A56F",
"Y  c #0CC05E",
"T  c #14C05C",
"R  c #2BC456",
"E  c #24C258",
"W  c #35C553",
"Q  c #39C552",
"!  c #46C74F",
"~  c #4EC84C",
"^  c #53C94B",
"/  c #5BCA49",
"(  c #61C645",
")  c #67CC45",
"_  c #6ACC45",
"`  c #75CE42",
"'  c #7DCF40",
"]  c #BFBA1E",
"[  c #93B62B",
"{  c #92BA2E",
"}  c #9CBA2A",
"|  c #85BB32",
" . c #89BB31",
".. c #A9B523",
"X. c #ADBA24",
"o. c #A0BA29",
"O. c #B5B921",
"+. c #C4B91C",
"@. c #CBB919",
"#. c #D3B716",
"$. c #D4B917",
"%. c #DABE17",
"&. c #D5BC18",
"*. c #9AC32F",
"=. c #84C136",
"-. c #8CC334",
";. c #8ACE3B",
":. c #96C632",
">. c #94CE37",
",. c #8BD23C",
"<. c #ADCD2F",
"1. c #B5CD2B",
"2. c #BACF2A",
"3. c #BBD42D",
"4. c #A1C830",
"5. c #A4D435",
"6. c #D6C61C",
"7. c #DDC319",
"8. c #E2C719",
"9. c #E5C919",
"0. c #EBCF1A",
"q. c #EED21A",
"w. c #F2D51B",
"e. c #F9D719",
"r. c #F6DD1D",
"t. c #FADE1C",
"y. c #F4E01F",
"u. c #FFE11C",
"i. c #CFD526",
"p. c #C3D229",
"a. c #C8D529",
"s. c #C5D92C",
"d. c #CDDA2A",
"f. c #D9D221",
"g. c #D6DB27",
"h. c #D9DB26",
"j. c #E5DB22",
"k. c #EBDE21",
"l. c #7D8781",
"z. c #778C80",
"x. c #7E8883",
"c. c #858585",
"v. c #898487",
"b. c #8A8A8A",
"n. c #939393",
"m. c #9D9D9D",
"M. c None",
/* pixels */
"M.M.M.M.M.M.M.M.M.M.M.M.M.M.M.M.M.M.M.M.M.M.M.M.M.M.M.M.M.M.M.M.M.M.M.M.M.M.M.M.M.M.M.M.M.M.M.M.M.M.M.M.M.M.M.M.M.M.M.M.M.M.M.M.",
"M.M.M.M.M.M.M.M.M.M.M.M.M.M.M.M.M.M.M.M.M.M.M.M.M.M.M.M.M.M.M.M.M.M.M.M.M.M.M.M.M.M.M.M.M.M.M.M.M.M.M.M.M.M.M.M.M.M.M.M.M.M.M.M.",
"M.M.M.M.M.M.M.M.M.M.M.M.M.M.M.M.M.M.M.M.M.M.M.M.M.M.M.M.M.M.M.M.M.M.M.M.M.M.M.M.M.M.M.M.M.M.M.M.M.M.M.M.M.M.M.M.M.M.M.M.M.M.M.M.",
"M.M.M.M.M.M.M.M.M.M.M.M.M.M.M.M.M.M.M.M.M.M.M.M.M.M.M.M.M.M.M.M.M.M.M.M.M.M.M.M.M.M.M.M.M.M.M.M.M.M.M.M.M.M.M.M.M.M.M.M.M.M.M.M.",
"M.M.M.M.M.M.M.M.M.M.M.M.M.M.M.M.M.M.M.M.M.M.M.M.M.M.M.M.M.M.M.M.M.M.M.M.M.M.M.M.M.M.M.M.M.M.M.M.M.M.M.M.M.M.M.M.M.M.M.M.M.M.M.M.",
"M.M.M.M.M.M.M.M.M.M.M.M.M.M.M.M.M.M.M.M.M.M.M.M.M.M.M.M.M.M.M.M.M.M.M.M.M.M.M.M.M.M.M.M.M.M.M.M.M.M.M.M.M.M.M.M.M.M.M.M.M.M.M.M.",
"M.M.M.M.M.M.M.M.M.M.M.M.M.M.M.M.M.M.M.M.M.M.M.M.M.M.M.M.M.M.M.M.M.M.M.M.M.M.M.M.M.M.M.M.M.M.M.M.M.M.M.M.M.M.M.M.M.M.M.M.M.M.M.M.",
"M.M.M.M.M.M.M.M.M.M.M.M.M.M.M.M.M.M.M.M.M.M.M.M.M.M.M.M.M.M.M.M.M.M.M.M.M.M.M.M.M.M.M.M.M.M.M.M.M.M.M.M.M.M.M.M.M.M.M.M.M.M.M.M.",
"M.M.M.M.M.M.M.M.M.M.M.M.M.M.M.M.M.M.M.M.M.M.M.M.M.M.M.M.M.M.M.M.M.M.M.M.M.M.M.M.M.M.M.M.M.M.M.M.M.M.M.M.M.M.M.M.M.M.M.M.M.M.M.M.",
"M.M.M.M.M.M.M.M.M.M.M.M.M.M.M.M.M.M.M.M.M.M.M.M.M.M.M.M.M.M.M.M.M.M.M.M.M.M.M.M.2 2 M.M.M.M.M.M.M.M.M.M.M.M.M.M.M.M.M.M.M.M.M.M.",
"M.M.M.M.M.M.M.M.M.M.M.M.m.m.m.m.m.m.m.m.m.m.m.m.M.M.M.M.M.M.M.M.M.M.M.M.M.M.M.7 2 2 M.M.M.M.M.M.M.M.M.M.M.M.M.M.M.M.M.M.M.M.M.M.",
"M.M.M.M.M.M.M.M.M.M.M.n.n.n.n.n.n.n.n.n.n.n.n.n.m.M.M.M.M.M.M.M.M.M.M.M.M.M.2 7 8 7 M.M.M.M.M.M.M.M.M.M.M.M.M.M.M.M.M.M.M.M.M.M.",
"M.M.M.M.M.M.M.m.m.m.m.n.b.c.c.c.c.c.c.c.c.c.c.c.n.n.M.M.M.M.M.M.M.M.M.M.M.2 7 8 r 7 M.M.M.M.M.M.M.M.M.M.M.M.M.M.M.M.M.M.M.M.M.M.",
"M.M.M.M.M.M.m.m.n.c.c.c.c.c.c.c.c.c.c.c.c.c.c.c.c.n.m.M.M.M.M.M.M.M.M.2 2 7 e r r 7 M.M.M.M.M.M.M.M.M.M.M.M.M.M.M.M.M.M.M.M.M.M.",
"M.M.M.M.M.m.m.m.b.c.c.c.c.c.c.c.c.c.c.c.c.c.c.c.c.n.m.M.M.M.M.M.M.7 7 7 7 e y r e 7 M.M.M.M.M.M.M.M.M.M.M.M.M.M.M.M.M.M.M.M.M.M.",
"M.M.M.M.m.m.n.b.c.c.c.c.c.c.c.c.c.c.c.c.c.c.c.c.c.b.n.m.M.M.M.M.9 7 8 8 2 8 8 e r e 7 M.M.M.M.M.M.M.M.M.M.M.M.M.M.M.M.M.M.M.M.M.",
"M.M.M.M.n.n.b.c.c.c.c.c.c.c.c.c.c.c.c.c.c.c.c.c.c.c.b.n.M.M.M.M.2 8 q r 8 8 7 8 r r 8 : M.M.M.M.M.M.M.M.M.M.M.M.M.M.M.M.M.M.M.M.",
"M.M.M.M.c.c.c.b.c.c.c.c.c.& & & & c.c.c.c.c.c.c.c.c.c.c.M.2 2 2 2 8 r r r r e 8 r r 8 2 M.M.M.M.M.M.M.M.M.M.M.M.M.M.M.M.M.M.M.M.",
"M.M.M.m.c.c.c.c.c.c.c.c.% o o   @ c.c.c.c.c.c.c.c.c.c.c.M.6 2 2 7 2 7 7 7 r y r r r 8 < M.M.M.M.M.M.M.M.M.M.M.M.M.M.M.M.M.M.M.M.",
"M.M.M.m.c.c.c.c.c.c.c.$ o   $ +   @ & c.c.c.c.c.c.c.c.c.1 2 8 e e 7 8 e e r Y r T l 7 7 M.M.M.M.M.M.M.M.M.M.M.M.M.M.M.2 2 2 2 2 ",
"M.M.M.m.c.c.c.c.c.c.c.# o # & % O o c.c.c.c.c.c.c.c.c.c.G c 8 Y T e e Y Y r Y r r r 7 7 M.M.M.M.M.M.M.M.M.2 < : 2 2 7 q 8 e q e ",
"M.M.M.n.b.c.c.c.c.c.b.$ @ c.c.v.% @ K c.c.c.c.c.c.c.c.c.n.D 8 e l T l Y r r r Y l y 7 < M.M.M.M.M.M.M.M.2 7 8 8 8 8 8 r Y Y r e ",
"M.M.M.m.v.c.c.c.c.c.c.c.c.v.c.c.v.v.c.c.c.c.c.c.c.c.c.c.c.A < 2 e r T l r Y r r r 7 2 2 M.M.7 7 7 7 7 7 7 7 r r r r r r r r e < ",
"M.M.M.m.m.b.c.c.c.c.c.c.c.c.c.c.c.v.c.c.c.c.c.c.c.c.c.c.c.x.S < 7 r l T Y r 8 7 2 2 2 2 7 r r r r y r e r r r r r r Y r Y r e 2 ",
"M.M.M.M.m.b.v.v.v.c.c.c.c.c.c.c.c.c.c.c.c.c.c.c.c.c.c.c.c.v.L e e y r r 8 8 7 7 e e e e e r l T T l T l r r Y r r e 8 8 8 8 8 2 ",
"M.M.M.M.% & v.v.c.c.c.c.c.c.c.c.c.c.c.c.c.c.c.c.c.c.c.c.v.J k e r r r 8 2 8 8 e l T T Y l Y r T l Y r r Y Y r r r q 8 8 8 q 8 2 ",
"M.M.M.M.  $ % & c.c.c.c.c.c.c.c.c.c.c.c.c.c.c.c.c.c.c.P P j 7 2 r w q 2 7 r r Y Y l T l T r Y l T r l T r Y r r 8 8 r r Y r q 2 ",
"M.M.M.      . @ c.c.c.c.c.c.c.c.c.c.c.c.c.c.c.l.x.x.P x y Y e 2 t 0 3 8 r Y r r r T l Y l T l T l Y T l Y y r y r r r r r 8 2 2 ",
"M.            + c.c.c.c.c.c.c.c.c.c.c.c.v.J m n n m n r Y Y w 4 [ ..= r r r Y r l T r r T l Y r T Y l T r r r 8 7 8 8 7 8 2 2 M.",
"          o o O $ c.c.c.c.c.c.c.c.c.c.c.L b r r Y Y Y r r ^ >.*.@.#.X.Z y r l Y T l l T r T l T l y Y r r r r 2 8 q q q 2 2 M.M.",
"      o o O O O + c.c.c.c.c.c.c.c.v.v.J b r r r r r r r ! 3.u.u.9.&.#.O.C T Y y l T l Y Y l Y l l Y l T r r r 8 r r e e 8 M.M.M.",
"        O O O O @ & c.c.c.c.c.l.K K K m r r e i g R E W d.u.u.u.t.9.&.&.+.V y Y Y r T y l T y l T r T l r r r r r 8 2 2 M.M.M.M.",
"  o O O O O O @ & c.c.c.c.c.c.U x x x T q 7 i s.j.j.j.j.t.u.u.u.u.t.t.w.$.] C r r r r Y r r l T r r Y l r e 7 7 7 7 2 2 M.M.M.M.",
"o O O O M.M.M.% v.c.v.G v b b x Y Y l l ( 1.3.y.u.u.t.u.u.u.u.u.u.u.u.t.q.%.X.{ { { h r r Y T l l T y q 8 8 7 2 2 2 M.M.M.M.M.M.",
"+ O O M.M.M.M.M.x.F D v Y Y Y Y Y Y T / s.u.u.u.u.u.u.u.u.u.u.u.u.u.u.u.t.0.%.#.#.$.| d Y r r Y r r r e 8 8 8 7 2 M.M.M.M.M.M.M.",
"M.M.M.M.M.M.M.M.H z Y Y r Y r T Y r T s.u.u.u.u.u.u.u.u.u.u.u.u.u.u.u.u.u.u.0.%.#.#.&. .g Y Y r r r r r e r e 7 M.M.M.M.M.M.M.M.",
"M.M.M.M.M.M.M.M.9 r r r l T l l r r E s.u.u.u.u.u.u.u.u.u.u.u.u.u.u.u.u.u.u.u.q.&.%.$.@.} f Y r r r r 8 7 < 7 2 M.M.M.M.M.M.M.M.",
"M.M.M.M.M.M.M.M.7 r Y z Y r y Y l W s.y.u.u.u.u.u.u.u.u.u.u.u.u.u.u.u.u.u.u.u.t.w.w.7.#.+.} g q 7 7 8 e 8 : 2 M.M.M.M.M.M.M.M.M.",
"M.M.M.M.M.M.M.M.7 r Y Y l T r T l W k.u.u.u.u.u.u.u.u.u.u.u.u.u.u.u.u.u.u.u.u.u.u.u.w.q.9.+.g w e e q 8 8 7 M.M.M.M.M.M.M.M.M.M.",
"M.M.M.M.M.M.M.M.7 r r Y T l Y l Y W k.u.u.u.u.u.u.u.u.u.u.u.u.u.u.u.u.u.u.u.u.u.u.u.u.u.t.6.- C d l r 8 2 M.M.M.M.M.M.M.M.M.M.M.",
"M.M.M.M.M.M.M.M.7 r l y r l T r l Q k.u.u.u.u.u.u.u.u.u.u.u.u.u.u.u.u.u.u.u.u.u.u.u.u.u.u.t.7.&.{ g g M.M.M.M.M.M.M.M.M.M.M.M.M.",
"M.M.M.M.M.M.M.M.7 y y l r y l T Y Q k.u.u.u.u.u.u.u.u.u.u.u.u.u.u.u.u.u.u.u.u.u.u.u.u.u.u.u.t.8.@.] O.s 7 2 7 7 2 2 M.M.M.M.M.M.",
"M.M.M.M.M.M.M.M.7 8 r y l Y l l ~ s.u.u.u.u.u.u.u.u.u.u.u.u.u.u.u.u.u.u.t.u.u.u.u.u.u.u.e.7.7.q.e.f.^ t e e e e 8 2 7 2 < 2 2 2 ",
"M.M.M.M.M.M.M.M.: 7 e Y y r T l _ u.u.u.u.u.u.u.u.u.u.u.u.u.u.u.u.u.u.u.u.u.u.u.u.u.u.w.8.&.9.<.,.` T l r r r r e 8 8 q 8 8 2 2 ",
"M.M.M.M.M.M.M.M.M.2 e r y Y r l ) u.u.u.u.u.u.u.u.u.u.u.u.u.t.u.u.u.u.u.u.u.u.u.u.u.u.q.7.7.a.^ l l r r r Y r r r r e r e 8 2 2 ",
"M.M.M.M.M.M.M.M.M.7 e Y Y r Y T ` u.u.u.u.u.u.u.u.u.u.u.u.u.u.u.u.u.u.u.u.u.u.u.u.u.u.u.y.h.Q r r r r r Y T Y r r q 2 7 7 2 2 2 ",
"M.M.M.M.M.M.M.M.M.7 e Y l T Y ,.k.u.u.u.u.u.u.u.u.u.u.u.u.u.u.u.u.u.u.u.u.u.u.u.u.u.u.u.d.Q T Y r r 8 r Y Y r 8 2 2 2 2 2 : ; M.",
"M.M.M.M.M.M.M.M.M.M.8 e Y r l 5.u.u.u.u.u.u.u.u.u.u.u.u.u.u.u.u.u.u.u.u.u.u.u.u.u.u.u.u.s.T r r r r e 8 8 8 8 7 2 2 2 2 2 M.M.M.",
"M.M.M.M.M.M.M.M.M.M.2 8 e T / s.u.u.u.u.u.u.u.u.u.u.u.u.u.u.u.u.u.u.u.u.u.u.u.u.u.u.u.g.' y r r q q e 7 2 2 2 2 2 2 2 2 M.M.M.M.",
"M.M.M.M.M.M.M.M.M.M.2 2 7 f g.u.u.u.u.u.u.u.u.u.u.u.u.u.u.u.u.u.u.u.u.u.u.u.u.u.u.u.u.;.e r e 8 2 2 2 2 2 2 2 2 M.M.M.M.2 M.M.M.",
"M.M.M.M.M.M.M.M.M.M.M.2 7 5 i.y.y.u.u.u.u.u.u.u.u.u.u.u.u.u.u.u.u.u.u.u.u.r.y.y.y.r.t.=.7 7 7 2 2 2 2 2 2 M.M.M.M.M.M.M.M.M.M.M.",
"M.M.M.M.M.M.M.M.M.M.M.M.M.3 s N -.u.u.u.u.u.u.u.u.u.u.u.u.u.u.u.u.u.u.u.r.- M M N N N i 2 2 2 2 M.M.M.M.M.M.M.M.M.M.M.M.M.M.M.M.",
"M.M.M.M.M.M.M.M.M.M.M.M.M.M.M., a :.t.u.u.u.u.u.u.u.u.u.u.u.u.u.u.u.u.u.t.4.-.* 2 6 6 7 M.M.M.M.M.M.M.M.M.M.M.M.M.M.M.M.M.M.M.M.",
"M.M.M.M.M.M.M.M.M.M.M.M.M.M.M.M.: i <.2.3.i.u.u.u.u.u.u.u.u.u.u.u.u.j.3.2.3.p.| 2 2 2 M.M.M.M.M.M.M.M.M.M.M.M.M.M.M.M.M.M.M.M.M.",
"M.M.M.M.M.M.M.M.M.M.M.M.M.M.M.M.M.2 3 3 2 N j.j.j.j.k.j.j.j.j.j.j.q.=.2 3 3 > > 2 M.M.M.M.M.M.M.M.M.M.M.M.M.M.M.M.M.M.M.M.M.M.M.",
"M.M.M.M.M.M.M.M.M.M.M.M.M.M.M.M.M.M.M.M.2 3 p a p p p p p p a p p a 4 2 M.M.. . M.M.M.M.M.M.M.M.M.M.M.M.M.M.M.M.M.M.M.M.M.M.M.M.",
"M.M.M.M.M.M.M.M.M.M.M.M.M.M.M.M.M.M.M.M.M.M.M.M.M.M.M.X M.M.M.M.M.M.M.M.M.M.O O M.M.M.M.M.M.M.M.M.M.M.M.M.M.M.M.M.M.M.M.M.M.M.M.",
"M.M.M.M.M.M.M.M.M.M.M.M.M.M.M.M.M.M.M.M.M.M.M.M.M.M.O O O M.M.M.M.M.M.M.M.M.O O M.M.M.M.M.M.M.M.M.M.M.M.M.M.M.M.M.M.M.M.M.M.M.M.",
"M.M.M.M.M.M.M.M.M.M.M.M.M.M.M.M.M.M.M.M.M.M.M.M.O O O O O O O M.M.M.M.M.O O O O O O M.M.M.M.M.M.M.M.M.M.M.M.M.M.M.M.M.M.M.M.M.M.",
"M.M.M.M.M.M.M.M.M.M.M.M.M.M.M.M.M.M.M.M.M.M.M.O O O M.O M.O O M.M.M.M.+ O M.O O M.O O M.M.M.M.M.M.M.M.M.M.M.M.M.M.M.M.M.M.M.M.M.",
"M.M.M.M.M.M.M.M.M.M.M.M.M.M.M.M.M.M.M.M.M.M.M.O M.M.O O M.+ O M.M.M.M.M.M.O O O M.M.M.M.M.M.M.M.M.M.M.M.M.M.M.M.M.M.M.M.M.M.M.M.",
"M.M.M.M.M.M.M.M.M.M.M.M.M.M.M.M.M.M.M.M.M.M.M.M.M.M.O M.M.M.M.M.M.M.M.M.M.O O M.M.M.M.M.M.M.M.M.M.M.M.M.M.M.M.M.M.M.M.M.M.M.M.M.",
"M.M.M.M.M.M.M.M.M.M.M.M.M.M.M.M.M.M.M.M.M.M.M.M.M.M.O M.M.M.M.M.M.M.M.M.M.O M.M.M.M.M.M.M.M.M.M.M.M.M.M.M.M.M.M.M.M.M.M.M.M.M.M.",
"M.M.M.M.M.M.M.M.M.M.M.M.M.M.M.M.M.M.M.M.M.M.M.M.M.M.M.M.M.M.M.M.M.M.M.M.M.M.M.M.M.M.M.M.M.M.M.M.M.M.M.M.M.M.M.M.    M.M.M.M.M.M."
};
