/* XPM */
static char *result[] = {
/* columns rows colors chars-per-pixel */
"64 64 51 1 ",
"  c #65340E",
". c #66340E",
"X c #66350F",
"o c #673610",
"O c #673611",
"+ c #683711",
"@ c #683712",
"# c #693712",
"$ c #693812",
"% c #693813",
"& c #6B3B16",
"* c #6C3B17",
"= c #6E3D19",
"- c #6F3F1B",
"; c #703F1C",
": c #70401D",
"> c #72421F",
", c #7B4C2B",
"< c #87593A",
"1 c #885A3B",
"2 c #926548",
"3 c #9B7055",
"4 c #9E7359",
"5 c #9F7359",
"6 c #AC836C",
"7 c #BA927E",
"8 c #BC9480",
"9 c #C9A391",
"0 c #CDA797",
"q c #CEA898",
"w c #CFA899",
"e c #CFA999",
"r c #D0AA9A",
"t c #D2AC9D",
"y c #D9B4A6",
"u c #DDB9AC",
"i c #E3BFB3",
"p c #E3C0B4",
"a c #E6C3B8",
"s c #E7C4B9",
"d c #EAC6BC",
"f c #EAC7BD",
"g c #EBC8BE",
"h c #EBC9BF",
"j c #ECC9BF",
"k c #ECC9C0",
"l c #EDCAC0",
"z c #EDCAC1",
"x c #EFCCC3",
"c c white",
"v c None",
/* pixels */
"vvvvvvvvvvvvvvvvvvvvvvvvvvvvvvvvvvvvvvvvvvvvvvvvvvvvvvvvvvvvvvvv",
"vvvvvvvvvvvvvvvvvvvvvvvvvv%%%%%%%%%%%%vvvvvvvvvvvvvvvvvvvvvvvvvv",
"vvvvvvvvvvvvvvvvvvvvvvvvv%%%%%%%%%%%%%%vvvvvvvvvvvvvvvvvvvvvvvvv",
"vvvvvvvvvvvvvvvvvvvvvv%%%%%%%%%%%%%%%%%%vvvvvvvvvvvvvvvvvvvvvvvv",
"vvvvvvvvvvvvvvvvvvvv%%%%%%%%%%%%%%%%%%%%%%vvvvvvvvvvvvvvvvvvvvvv",
"vvvvvvvvvvvvvvvvvvv%%%%%%%%%%%%%%%%%%%%%%%%vvvvvvvvvvvvvvvvvvvvv",
"vvvvvvvvvvvvvvvvvv%%%%%%%%%%%%%%%%%%%%%%%%%%vvvvvvvvvvvvvvvvvvvv",
"vvvvvvvvvvvvvvvvvv%%%%%%%%%%%%%%%%%%%%%%%%%%%vvvvvvvvvvvvvvvvvvv",
"vvvvvvvvvvvvvvvvvv%%%%%%%%%%%%%%%%%%%%%%%%%%%%vvvvvvvvvvvvvvvvvv",
"vvvvvvvvvvvvvvvvv%%%%%%%%%%%%%%%%%%%%%%%%%%%%%%vvvvvvvvvvvvvvvvv",
"vvvvvvvvvvvvvvvvv%%%%%%%%%%%%%%%%%%%%%%%%%%%%%%%vvvvvvvvvvvvvvvv",
"vvvvvvvvvvvvvvvvv%%%%%%%%%%%%%%%%%%%%%%%%%%%%%%%%vvvvvvvvvvvvvvv",
"vvvvvvvvvvvvvvvv%%%%%%%%%%%%%%%%%%%%%%%%%%%%%%%%%vvvvvvvvvvvvvvv",
"vvvvvvvvvvvvvvv%%%%%%%%%%%%%%%%%%%%%%%%%%%%%%%%%%vvvvvvvvvvvvvvv",
"vvvvvvvvv%%%%%%%%%%%%%%%%%%%%%%%%%%%%%%%%%%%%%%%%vvvvvvvvvvvvvvv",
"vvvvvvvv%%%%%%%%%%%%%%%%%%%%%%%%%%%%%%%%%%%%%%%%%%%%%%%vvvvvvvvv",
"vvvvvvvv%%%%%%%%%%%%%%%%%%%%%%%%%%%%%%%%%%%%%%%%%%%%%%%vvvvvvvvv",
"vvvvvvvv%%%%%%%%%%%%%%%%%%%%%%%%%%%%%%%%%%%%%%%%%%%%%%%%vvvvvvvv",
"vvvvvvvv%%%%%%%%%%%%%%%%%%%%%%%%%%%%%%%%%%%%%%%%%%%%%%%%vvvvvvvv",
"vvvvvvvv%%%%%%%%%%%%%%%%%%%%%%%%%%%%%%%%%%%%%%%%%%%%%%%%vvvvvvvv",
"vvvvvvvv%%%%%%%%%%%%%%%%%%%%%%%%%%%%%%%%%%%%%%%%%%%%%%%%vvvvvvvv",
"vvvvvvvv%%%%%%%%%%%%%%%%%%%%%%%%%%%%%%%%%%%%%%%%%%%%%%%%vvvvvvvv",
"vvvvvvvv%%%%%%%%%%%%%%%%%%%%%%%%%%%%%%%%%%%%%%%%%%%%%%%%vvvvvvvv",
"vvvvvvvvv%%%%%%%%%%%%%%%%%%%%%%%%%%%%%%%%%%%%%%%%%%%%%%%vvvvvvvv",
"vvvvvvvvvvvvvv%%%%%%%%%%%%%%%%%%%%%%%%%%%%%%%%%%%%%%%%%vvvvvvvvv",
"vvvvvvvvvvvvvvv%%%%%%%%%%%%%%%%%%%%%%%%%%%%%%%%%%%%%%%%vvvvvvvvv",
"vvvvvvvvvvvvvvv%%%%%%%%%%%%%%%%%%%%%%%%%%%%%%%%%%vvvvvvvvvvvvvvv",
"vvvvvvvvvvvvvvv%%%%%%%%%%%%%%%%%%%%%%%%%%%%%%%%%%vvvvvvvvvvvvvvv",
"vvvvvvvvvvvvvvvv%%%%%%%%%%%%%%%%%%%%%%%%%%%%%%%%vvvvvvvvvvvvvvvv",
"vvvvvvvvvvvvvvvvv%%%%%%%%%%%%%%%%%%%%%%%%%%%%%%vvvvvvvvvvvvvvvvv",
"vvvvvvvvvvvvvvvvvv%%%%%%%%%%%%%%%%%%%%%%%%%%%%%vvvvvvvvvvvvvvvvv",
"vvvvvvvvvvvvvvvvvv%%%%%%%%%%%%%%%%%%%%%%%%%%%%vvvvvvvvvvvvvvvvvv",
"vvvvvvvvvvvvvvvvvv%%%%%%%%%%%%%%%%%%%%%%%%%%%vvvvvvvvvvvvvvvvvvv",
"vvvvvvvvvvvvvvvvvvvv%%%%%%%%%%%%%%%%%%%%%%%%vvvvvvvvvvvvvvvvvvvv",
"vvvvvvvvvvvvvvvvvvvvv%%%%%%%%%%%%%%%%%%%%%%vvvvvvvvvvvvvvvvvvvvv",
"vvvvvvvvvvvvvvvvvvvvvv%%%%%%%%%%%%%%%%%%%%vvvvvvvvvvvvvvvvvvvvvv",
"vvvvvvvvvvvvvvvvvvvvvvv%%%%%%%%%%%%%%%%%%%vvvvvvvvvvvvv%%%%vvvvv",
"vvvvvvvvvvvvvvvvvvvvvv%%%%%%%%%%%%%%%%%%%%%vvvvvvvvvvv%%%%%%%vvv",
"vvvvvvvvvvvvvvvvvvvvv%%%%%%%%%%%%%%%%%%%%%%%vvvvvvvv%%%%vv%%%%vv",
"vvvvvvvvvvvvvvvvvvvv%%%%%%%%%%%%%%%%%%%%%%%%%vvvvvv%%%%vvvv%%%%v",
"vvvvvvvvvvvvvvvvvvv%%%%%%%%%%%%%%%%%%%%%%%%%%%vvvvv%%%vvvvvv%%%v",
"vvvvvvvvvvvvvvvvvv%%%%%%%%%%%%%%%%%%%%%%%%%%%%%vvv%%%%vvvvvv%%%v",
"vvvvvvvvvvvvvvvvv%%%%%%%%%%%%%%%%%%%%%%%%%%%%%%%%%%%%vvvvvvv%%%v",
"vvvvvvvvvvvvvvvv%%%%%%%%%%%%%%%%%%%%%%%%%%%%%%%%%%OXvvvvvvvv%%%v",
"vvvvvvvvvvvvvvv%%%%%%%%%%%%%%%%%%%%%%%%%%%%%%%%%@=1vvvvvvvvv%%%v",
"vvvvvvvvvvvvvv%%%%%%%%%%%%%%%%%%%%%%%%%%%%vv%%%%*<ufgvvvvvv%%vvv",
"vvvvvvvvvvvvvv%%%%v%%%%%%%%%%%%%%%%%%%%%%%vv%%%o2ydggggvvvv%vvvv",
"vvvvvvvvvvvvv%%%%%v%%%%%%%%%%%%%%%%%%%%%%%%%%%%3ekgggggvvvvvvvvv",
"vvvvvvvvvvvvv%+@%%v%%%%%%%%%%%%%%%%%%%%%%%%%%%%8xggggggvvvvvvvvv",
"vvvvvvvvvvvvv&,>@vv%%%%%%%%%%%%%%%%%%%%%%%%%%vvvvggggggvvvvvvvvv",
"vvvvvvvvvvgz9,0vvvvv%%%%%%%%%%%%%%%%%%%%%%%%vvvvvvggggvvvvvvvvvv",
"vvvvvvvvvgghiwavvvvv%%%%%%%%%%%%%%%%%%%%%vvvvvvvvvvvvvvvvvvvvvvv",
"vvvvvvvvvggghljvvvvvv%%%%%%%%%%%%%%%%%%%vvvvvvvvvvvvvvvvvvvvvvvv",
"vvvvvvvvvgggggvvvvvvvv%%%%%%%%%%%%%%%%%%vvvvvvvvvvvvvvvvvvvvvvvv",
"vvvvvvvvvgggggvvvvvvvvv%%%%%%%%%%%%%%%%%vvvvvvvvvvvvvvvvvvvvvvvv",
"vvvvvvvvvggggvvvvvvvvvv%%%%%v%%%%%%%%%%%vvvvvvvvvvvvvvvvvvvvvvvv",
"vvvvvvvvvvvvvvvvvvvvvvv%%%%%vvvvvv oooo.vvvvvcvvvvvvvvvvvvvvvvvv",
"vvvvvvvvvvvvvvvvvvvvvvv%%%%%vvvvvv745546vvvvvcvvvvvvvvvvvvvvvvvv",
"vvvvvvvvvvvvvvvvvvvvvvv#$$$$vvvvvggjjjjhgvvvvvvvvvvvvvvvvvvvvvvv",
"vvvvvvvvvvvvvvvvvvvvvvv:---;vvvvvggggggggvvvvvvvvvvvvvvvvvvvvvvv",
"vvvvvvvvvvvvvvvvvvvvvvstqqqrpvvvvggggggggvvvvvvvvvvvvvvvvvvvvvvv",
"vvvvvvvvvvvvvvvvvvvvvvglllllgvvvvvvvvvvvvvvvvvvvvvvvvvvvvvvvvvvv",
"vvvvvvvvvvvvvvvvvvvvvvgggggggvvvvvvvvvvvvvvvvvvvvvvvvvvvvvvvvvvv",
"vvvvvvvvvvvvvvvvvvvvvvgggggggvvvvvvvvvvvvvvvvvvvvvvvvvvvvvvvvvvv"
};
