/* XPM */
static char *result[] = {
/* columns rows colors chars-per-pixel */
"64 64 50 1 ",
"  c #66350F",
". c #673610",
"X c #673611",
"o c #683711",
"O c #683712",
"+ c #693712",
"@ c #693812",
"# c #693813",
"$ c #6B3B16",
"% c #6C3B17",
"& c #6E3D19",
"* c #6F3F1B",
"= c #703F1C",
"- c #71411D",
"; c #72421F",
": c #7B4C2B",
"> c #825334",
", c #825434",
"< c #835435",
"1 c #87593A",
"2 c #885A3B",
"3 c #926548",
"4 c #9B7055",
"5 c #BC9480",
"6 c #C9A391",
"7 c #CDA797",
"8 c #CEA898",
"9 c #CFA899",
"0 c #CFA999",
"q c #D3AD9E",
"w c #D9B4A6",
"e c #DDB9AC",
"r c #E2BEB2",
"t c #E3BFB3",
"y c #E4C0B5",
"u c #E6C3B8",
"i c #E9C5BB",
"p c #EAC6BC",
"a c #EAC7BD",
"s c #EBC8BE",
"d c #EBC8BF",
"f c #EBC9BF",
"g c #ECC9BF",
"h c #ECC9C0",
"j c #ECCAC0",
"k c #EDCAC0",
"l c #EDCAC1",
"z c #EFCCC3",
"x c white",
"c c None",
/* pixels */
"cccccccccccccccccccccccccccccccccccccccccccccccccccccccccccccccc",
"cccccccccccccccccccccccccccccccccccccccccccccccccccccccccccccccc",
"cccccccccccccccccccccccccccccccccccccccccccccccccccccccccccccccc",
"cccccccccccccccccccccccccccccccccccccccccccccccccccccccccccccccc",
"cccccccccccccccccccccccccccccccccccccccccccccccccccccccccccccccc",
"ccccccccccccccccccccccc#############cccccccccccccccccccccccccccc",
"cccccccccccccccccccc#################ccccccccccccccccccccccccccc",
"ccccccccccccccccccc##################ccccccccccccccccccccccccccc",
"cccccccccccccccccc######################cccccccccccccccccccccccc",
"ccccccccccccccccc########################ccccccccccccccccccccccc",
"cccccccccccccccc##########################cccccccccccccccccccccc",
"ccccccccccccccc############################ccccccccccccccccccccc",
"ccccccccccccccc#############################cccccccccccccccccccc",
"cccccccccccccc###############################ccccccccccccccccccc",
"cccccccccccccc################################cccccccccccccccccc",
"cccccccccccccc################################cccccccccccccccccc",
"cccccccccccccc################################cccccccccccccccccc",
"ccccccccccccc#################################cccccccccccccccccc",
"cccccc########################################cccccccccccccccccc",
"ccccc###############################################cccccccccccc",
"ccccc################################################ccccccccccc",
"ccccc#################################################cccccccccc",
"ccccc#################################################cccccccccc",
"ccccc#################################################cccccccccc",
"ccccc#################################################cccccccccc",
"ccccc#################################################cccccccccc",
"ccccc#################################################cccccccccc",
"cccccc################################################cccccccccc",
"ccccccccccc##########################################ccccccccccc",
"cccccccccccc###################################ccccccccccccccccc",
"ccccccccccccc#################################cccccccccccccccccc",
"ccccccccccccc#################################cccccccccccccccccc",
"cccccccccccccc###############################ccccccccccccccccccc",
"ccccccccccccccc##############################ccccccccccccccccccc",
"ccccccccccccccc#############################cccccccccccccccccccc",
"ccccccccccccccc############################ccccccccccccccccccccc",
"ccccccccccccccc###########################ccccccccccccc####ccccc",
"cccccccccccccccccc#########################ccccccccccc#######ccc",
"ccccccccccccccccccc#########################cccccccc####cc####cc",
"ccccccccccccccccccc##########################cccccc####cccc####c",
"ccccccccccccccccccc###########################ccccc###cccccc###c",
"cccccccccccccccccc#############################ccc####cccccc###c",
"ccccccccccccccccc####################################ccccccc###c",
"cccccccccccccccc##################################X cccccccc###c",
"ccccccccccccccc#################################O&2ccccccccc###c",
"cccccccccccccc############################cc####%1eascccccc##ccc",
"cccccccccccccc####c#######################cc###.3wpsssscccc#cccc",
"ccccccccccccc#####c############################40hsssssccccccccc",
"ccccccccccccc#oO##c############################5zssssssccccccccc",
"ccccccccccccc$:;Occ##########################ccccssssssccccccccc",
"ccccccccccsl6:7ccccc########################ccccccsssscccccccccc",
"cccccccccssft9uccccc######################cccccccccccccccccccccc",
"cccccccccsssfkgcccccc#####################cccccccccccccccccccccc",
"cccccccccssssscccccccc####################cccccccccccccccccccccc",
"cccccccccssssscccccccc####################cccccccccccccccccccccc",
"cccccccccssssccccccccc#####cc######cc#####cccccccccccccccccccccc",
"cccccccccccccccccccccc#####cccccccccc#####cccxcccccccccccccccccc",
"ccccccccccccccccccccccXXXX.cccccccccc#####cccxcccccccccccccccccc",
"cccccccccccccccccccccc<,,>1cccccccccc+@@@@cccccccccccccccccccccc",
"cccccccccccccccccccccittttyaccccccccc-***=cccccccccccccccccccccc",
"ccccccccccccccccccccssggggdscccccccciq8880rccccccccccccccccccccc",
"ccccccccccccccccccccssssssssccccccccsjkkkkfscccccccccccccccccccc",
"cccccccccccccccccccccsssssssccccccccsssssssscccccccccccccccccccc",
"ccccccccccccccccccccccccccccccccccccsssssssscccccccccccccccccccc"
};
